<svg width="513" height="513" viewBox="0 0 513 513" fill="none" xmlns="http://www.w3.org/2000/svg">
<path d="M334.144 304.166L338.732 298.238L250.88 255.824L175.189 297.169C185.122 312.793 199.785 325.132 217.551 332.705C240.293 342.397 273.051 342.379 295.704 332.661C311.436 325.91 325.22 315.694 334.144 304.166Z" fill="#00549D"/>
<path d="M4.02123 382.832C4.34886 383.66 4.70606 384.33 5.09539 384.914C8.2881 389.696 36.3972 405.335 95.2554 435.073C142.292 458.838 195.025 485.575 212.436 494.489C229.85 503.403 247.715 511.416 252.138 512.296C261.123 514.082 283.061 504.485 350.701 469.179C361.049 463.779 375.377 456.431 382.541 452.852C462.932 412.678 502.156 391.61 507.06 385.972L421.659 341.461C424.108 345.043 393.746 377.304 377.34 389.115C356.823 403.884 326.158 417.797 301.589 423.48C272.794 430.142 219.722 427.678 193.326 418.452C147.86 402.565 111.998 374.744 89.3747 338.314L4.02123 382.832Z" fill="#00549D"/>
<path fill-rule="evenodd" clip-rule="evenodd" d="M213.209 15.8829C174.81 35.7171 164.809 40.8026 80.0589 83.595C32.0756 107.821 6.49057 122.234 4.11992 126.372C1.43376 131.062 0.533554 163.107 0.501713 255.288C0.499361 262.034 0.499316 268.419 0.502294 274.464C0.507227 284.476 0.520453 293.553 0.545229 301.788C0.684996 348.246 1.19232 367.898 2.65174 377.258C3.03795 379.735 3.49084 381.491 4.02123 382.832L89.3747 338.314C89.3097 338.209 89.2449 338.104 89.1801 338C89.0781 337.835 88.9763 337.669 88.8749 337.504C83.6612 329.005 79.1645 320.043 75.4305 310.658C66.6889 288.69 64.4514 238.785 71.1436 215.015C88.3952 153.745 142.35 104.097 208.867 88.2929C230.272 83.2074 281.257 83.121 303.056 88.1332C326.433 93.5094 357.373 107.684 377.305 122.145C391.694 132.588 420.176 162.772 420.168 167.569C420.168 168.507 401.761 178.764 379.27 190.362L338.373 211.451L324.135 197.834C304.391 178.945 286.329 172.034 256.627 171.997C228.22 171.966 210.833 178.316 190.935 195.998C171.545 213.229 164.166 229.627 164.077 255.691C164.019 273.014 165.327 279.134 171.629 291.044C172.736 293.137 173.925 295.18 175.189 297.169L250.88 255.824L338.732 298.238L379.435 318.436C401.822 329.544 420.956 340.431 421.659 341.461L507.06 385.972C512.831 379.334 512.938 376.545 512.151 253.094C511.445 141.88 510.805 126.505 506.741 122.828C504.206 120.537 490.529 112.815 476.348 105.668C462.165 98.5216 417.348 75.875 376.752 55.3391C336.156 34.8031 295.018 14.0341 285.333 9.18429C259.505 -3.74953 249.4 -2.80941 213.209 15.8829ZM350.701 244.303V217.72H379.647V244.303L407.145 242.773V268.518L379.647 267.923V293.663H350.701V268.177L323.834 268.785L323.822 242.807L350.701 244.303ZM446.222 244.303V217.72H475.167V244.588L501.218 241.933V269.615L475.167 267.819V293.663H446.222V268.177L418.723 268.785V242.773L446.222 244.303Z" fill="#0081CD"/>
<path d="M208.867 88.2929C142.35 104.097 88.3952 153.745 71.1436 215.015C64.4514 238.785 66.6889 288.69 75.4305 310.658C79.1645 320.043 83.6612 329.005 88.8749 337.504C88.9763 337.669 89.0781 337.835 89.1801 338L89.3747 338.314C111.998 374.744 147.86 402.565 193.326 418.452C219.722 427.678 272.794 430.142 301.589 423.48C326.158 417.797 356.823 403.884 377.34 389.115C393.746 377.304 424.108 345.043 421.659 341.461L338.732 298.238L334.144 304.166C325.22 315.694 311.436 325.91 295.704 332.661C273.051 342.379 240.293 342.397 217.551 332.705C199.785 325.132 185.122 312.793 175.189 297.169C173.925 295.18 172.736 293.137 171.629 291.044C165.327 279.134 164.019 273.014 164.077 255.691C164.166 229.627 171.545 213.229 190.935 195.998C210.833 178.316 228.22 171.966 256.627 171.997C286.329 172.034 304.391 178.945 324.135 197.834L338.373 211.451L379.27 190.362C401.761 178.764 420.168 168.507 420.168 167.569C420.176 162.772 391.694 132.588 377.305 122.145C357.373 107.684 326.433 93.5094 303.056 88.1332C281.257 83.121 230.272 83.2074 208.867 88.2929Z" fill="white"/>
<path d="M350.701 217.72V244.303L323.822 242.807L323.834 268.785L350.701 268.177V293.663H379.647V267.923L407.145 268.518V242.773L379.647 244.303V217.72H350.701Z" fill="white"/>
<path d="M446.222 217.72V244.303L418.723 242.773V268.785L446.222 268.177V293.663H475.167V267.819L501.218 269.615V241.933L475.167 244.588V217.72H446.222Z" fill="white"/>
<path d="M5.09539 384.914C8.2881 389.696 36.3972 405.335 95.2554 435.073C142.292 458.838 195.025 485.575 212.436 494.489C229.85 503.403 247.715 511.416 252.138 512.296C261.123 514.082 283.061 504.485 350.701 469.179C361.049 463.779 375.377 456.431 382.541 452.852C462.932 412.678 502.156 391.61 507.06 385.972M5.09539 384.914C4.70606 384.33 4.34886 383.66 4.02123 382.832M5.09539 384.914C4.07578 383.385 3.27652 381.265 2.65174 377.258M507.06 385.972C512.831 379.334 512.938 376.545 512.151 253.094C511.445 141.88 510.805 126.505 506.741 122.828C504.206 120.537 490.529 112.815 476.348 105.668C462.165 98.5216 417.348 75.875 376.752 55.3391C336.156 34.8031 295.018 14.0341 285.333 9.18429C259.505 -3.74953 249.4 -2.80941 213.209 15.8829C174.81 35.7171 164.809 40.8026 80.0589 83.595C32.0756 107.821 6.49057 122.234 4.11992 126.372C1.43376 131.062 0.533554 163.107 0.501713 255.288C0.499361 262.034 0.499316 268.419 0.502294 274.464C0.507227 284.476 0.520453 293.553 0.545229 301.788C0.684995 348.246 1.19232 367.898 2.65174 377.258M507.06 385.972L338.732 298.238M507.06 385.972L421.659 341.461M193.326 418.452C219.722 427.678 272.794 430.142 301.589 423.48C326.158 417.797 356.823 403.884 377.34 389.115C393.746 377.304 424.108 345.043 421.659 341.461M193.326 418.452C147.86 402.565 111.998 374.744 89.3747 338.314M193.326 418.452C147.73 402.519 111.792 374.584 89.1801 338M421.659 341.461C420.956 340.431 401.822 329.544 379.435 318.436L338.732 298.238M421.659 341.461L338.732 298.238M338.732 298.238L334.144 304.166C325.22 315.694 311.436 325.91 295.704 332.661C273.051 342.379 240.293 342.397 217.551 332.705C199.785 325.132 185.122 312.793 175.189 297.169M338.732 298.238L250.88 255.824L175.189 297.169M175.189 297.169C173.925 295.18 172.736 293.137 171.629 291.044C165.327 279.134 164.019 273.014 164.077 255.691C164.166 229.627 171.545 213.229 190.935 195.998C210.833 178.316 228.22 171.966 256.627 171.997C286.329 172.034 304.391 178.945 324.135 197.834L338.373 211.451L379.27 190.362C401.761 178.764 420.168 168.507 420.168 167.569C420.176 162.772 391.694 132.588 377.305 122.145C357.373 107.684 326.433 93.5094 303.056 88.1332C281.257 83.121 230.272 83.2074 208.867 88.2929C142.35 104.097 88.3952 153.745 71.1436 215.015C64.4514 238.785 66.6889 288.69 75.4305 310.658C79.1645 320.043 83.6612 329.005 88.8749 337.504C88.9763 337.669 89.0781 337.835 89.1801 338M89.3747 338.314L4.02123 382.832M89.3747 338.314C89.3097 338.209 89.2449 338.104 89.1801 338M89.3747 338.314L89.1801 338M4.02123 382.832C3.49084 381.491 3.03795 379.735 2.65174 377.258M350.701 244.303V217.72H379.647V244.303L407.145 242.773V268.518L379.647 267.923V293.663H350.701V268.177L323.834 268.785L323.822 242.807L350.701 244.303ZM446.222 244.303V217.72H475.167V244.588L501.218 241.933V269.615L475.167 267.819V293.663H446.222V268.177L418.723 268.785V242.773L446.222 244.303Z" stroke="#00549D"/>
</svg>
