<svg width="512" height="573" viewBox="0 0 512 573" fill="none" xmlns="http://www.w3.org/2000/svg">
<path fill-rule="evenodd" clip-rule="evenodd" d="M245.585 0.160666C245.727 0.449809 246.648 2.28508 247.631 4.23916C257.238 23.3331 248.545 50.7234 223.921 78.9437C217.824 85.9315 201.369 101.236 187.639 112.689C152.652 141.871 132.424 160.758 114.739 180.756C81.8939 217.897 63.3881 254.801 58.1367 293.631C56.9149 302.667 56.9215 320.14 58.1501 329.258C60.4462 346.3 66.3595 363.84 74.4537 377.624C86.1099 397.472 103.853 414.981 125.651 428.143C135.718 434.222 150.22 440.913 162.288 445.046C167.388 446.793 184.45 451.497 184.73 451.233C184.849 451.121 183.163 450.18 180.984 449.144C172.654 445.182 166.023 440.859 159.227 434.959C144.251 421.96 134.549 406.537 130.763 389.715C129.688 384.937 129.846 371.817 131.055 365.532C134.645 346.872 145.854 328.214 162.645 312.95C167.47 308.564 176.131 301.728 178.475 300.456C178.836 300.26 178.651 301.849 178.011 304.443C176.429 310.857 176.442 320.876 178.037 324.958C183.137 338.006 196.866 346.55 211.273 345.641C223.271 344.884 233.548 338.845 238.185 329.824C240.297 325.717 241.054 322.183 241.054 316.436C241.054 305.985 236.872 297.162 227.306 287.428C214.551 274.451 205.695 261.111 202.551 250.138C200.798 244.023 200.775 231.936 202.504 225.955C205.358 216.085 211.69 205.682 219.786 197.567L224.243 193.098L223.424 195.989C222.392 199.634 222.774 206.172 224.253 210.195C226.556 216.458 229.539 221.071 235.364 227.379C244.078 236.814 254.406 243.888 285.91 261.997C315.303 278.892 327.094 286.927 340.623 299.278C358.367 315.479 369.834 333.753 374.191 352.774C375.215 357.248 375.432 359.883 375.456 368.161C375.488 379.38 374.963 382.991 372.014 391.818C365.908 410.101 352.283 426.065 331.787 438.952C326.146 442.498 316.368 447.4 310.13 449.809C307.022 451.009 306.425 451.863 309.292 451.008C310.184 450.742 314.671 449.534 319.263 448.325C367.01 435.745 409.307 408.004 433.07 373.681C451.966 346.388 458.874 315.204 453.101 283.258C445.228 239.69 412.299 200.338 361.139 173.361C356.617 170.976 352.806 169.13 352.671 169.257C352.535 169.385 352.769 170.571 353.19 171.892C354.737 176.747 354.479 178.622 351.396 184.949C347.881 192.163 339.721 198.108 330.101 200.462C325.865 201.498 317.169 201.613 313.122 200.686C308.969 199.734 302.89 196.934 299.956 194.622C293.924 189.869 288.305 181.247 286.117 173.384C285.513 171.215 284.868 166.839 284.682 163.658C284.102 153.717 285.686 146.124 293.844 119.761C298.091 106.032 298.667 102.456 298.667 89.795C298.667 79.93 298.501 77.7567 297.361 72.7093C291.261 45.6991 272.962 19.7414 246.39 0.409329C245.805 -0.0164998 245.443 -0.128477 245.585 0.160666ZM403.164 487.257C399.712 488.319 396.791 489.281 396.673 489.395C396.553 489.508 396.053 492.44 395.56 495.91C394.13 505.967 394.65 505.039 390.35 505.218L386.645 505.373L386.282 507.475C386.082 508.632 385.748 510.702 385.538 512.075L385.157 514.573H389.645C394.319 514.573 394.974 514.953 393.019 516.534C392.406 517.03 391.908 517.914 391.912 518.501C391.915 519.087 391.124 524.479 390.155 530.482C388.565 540.319 388.46 541.686 389.087 544.33C390.42 549.959 395.448 552.95 403.577 552.95C409.743 552.95 416.314 551.056 420.543 548.061C421.586 547.321 421.517 547.165 418.637 543.813C416.992 541.899 415.628 540.334 415.605 540.335C415.582 540.336 414.331 540.927 412.825 541.649C410.846 542.597 409.196 542.961 406.88 542.961C403.24 542.961 401.925 542.142 401.925 539.872C401.925 538.692 404.386 522.72 405.557 516.296L405.866 514.603L413.113 514.456L420.36 514.31L422.276 510.148C423.329 507.859 424.191 505.788 424.191 505.548C424.191 505.307 420.342 505.11 415.639 505.11H407.087L407.526 502.613C408.547 496.803 409.823 486.84 409.639 486.112C409.474 485.461 408.356 485.658 403.164 487.257ZM367.266 486.184C366.811 487.307 365.743 496.091 365.743 498.705V500.904H372.412C380.078 500.904 379.147 501.718 380.231 494.07C380.58 491.612 380.989 489.01 381.14 488.287L381.415 486.973L374.739 487.134C368.679 487.281 368.041 487.208 367.824 486.345C367.63 485.573 367.526 485.543 367.266 486.184ZM25.3529 487.057C11.6522 489.826 4.07619 499.483 0.880473 518.253C-2.42156 537.645 3.64089 549.904 17.7747 552.417C31.0575 554.778 44.2144 550.253 51.1268 540.946L53.4642 537.799L49.5465 535.362C45.0889 532.588 44.0006 532.102 44.0006 532.886C44.0006 533.19 42.6307 534.836 40.9569 536.543C36.7353 540.85 32.7157 542.528 26.4707 542.593C18.5746 542.674 14.8852 539.973 13.3299 532.973C12.058 527.248 14.2968 513.008 17.5103 506.379C19.1329 503.032 22.877 499.077 25.7209 497.707C30.2347 495.532 38.5293 495.444 43.1668 497.523C46.5417 499.035 48.4444 502.73 48.4505 507.785L48.4538 510.198L53.0462 510.143L57.6385 510.089L57.8172 508.03C58.2592 502.937 55.9034 496.132 52.3899 492.352C50.4093 490.222 46.0146 487.893 42.1359 486.917C38.4353 485.987 30.3154 486.054 25.3529 487.057ZM149.502 488.418C148.816 491.29 146.98 502.47 146.98 503.779C146.98 504.955 146.8 505.148 146.006 504.823C139.971 502.348 135.161 501.913 128.531 503.24C119.086 505.13 113.978 510.197 110.468 521.158C109.153 525.264 108.951 526.83 108.904 533.235C108.857 539.677 108.996 540.894 110.022 542.988C113.641 550.375 120.108 553.31 131.787 552.867C135.989 552.708 137.785 552.399 139.546 551.531L141.839 550.403L142.202 552.991L142.566 555.578H147.216H151.866L152.198 553.87C152.505 552.296 162.567 487.794 162.567 487.407C162.567 487.313 159.691 487.235 156.176 487.235C150.003 487.235 149.775 487.276 149.502 488.418ZM220.276 491.835C220.14 492.052 219.856 493.767 219.646 495.647C219.436 497.526 219.14 499.478 218.989 499.984C218.746 500.794 219.154 500.904 222.394 500.904H226.075L225.737 502.613C225.55 503.553 223.846 513.666 221.949 525.087L218.499 545.853L215.079 546.008C211.19 546.184 211.353 545.961 210.694 552.03L210.309 555.578H223.673H237.037L237.333 554.395C237.496 553.745 237.806 551.593 238.021 549.614L238.411 546.016L235 546.197C232.758 546.316 231.589 546.179 231.59 545.795C231.591 545.233 233.542 533.299 237.116 511.992C238.057 506.381 238.827 501.591 238.827 501.347C238.827 501.103 240.423 500.904 242.374 500.904H245.92L246.313 497.618C246.529 495.811 246.843 493.682 247.011 492.887L247.316 491.441H233.92C226.552 491.441 220.412 491.618 220.276 491.835ZM76.5645 502.696C70.8884 504.025 65.3481 507.809 62.6032 512.232C57.4748 520.497 55.7348 536 59.1459 543.037C62.4051 549.759 68.6312 552.962 78.4009 552.942C88.2257 552.921 96.3021 548.986 100.542 542.153C105.747 533.764 107.426 518.328 103.896 511.306C100.661 504.868 94.5804 501.918 84.7166 502C81.7636 502.025 78.0953 502.338 76.5645 502.696ZM180.802 502.748C171.716 504.904 166.248 510.569 163.023 521.168C161.972 524.623 161.749 526.631 161.741 532.719C161.732 540 161.754 540.131 163.566 543.609C166.6 549.432 171.597 552.256 179.839 552.805C188.268 553.367 196.232 551.009 201.435 546.413C203.937 544.203 206.544 540.617 205.961 540.188C205.821 540.084 203.738 539.234 201.333 538.298L196.958 536.595L194.498 538.952C191.079 542.227 188.322 543.118 182.326 542.885C177.691 542.706 177.442 542.632 175.88 540.981C174.469 539.49 174.256 538.852 174.256 536.118V532.973H191.46H208.664L209.068 527.889C210.118 514.664 207.181 507.288 199.438 503.702C196.598 502.387 195.565 502.21 190.121 502.106C186.234 502.032 182.831 502.266 180.802 502.748ZM329.004 502.447C326.932 503.045 322.838 505.063 320.86 506.463C318.451 508.167 317.748 508.212 317.339 506.687C316.994 505.401 316.871 505.373 311.736 505.373H306.486L306.073 507.738C305.847 509.039 304.277 519.685 302.586 531.395C300.895 543.106 299.362 553.345 299.18 554.149L298.849 555.612L305.412 555.464L311.975 555.315L314.623 536.915C316.08 526.795 317.48 518.185 317.734 517.782C317.989 517.379 320.19 516.021 322.627 514.766C327.986 512.004 331.319 511.687 333.803 513.705C336.059 515.538 336.111 518.981 334.091 532.71C333.155 539.071 332.113 546.286 331.775 548.744C331.437 551.202 331.022 553.753 330.852 554.413L330.544 555.612L337.146 555.464L343.748 555.315L344.38 550.584C344.728 547.982 345.732 541.121 346.611 535.338C347.704 528.141 348.205 522.751 348.196 518.253C348.185 512.137 348.079 511.492 346.674 508.954C344.108 504.321 339.705 501.925 333.893 502.001C331.969 502.025 329.77 502.226 329.004 502.447ZM443.372 502.689C433.945 504.852 428.352 510.702 425.225 521.67C423.601 527.366 423.442 537.743 424.917 541.737C426.178 545.15 429.677 548.95 433.029 550.544C441.93 554.777 455.349 553.245 462.996 547.122C465.421 545.18 468.864 540.778 468.335 540.295C468.089 540.07 465.953 539.163 463.589 538.28L459.289 536.675L456.631 539.175C453.481 542.138 451.008 542.962 445.279 542.959C438.669 542.956 436.437 541.09 436.437 535.567V532.973H453.693C469.753 532.973 470.95 532.909 470.959 532.053C470.964 531.547 471.215 528.92 471.517 526.215C472.817 514.557 468.658 506.078 460.168 503.078C456.493 501.779 448.176 501.586 443.372 502.689ZM500.694 503.172C499.143 503.873 496.98 505.186 495.889 506.092C493.521 508.055 493.345 508.085 493.115 506.555C492.946 505.435 492.656 505.365 487.576 505.223L482.216 505.073L481.614 509.166C481.282 511.417 480.505 516.807 479.887 521.144C476.589 544.284 475.339 552.83 475.06 554.149L474.75 555.612L481.338 555.464L487.927 555.315L489.119 546.904C489.775 542.278 490.965 533.953 491.764 528.403C492.562 522.854 493.215 517.987 493.215 517.588C493.215 516.909 496.075 515.306 499.401 514.12C500.201 513.835 503.022 513.525 505.67 513.43C509.36 513.298 510.541 513.074 510.726 512.47C511.299 510.607 512.247 502.932 511.94 502.642C511.756 502.467 509.784 502.229 507.559 502.112C504.134 501.932 503.08 502.095 500.694 503.172ZM268.754 502.997C261.763 504.181 257.664 506.186 253.68 510.371C250.471 513.742 249.148 517.44 249.166 522.984C249.176 526.109 249.462 527.454 250.544 529.471L251.909 532.015L249.543 534.343C247.582 536.273 247.177 537.023 247.177 538.73C247.177 539.863 247.417 541.387 247.711 542.117C248.192 543.312 247.918 543.754 244.97 546.538C242.166 549.187 241.52 550.178 240.473 553.431C239.548 556.31 239.342 557.878 239.626 559.898C240.863 568.706 248.718 573 263.598 573C280.874 573.001 290.136 567.721 291.448 557.127C292.184 551.186 289.575 547.213 283.533 545.066C281.753 544.435 275.663 543.108 270 542.12C258.414 540.097 257.197 539.731 257.197 538.272C257.197 536.66 258.001 536.52 263.318 537.207C269.286 537.977 276.637 537.271 281.578 535.454C286.038 533.813 291.178 528.977 292.519 525.161C293.613 522.045 293.911 517.357 293.186 514.665L292.715 512.916L294.472 513.774C295.438 514.246 297.123 514.56 298.217 514.471C300.141 514.315 300.254 514.185 301.769 510.367C302.629 508.198 303.348 506.129 303.366 505.767C303.411 504.858 295.856 504.927 291.159 505.878C288.97 506.321 287.309 506.421 286.941 506.132C286.607 505.87 284.708 505.079 282.723 504.373C278.642 502.922 272.669 502.333 268.754 502.997ZM356.603 507.87C356.396 509.388 356.081 511.517 355.904 512.601L355.581 514.573H359.86C362.213 514.573 364.013 514.764 363.86 514.997C363.708 515.231 362.691 521.096 361.601 528.031C358.799 545.865 358.976 549.644 362.775 553.048C365.059 555.094 366.89 555.578 372.34 555.578H377.194L377.812 551.241C378.152 548.856 378.316 546.726 378.177 546.51C378.038 546.293 376.93 546.115 375.716 546.115C372.034 546.115 372.027 545.834 375.195 525C376.732 514.897 377.989 506.289 377.989 505.871C377.989 505.233 376.283 505.11 367.485 505.11H356.98L356.603 507.87ZM133.621 511.302C129.14 511.777 126.813 513.536 124.619 518.104C122.676 522.153 121.181 530.589 121.466 535.912C121.657 539.483 121.825 539.949 123.484 541.515C125.251 543.185 125.405 543.224 130.152 543.214C134.04 543.205 135.598 542.955 137.935 541.966C139.542 541.286 140.857 540.516 140.857 540.256C140.857 539.996 141.734 534.184 142.806 527.341C143.877 520.498 144.754 514.509 144.754 514.032C144.754 513.555 144.065 512.86 143.223 512.488C141.58 511.761 135.902 511.06 133.621 511.302ZM81.5743 511.645C81.2682 511.759 80.3481 511.991 79.5298 512.161C75.4562 513.006 72.4208 517.728 70.998 525.433C69.4244 533.958 70.0478 539.222 72.9185 541.639C74.8717 543.283 81.5716 543.438 84.9014 541.916C89.5249 539.802 92.2726 533.289 92.7774 523.247C93.0981 516.866 92.4863 514.861 89.6129 512.874C88.2981 511.964 82.9264 511.144 81.5743 511.645ZM268.051 512.208C266.827 512.617 265.148 513.661 264.321 514.53C261.391 517.606 260.889 523.432 263.342 525.897C265.917 528.486 273.577 528.599 277.289 526.103C280.367 524.033 281.881 519.097 280.581 515.375C279.377 511.931 273.404 510.42 268.051 512.208ZM186.371 512.451C182.394 513.625 180.045 515.799 177.375 520.775L175.907 523.51H186.215H196.522V520.329C196.522 516.632 195.487 514.384 193.293 513.312C191.184 512.282 188.201 511.911 186.371 512.451ZM450.075 512.197C449.769 512.296 448.849 512.516 448.031 512.686C445.174 513.279 440.241 518.539 438.978 522.339L438.581 523.534L448.781 523.39L458.981 523.247L458.926 520.35C458.833 515.56 456.797 513.087 452.302 512.306C451.383 512.146 450.381 512.097 450.075 512.197ZM254.789 550.308C251.864 553.591 251.44 558.669 253.886 561.128C255.615 562.866 259.891 563.633 266.43 563.378C272.541 563.141 275.522 562.142 277.409 559.702C278.795 557.91 278.938 554.332 277.674 553.137C276.862 552.372 260.221 548.833 257.107 548.765C256.598 548.753 255.555 549.448 254.789 550.308Z" fill="#EE4323"/>
</svg>
