<svg width="358" height="512" viewBox="0 0 358 512" fill="none" xmlns="http://www.w3.org/2000/svg">
<path d="M233.846 309.853H181.905C180.919 309.853 179.951 309.853 179 309.853V382.289C181.61 381.874 192.613 379.095 204.803 375.755L228.851 369.17L230.461 351.237C231.346 341.375 232.47 328.028 232.958 321.579L233.846 309.853Z" fill="#33A9DC"/>
<path d="M241.727 222.796L241.821 218.887H179V264.829L180.277 264.814L181.174 264.804L181.979 264.795C212.171 264.461 237.179 263.877 237.554 263.496C238.225 262.815 241.544 230.436 241.727 222.796Z" fill="#33A9DC"/>
<path d="M224.229 417.473L179.373 430.098V480.97L295.29 447.49L323.001 130.654H179V173.404H179.227H291.143L290.336 180.866C289.892 184.97 285.324 236.619 280.185 295.64C275.045 354.661 270.447 403.378 269.964 403.9C269.48 404.421 248.9 410.53 224.229 417.473Z" fill="#33A9DC"/>
<path fill-rule="evenodd" clip-rule="evenodd" d="M0.669744 104.824C1.03747 106.975 2.92367 127.282 4.86159 149.952C8.41026 191.501 10.6194 216.872 17.4791 294.929C19.54 318.381 23.8298 367.581 27.0093 404.263L32.7923 470.957L56.5605 477.616C69.6324 481.278 102.523 490.512 129.649 498.138L178.971 512L199.56 506.164C210.884 502.955 243.741 493.687 272.575 485.57L324.999 470.814L330.838 404.191C338.747 313.926 343.26 262.513 348.161 206.806C350.43 181.008 353.242 148.708 354.408 135.028C355.573 121.347 356.859 108.075 357.263 105.535L358 100.916H178.999H0L0.669744 104.824ZM71.239 217.003C71.239 215.06 68.8788 188.203 67.8749 178.734L67.31 173.404H179V130.654H323.001L295.29 447.49L179.373 480.97V430.098L134.044 417.358C109.114 410.351 88.4957 404.445 88.2273 404.235C87.4373 403.615 81.3802 334.832 82.0136 333.661C82.331 333.075 92.2346 332.595 104.024 332.595H125.457L126.232 337.214C126.659 339.754 127.432 348.069 127.952 355.692C128.472 363.314 129.132 369.55 129.417 369.55C129.702 369.55 140.364 372.428 153.11 375.946C165.857 379.464 177.292 382.342 178.521 382.342C178.617 382.342 178.778 382.324 179 382.289V309.853C140.764 309.834 129.953 309.432 129.919 308.077C129.894 307.1 129.017 297.346 127.97 286.401C126.923 275.457 126.296 266.255 126.576 265.952C126.846 265.66 150.164 265.163 179 264.829V218.887H156.53C86.6123 218.887 71.239 218.548 71.239 217.003Z" fill="#1572B6"/>
<path d="M67.8749 178.734C68.8788 188.203 71.239 215.06 71.239 217.003C71.239 218.548 86.6123 218.887 156.53 218.887H179H241.821L241.727 222.796C241.544 230.436 238.225 262.815 237.554 263.496C237.179 263.877 212.171 264.461 181.979 264.795L181.174 264.804L180.277 264.814L179 264.829C150.164 265.163 126.846 265.66 126.576 265.952C126.296 266.255 126.923 275.457 127.97 286.401C129.017 297.346 129.894 307.1 129.919 308.077C129.953 309.432 140.764 309.834 179 309.853C179.951 309.853 180.919 309.853 181.905 309.853H233.846L232.958 321.579C232.47 328.028 231.346 341.375 230.461 351.237L228.851 369.17L204.803 375.755C192.613 379.095 181.61 381.874 179 382.289C178.778 382.324 178.617 382.342 178.521 382.342C177.292 382.342 165.857 379.464 153.11 375.946C140.364 372.428 129.702 369.55 129.417 369.55C129.132 369.55 128.472 363.314 127.952 355.692C127.432 348.069 126.659 339.754 126.232 337.214L125.457 332.595H104.024C92.2346 332.595 82.331 333.075 82.0136 333.661C81.3802 334.832 87.4373 403.615 88.2273 404.235C88.4957 404.445 109.114 410.351 134.044 417.358L179.373 430.098L224.229 417.473C248.9 410.53 269.48 404.421 269.964 403.9C270.447 403.378 275.045 354.661 280.185 295.64C285.324 236.619 289.892 184.97 290.336 180.866L291.143 173.404H179.227H179H67.31L67.8749 178.734Z" fill="white"/>
<path d="M218.051 8.4101V16.8202L232.647 32.9283L247.242 49.0364L232.647 49.4401L218.051 49.8438V59.7449V69.6459H249.429C266.687 69.6459 281.094 69.1655 281.446 68.5799C281.797 67.9929 281.677 63.8412 281.179 59.3511C280.298 51.4229 279.886 50.7676 266.908 36.6096C259.559 28.5918 253.168 21.3913 252.708 20.6095C252.172 19.6999 256.978 19.1882 266.072 19.1882H280.272L280.686 9.59408L281.098 0H249.576H218.051V8.4101Z" fill="white"/>
<path d="M142.583 8.17274L142.619 16.3455L157.597 32.691L172.573 49.0364L157.56 49.4401L142.548 49.8438V59.7449V69.6459H174.707H206.866V61.2316V52.8172L192.327 36.7134L177.788 20.6095L191.628 20.2044L205.467 19.7993V9.89967V0H174.008H142.548L142.583 8.17274Z" fill="white"/>
<path d="M76.8318 34.823V69.6459H104.097H131.362V58.9247V48.2021L115.632 48.62L99.9024 49.0364L99.5039 34.4676L99.1054 19.8988H115.234H131.362V9.94942V0H104.097H76.8318V34.823Z" fill="white"/>
</svg>
