<svg width="307" height="512" viewBox="0 0 307 512" fill="none" xmlns="http://www.w3.org/2000/svg">
<path fill-rule="evenodd" clip-rule="evenodd" d="M263.545 189.608C252.698 191.815 249.682 194.916 259.747 193.515C274.797 191.419 289.58 201.284 289.597 213.437C289.616 225.259 276.446 239.411 254.725 250.911C248.395 254.262 243.217 257.312 243.217 257.688C243.217 259.004 271.313 249.575 278.974 245.689C294.158 237.988 307 222.987 307 212.949C307 206.495 299.851 197.022 292.22 193.361C282.801 188.845 273.365 187.61 263.545 189.608ZM93.4244 192.913C71.9798 195.573 42.775 205.473 40.7823 210.757C40.3668 211.862 42.4909 213.875 45.5022 215.233C66.1795 224.552 155.468 225.51 207.141 216.966C219.594 214.908 241.284 207.766 241.284 205.722C241.284 205.478 231.066 206.578 218.574 208.168C182.767 212.725 118.176 215.425 95.9505 213.294C85.6467 212.307 75.2617 210.587 72.8728 209.474L68.5298 207.447L72.9849 204.302C75.4357 202.574 84.7344 199.176 93.6466 196.756C115.482 190.821 115.445 190.181 93.4244 192.913ZM81.8275 237.048C65.9436 244.889 75.9344 254.469 104.055 258.363C120.12 260.589 166.976 260.612 183.3 258.404C202.878 255.754 225.824 251.326 225.799 250.199C225.785 249.638 222.623 247.399 218.771 245.224L211.767 241.269L190.285 244.161C154.229 249.018 94.5531 247.279 90.2777 241.249C89.4988 240.152 89.7018 237.886 90.7281 236.215C93.1731 232.233 91.2113 232.417 81.8275 237.048ZM91.9593 274.89C67.0299 288.36 117.443 304.066 169.289 298.981C186.88 297.256 220.023 290.019 220.023 287.902C220.023 287.507 215.273 285.157 209.468 282.68C199.35 278.364 198.324 278.253 184.825 280.021C158.005 283.534 147.454 283.926 127.624 282.147C106.289 280.234 99.2499 278.168 100.945 274.318C102.356 271.114 98.4941 271.36 91.9593 274.89ZM51.8689 297.247C34.406 299.949 11.0209 309.485 8.65126 314.869C6.81896 319.028 13.9336 323.687 25.1207 325.655C70.6442 333.663 165.219 336.087 211.339 330.429C263.705 324.002 296.385 312.234 287.569 302.976C284.537 299.793 281.694 299.875 283.116 303.106C286.12 309.925 269.001 315.469 230.524 320.133C210.566 322.554 192.866 323.155 142.711 323.12C77.7667 323.073 59.4243 321.627 41.7217 315.167C33.9866 312.342 32.8964 310.533 37.1003 307.492C40.8055 304.812 61.1541 298.896 67.1517 298.755C71.686 298.647 71.7962 298.499 68.2978 297.188C63.7557 295.487 63.2223 295.489 51.8689 297.247ZM302.151 320.795C298.072 326.548 269.751 334.297 234.249 339.374C190.421 345.64 115.058 346.747 72.6737 341.746C61.0865 340.378 67.2986 343.481 80.8611 345.836C110.661 351.007 165.744 352.488 209.772 349.301C263.742 345.394 296.679 335.995 305.313 322.035C307.271 318.87 304.333 317.719 302.151 320.795Z" fill="#5382A1"/>
<path fill-rule="evenodd" clip-rule="evenodd" d="M242.251 404.435C236.936 405.848 232.287 407.258 231.92 407.566C231.553 407.873 231.81 410.334 232.49 413.033L233.725 417.941L243.726 415.681C267.474 410.312 279.941 414.726 279.941 428.505V435.319H269.662C239.151 435.319 220.729 450.923 227.61 470.936C232.691 485.718 260.263 490.318 276.61 479.111C282.944 474.769 283.806 474.87 283.806 479.959C283.806 483.749 284.579 484.17 291.538 484.17H299.269L299.261 450.901C299.255 420.504 298.917 417.15 295.353 412.056C293.207 408.988 288.457 405.388 284.792 404.054C276.222 400.933 254.687 401.125 242.251 404.435ZM245.983 463.085C244.363 455.557 248.718 449.454 257.24 447.308C260.69 446.44 267.207 445.662 271.726 445.578L279.941 445.426V455.558C279.941 465.18 279.626 465.858 273.659 469.028C266.842 472.651 256.714 473.382 250.904 470.674C248.894 469.735 246.679 466.321 245.983 463.085Z" fill="#E76F00"/>
<path d="M148.026 402.985C142.978 403.266 138.845 404.266 138.845 405.206C138.845 406.731 155.638 455.538 163.259 476.168L166.216 484.17H177.608H177.84C182.375 484.17 185.312 484.17 187.651 483.14C191.951 481.245 194.23 475.866 200.698 460.598L200.879 460.172C206.071 447.921 218.087 408.848 218.093 404.197C218.095 403.165 213.983 402.695 207.874 403.027L197.651 403.583L195.312 416.503C191.864 435.54 181.008 467.045 179.293 462.99C178.54 461.205 173.814 447.616 168.794 432.792C163.773 417.968 159.113 405.082 158.436 404.155C157.76 403.229 153.075 402.702 148.026 402.985Z" fill="#E76F00"/>
<path fill-rule="evenodd" clip-rule="evenodd" d="M68.2978 404.651C60.5685 406.948 58.7497 408.198 59.2097 410.893C60.4255 418.016 60.7695 418.152 71.4638 415.735C95.4809 410.305 107.92 415.216 107.92 430.124C107.92 434.834 107.797 434.883 93.7046 435.671C66.164 437.211 52.5396 447.299 54.2154 464.913C55.2629 475.914 60.4815 481.655 71.8619 484.327C81.2882 486.538 90.875 485.147 101.484 480.024L109.546 476.135L110.731 480.25C111.761 483.825 112.861 484.298 119.1 483.847L126.282 483.328V450.4C126.282 413.887 125.608 411.554 113.131 404.923C105.135 400.675 82.1348 400.535 68.2978 404.651ZM73.1298 460.587C73.1298 453.657 77.1385 449.464 85.9695 447.158C89.006 446.364 95.189 445.65 99.706 445.571L107.92 445.426V455.223C107.92 464.85 107.791 465.083 100.41 468.699C85.6332 475.938 73.1298 472.218 73.1298 460.587Z" fill="#E76F00"/>
<path d="M20.3892 374.038C19.6316 374.698 19.0111 399.393 19.0111 428.916C19.0111 488.418 18.7231 490.066 6.84602 498.615L0 503.542L4.63875 508.233C9.21371 512.861 9.36447 512.886 15.5939 510.142C24.4965 506.22 30.3258 501.238 35.1443 493.435C39.1665 486.921 39.3056 484.822 39.3056 430.265V373.834L30.5365 373.335C25.7122 373.061 21.1469 373.377 20.3892 374.038Z" fill="#E76F00"/>
<path d="M234.52 73.0427C182.044 89.4331 155.044 112.181 158.908 136.75C160.286 145.511 163.926 152.01 174.129 163.928C184.638 176.203 185.778 184.555 178.437 195.474L173.091 203.423L178.679 199.917C195.794 189.18 205.904 175.088 203.73 164.992C203.079 161.96 198.144 153.778 192.765 146.81C181.008 131.578 179.158 123.954 184.86 114.212C190.204 105.082 202.899 95.2767 227.285 81.4434C249.112 69.0588 249.789 68.2738 234.52 73.0427Z" fill="#E76F00"/>
<path d="M199.677 12.2164C199.768 35.6986 189.046 49.1259 145.61 79.9273C111.753 103.937 102.483 115.343 104.809 130.129C106.712 142.233 115.42 153.74 137.52 173.354C159.016 192.435 160.367 192.12 144.623 171.692C139.624 165.206 133.621 156.627 131.284 152.626C120.192 133.638 125.511 117.297 148.886 98.548C195.908 60.835 206.536 47.8996 208.102 26.4927C208.836 16.4226 205.006 2.19182 200.976 0.0204738C200.233 -0.378757 199.65 5.10941 199.677 12.2164Z" fill="#E76F00"/>
</svg>
