<svg width="358" height="512" viewBox="0 0 358 512" fill="none" xmlns="http://www.w3.org/2000/svg">
<path fill-rule="evenodd" clip-rule="evenodd" d="M179.419 480.077L295.065 447.911L322.51 132.87H179.195L179.419 480.077ZM192.59 259.48C192.547 219.455 192.621 184.398 192.755 181.575L192.998 176.442H248.844H304.689L304.374 181.803C304.201 184.752 303.874 188.601 303.648 190.358C303.422 192.115 302.911 197.453 302.514 202.221C302.116 206.988 301.687 212.043 301.559 213.454L301.328 216.018L295.883 216.259C292.888 216.392 280.85 216.442 269.131 216.371C257.413 216.299 244.242 216.35 239.863 216.483L231.901 216.726V251.484V286.242L235.434 285.671C237.378 285.356 240.153 284.972 241.602 284.818C243.051 284.664 245.346 284.35 246.703 284.12C253.179 283.023 254.955 282.731 260.384 281.872C263.591 281.365 267.225 280.827 268.458 280.677C269.692 280.527 273.628 279.904 277.205 279.294C280.782 278.684 284.877 278.076 286.304 277.944C287.732 277.812 290.636 277.396 292.758 277.019C294.88 276.643 296.687 276.407 296.774 276.495C296.861 276.583 296.635 279.31 296.273 282.553C295.91 285.798 295.526 289.684 295.419 291.189C294.698 301.363 294.205 307.122 293.818 309.896C293.573 311.652 293.155 316.066 292.889 319.705C292.624 323.344 292.227 327.655 292.009 329.286C291.791 330.917 291.486 334.305 291.331 336.814C291.176 339.324 290.97 341.993 290.873 342.746C290.777 343.498 290.476 346.578 290.206 349.589C289.936 352.601 289.519 357.118 289.278 359.627C288.65 366.182 288.073 372.513 287.533 378.789C287.274 381.801 286.762 387.241 286.396 390.88C286.029 394.519 285.609 399.343 285.463 401.602C285.3 404.128 284.974 405.889 284.616 406.177C284.296 406.435 282.548 407.018 280.732 407.473C276.589 408.509 269.52 410.482 260.833 413.027C254.643 414.84 245.951 417.272 236.386 419.868C234.289 420.437 231.558 421.225 230.317 421.62C229.076 422.015 225.442 423.038 222.243 423.894C219.043 424.751 213.509 426.312 209.946 427.363C200.962 430.014 193.205 431.972 192.904 431.667C192.765 431.526 192.664 422.137 192.68 410.803L192.708 390.196L197.239 388.993C199.732 388.332 203.454 387.262 205.51 386.615C207.566 385.969 211.166 384.928 213.51 384.304C220.265 382.504 230.348 379.719 235.714 378.17C238.427 377.387 242.999 376.108 245.874 375.328L251.1 373.91L251.357 372.015C251.498 370.973 251.829 367.554 252.092 364.418C252.354 361.281 252.752 357.585 252.976 356.205C253.199 354.825 253.602 351.027 253.87 347.764C254.138 344.502 254.661 339.705 255.032 337.104C255.403 334.503 255.81 330.499 255.936 328.207C256.063 325.915 256.279 323.657 256.415 323.19C256.648 322.396 256.45 322.362 253.366 322.67C251.552 322.852 247.847 323.387 245.133 323.86C242.419 324.333 236.869 325.227 232.798 325.847C228.727 326.467 224.286 327.184 222.93 327.442C217.97 328.383 209.596 329.715 205.66 330.189C203.44 330.457 200.109 330.97 198.259 331.329C196.409 331.688 194.394 332.043 193.782 332.117L192.669 332.252L192.59 259.48Z" fill="#FFDD24"/>
<path fill-rule="evenodd" clip-rule="evenodd" d="M2.04824e-07 100.819C0.0130084 102.706 0.951841 114.786 1.3385 118.042C1.59193 120.175 1.99429 124.692 2.23337 128.08C2.47201 131.468 2.87122 136.498 3.12017 139.258C3.36912 142.018 3.98455 149.204 4.48738 155.227C4.99066 161.249 5.69266 169.462 6.04747 173.477C6.40228 177.492 7.00738 184.472 7.39135 188.989C7.77576 193.506 8.28712 199.255 8.5271 201.764C8.76753 204.274 9.08421 208.687 9.23178 211.572C9.37891 214.457 9.58749 216.962 9.6947 217.139C9.80235 217.316 10.1818 221.32 10.538 226.037C10.8941 230.755 11.3916 236.77 11.6437 239.405C11.8958 242.04 12.299 246.557 12.5399 249.442C12.7808 252.328 13.1719 256.948 13.4097 259.708C13.6474 262.468 14.1722 268.73 14.5759 273.624C14.9801 278.517 15.7022 286.935 16.1818 292.33C17.4471 306.573 17.4633 306.774 17.7208 311.264C17.8504 313.523 18.1509 316.808 18.3887 318.564C18.6259 320.321 19.022 324.735 19.2687 328.374C19.515 332.012 19.9182 337.043 20.165 339.552C20.4117 342.061 20.8163 346.681 21.0643 349.818C21.3124 352.954 21.7134 357.779 21.956 360.539C22.1987 363.3 22.719 369.459 23.1129 374.227C23.5067 378.995 24.123 385.873 24.4819 389.511C25.0717 395.489 25.7199 403.835 26.2716 412.552C26.3829 414.308 26.6686 417.08 26.9068 418.711C27.145 420.342 27.5514 424.859 27.8106 428.749C28.0695 432.638 28.4673 437.463 28.6943 439.471C28.9217 441.478 29.2353 445.368 29.3918 448.115C29.5483 450.862 29.8601 454.25 30.0839 455.643C30.3082 457.037 30.6213 460.743 30.7801 463.88C30.9384 467.017 31.2632 469.835 31.5009 470.142C31.7391 470.448 32.6703 470.836 33.5706 471.002C34.4713 471.169 40.4559 472.835 46.8703 474.706C53.2847 476.576 60.7532 478.685 63.467 479.393C66.1808 480.102 69.6123 481.104 71.0925 481.621C72.5727 482.138 74.995 482.867 76.4752 483.242C80.989 484.386 89.1604 486.683 95.5389 488.599C98.8695 489.6 103.411 490.907 105.632 491.502C110.043 492.686 121.304 495.855 128.732 498.004C135.748 500.033 141.842 501.744 142.919 501.987C143.444 502.106 145.564 502.719 147.629 503.35C149.694 503.981 155.119 505.528 159.683 506.788C164.247 508.047 168.889 509.376 170 509.741C171.11 510.107 173.611 510.818 175.557 511.322C178.883 512.183 179.247 512.195 181.612 511.523C182.997 511.13 186.753 510.1 189.961 509.235C193.168 508.369 196.195 507.463 196.689 507.222C197.182 506.981 199.504 506.281 201.847 505.667C204.191 505.053 208.026 504.012 210.37 503.353C212.714 502.694 216.145 501.751 217.995 501.258C219.846 500.764 222.167 500.065 223.154 499.705C224.141 499.344 227.37 498.412 230.331 497.633C233.291 496.854 238.136 495.496 241.096 494.615C251.412 491.544 254.15 490.754 261.281 488.789C265.229 487.701 270.174 486.304 272.271 485.685C274.368 485.066 276.992 484.31 278.102 484.007C279.212 483.703 281.837 482.971 283.934 482.381C286.031 481.79 289.316 480.885 291.235 480.369C293.154 479.853 294.877 479.335 295.065 479.216C295.253 479.098 298.931 478.035 303.239 476.853C307.547 475.671 313.191 474.121 315.781 473.407C318.372 472.694 321.803 471.644 323.407 471.074L326.322 470.039L326.844 465.248C327.131 462.614 327.492 458.405 327.647 455.896C327.803 453.386 328.114 449.793 328.341 447.911C328.567 446.029 328.97 441.307 329.237 437.418C329.504 433.528 329.922 428.806 330.166 426.924C330.41 425.042 330.685 422.167 330.778 420.536C331.199 413.123 331.982 403.145 332.37 400.233C332.604 398.477 332.913 394.986 333.055 392.477C333.198 389.968 333.507 386.477 333.742 384.721C333.977 382.964 334.378 378.252 334.634 374.25C334.889 370.247 335.283 365.628 335.509 363.984C335.736 362.341 336.04 358.532 336.187 355.521C336.333 352.509 336.641 348.916 336.871 347.536C337.1 346.156 337.507 341.537 337.775 337.271C338.042 333.005 338.445 328.077 338.67 326.321C338.895 324.564 339.187 321.382 339.319 319.249C339.696 313.154 340.929 299.04 341.11 298.741C341.201 298.592 341.406 295.909 341.566 292.777C341.726 289.645 342.045 285.851 342.275 284.346C342.505 282.84 342.897 278.22 343.147 274.08C343.397 269.939 343.794 265.115 344.03 263.358C344.266 261.602 344.577 258.111 344.722 255.602C344.866 253.092 345.169 249.499 345.396 247.617C345.622 245.735 346.021 240.911 346.284 236.896C346.546 232.881 346.946 228.364 347.173 226.858C347.4 225.352 347.698 221.862 347.834 219.102C347.971 216.341 348.276 212.235 348.512 209.977C348.748 207.718 349.258 202.072 349.647 197.43C350.034 192.788 350.548 187.039 350.788 184.655C351.028 182.271 351.426 177.138 351.674 173.249C351.921 169.359 352.317 164.945 352.554 163.439C352.791 161.934 353.102 158.238 353.246 155.227C353.389 152.215 353.692 148.623 353.918 147.242C354.144 145.862 354.546 141.243 354.81 136.977C355.075 132.711 355.474 127.989 355.698 126.483C355.922 124.977 356.224 121.59 356.369 118.955C356.514 116.32 356.818 112.522 357.044 110.514C357.27 108.507 357.577 105.376 357.728 103.556L358 100.249H178.998C36.0933 100.249 -0.00313971 100.364 2.04824e-07 100.819ZM125.816 277.958C125.783 222.501 125.832 176.973 125.925 176.785C126.018 176.596 134.862 176.442 145.58 176.442H165.066V304.192C165.066 412.249 164.97 431.943 164.449 431.943C164.11 431.943 162.949 431.624 161.87 431.234C159.822 430.494 153.082 428.627 141.292 425.535C137.468 424.531 133.936 423.513 133.442 423.271C132.949 423.03 129.82 422.123 126.489 421.255C117.954 419.033 115.227 418.293 110.117 416.813C107.65 416.098 102.099 414.582 97.7817 413.444C93.4644 412.306 89.3264 411.177 88.5863 410.936C86.9661 410.408 72.5301 406.378 67.504 405.05C65.5304 404.528 62.4017 403.626 60.5514 403.044L57.1872 401.986L57.0706 381.148C57.0064 369.688 57.0544 360.311 57.1773 360.311C57.3002 360.311 59.2703 360.91 61.5552 361.641C63.8402 362.373 67.3246 363.397 69.2983 363.917C77.8675 366.177 88.0552 368.949 92.6233 370.263C98.9184 372.075 105.758 373.952 107.201 374.264C107.818 374.398 110.039 375.028 112.136 375.664C118.703 377.657 125.593 379.389 125.737 379.083C125.814 378.921 125.849 333.415 125.816 277.958ZM295.065 447.911L179.419 480.077L179.195 132.87H322.51L295.065 447.911Z" fill="#E8C931"/>
<path d="M125.925 176.785C125.832 176.973 125.783 222.501 125.816 277.958C125.849 333.415 125.814 378.921 125.737 379.083C125.593 379.389 118.703 377.657 112.136 375.664C110.039 375.028 107.818 374.398 107.201 374.264C105.758 373.952 98.9184 372.075 92.6233 370.263C88.0552 368.949 77.8675 366.177 69.2983 363.917C67.3246 363.397 63.8402 362.373 61.5552 361.641C59.2703 360.91 57.3002 360.311 57.1773 360.311C57.0544 360.311 57.0064 369.688 57.0706 381.148L57.1872 401.986L60.5514 403.044C62.4017 403.626 65.5304 404.528 67.504 405.05C72.5301 406.378 86.9661 410.408 88.5863 410.936C89.3264 411.177 93.4644 412.306 97.7817 413.444C102.099 414.582 107.65 416.098 110.117 416.813C115.227 418.293 117.954 419.033 126.489 421.255C129.82 422.123 132.949 423.03 133.442 423.271C133.936 423.513 137.468 424.531 141.292 425.535C153.082 428.627 159.822 430.494 161.87 431.234C162.949 431.624 164.11 431.943 164.449 431.943C164.97 431.943 165.066 412.249 165.066 304.192V176.442H145.58C134.862 176.442 126.018 176.596 125.925 176.785Z" fill="white"/>
<path d="M192.755 181.575C192.621 184.398 192.547 219.455 192.59 259.48L192.669 332.252L193.782 332.117C194.394 332.043 196.409 331.688 198.259 331.329C200.109 330.97 203.44 330.457 205.66 330.189C209.596 329.715 217.97 328.383 222.93 327.442C224.286 327.184 228.727 326.467 232.798 325.847C236.869 325.227 242.419 324.333 245.133 323.86C247.847 323.387 251.552 322.852 253.366 322.67C256.45 322.362 256.648 322.396 256.415 323.19C256.279 323.657 256.063 325.915 255.936 328.207C255.81 330.499 255.403 334.503 255.032 337.104C254.661 339.705 254.138 344.502 253.87 347.764C253.602 351.027 253.199 354.825 252.976 356.205C252.752 357.585 252.354 361.281 252.092 364.418C251.829 367.554 251.498 370.973 251.357 372.015L251.1 373.91L245.874 375.328C242.999 376.108 238.427 377.387 235.714 378.17C230.348 379.719 220.265 382.504 213.51 384.304C211.166 384.928 207.566 385.969 205.51 386.615C203.454 387.262 199.732 388.332 197.239 388.993L192.708 390.196L192.68 410.803C192.664 422.137 192.765 431.526 192.904 431.667C193.205 431.972 200.962 430.014 209.946 427.363C213.509 426.312 219.043 424.751 222.243 423.894C225.442 423.038 229.076 422.015 230.317 421.62C231.558 421.225 234.289 420.437 236.386 419.868C245.951 417.272 254.643 414.84 260.833 413.027C269.52 410.482 276.589 408.509 280.732 407.473C282.548 407.018 284.296 406.435 284.616 406.177C284.974 405.889 285.3 404.128 285.463 401.602C285.609 399.343 286.029 394.519 286.396 390.88C286.762 387.241 287.274 381.801 287.533 378.789C288.073 372.513 288.65 366.182 289.278 359.627C289.519 357.118 289.936 352.601 290.206 349.589C290.476 346.578 290.777 343.498 290.873 342.746C290.97 341.993 291.176 339.324 291.331 336.814C291.486 334.305 291.791 330.917 292.009 329.286C292.227 327.655 292.624 323.344 292.889 319.705C293.155 316.066 293.573 311.652 293.818 309.896C294.205 307.122 294.698 301.363 295.419 291.189C295.526 289.684 295.91 285.798 296.273 282.553C296.635 279.31 296.861 276.583 296.774 276.495C296.687 276.407 294.88 276.643 292.758 277.019C290.636 277.396 287.732 277.812 286.304 277.944C284.877 278.076 280.782 278.684 277.205 279.294C273.628 279.904 269.692 280.527 268.458 280.677C267.225 280.827 263.591 281.365 260.384 281.872C254.955 282.731 253.179 283.023 246.703 284.12C245.346 284.35 243.051 284.664 241.602 284.818C240.153 284.972 237.378 285.356 235.434 285.671L231.901 286.242V251.484V216.726L239.863 216.483C244.242 216.35 257.413 216.299 269.131 216.371C280.85 216.442 292.888 216.392 295.883 216.259L301.328 216.018L301.559 213.454C301.687 212.043 302.116 206.988 302.514 202.221C302.911 197.453 303.422 192.115 303.648 190.358C303.874 188.601 304.201 184.752 304.374 181.803L304.689 176.442H248.844H192.998L192.755 181.575Z" fill="white"/>
<path d="M149.107 0.2919C149.003 0.396381 148.917 11.6343 148.917 25.2652V50.0487L134.239 50.1687L119.561 50.2892L119.549 59.4142L119.537 68.5392L143.423 68.6574L167.308 68.7755L167.373 66.148C167.546 59.1938 167.618 1.37458 167.455 0.706632C167.288 0.0204312 166.353 -0.0493751 158.283 0.0222562C153.34 0.0656 149.211 0.187419 149.107 0.2919Z" fill="white"/>
<path d="M177.737 0.241712L176.728 0.393188V21.5773V42.761H199.095H221.462L221.747 44.878C221.904 46.0419 222.032 47.6844 222.032 48.528V50.0611H199.38H176.728V59.4142V68.7673H208.29H239.852L240.111 64.547C240.253 62.2256 240.307 52.6275 240.23 43.2173L240.09 26.1079L217.492 26.0933L194.895 26.0792V22.4597V18.8403L217.323 18.7728C229.658 18.7358 239.851 18.6756 239.975 18.6395C240.098 18.603 240.199 14.4174 240.199 9.33752V0.101644L209.473 0.0961682C192.573 0.0929744 178.293 0.158675 177.737 0.241712Z" fill="white"/>
</svg>
