<svg width="512" height="330" viewBox="0 0 512 330" fill="none" xmlns="http://www.w3.org/2000/svg">
<path fill-rule="evenodd" clip-rule="evenodd" d="M0 329.622V272.656V215.689H11.3386H22.6772V263.661V311.633H40.116C56.1035 311.633 57.6844 312.25 59.0904 319.056C59.9359 323.143 59.8614 327.191 58.9284 328.051C57.9954 328.915 44.3567 329.622 28.6154 329.622H0ZM490.8 328.123L489.919 271.906L489.038 215.689H500.519H512L511.119 271.906L510.238 328.123H500.519H490.8ZM66.2078 308.272C54.5031 287.32 67.8956 258.294 92.2056 251.932C103.998 248.849 116.175 250.807 123.915 257.032C129.014 261.133 129.584 261.094 129.584 256.63C129.584 253.116 132.419 251.668 139.303 251.668H149.022V290.645V329.622H139.572C134.376 329.622 129.568 328.078 128.891 326.195C127.964 323.623 125.927 323.623 120.734 326.195C103.039 334.959 76.189 326.132 66.2078 308.272ZM217.076 291.245C217.041 270.731 228.794 255.365 247.966 250.855C258.297 248.427 258.896 248.484 270.611 253.014C277.262 255.587 281.846 256.12 281.846 254.324C281.846 252.654 286.585 251.71 292.374 252.229L302.903 253.167V290.645V328.123L292.374 329.062C286.585 329.58 281.846 328.6 281.846 326.888C281.846 324.783 279.15 324.723 273.536 326.699C244.431 336.938 217.122 319.791 217.076 291.245ZM397.723 290.183C397.723 272.431 409.476 256.195 425.315 252.07C436.284 249.212 447.606 250.22 458.43 255.017C468.33 259.406 479.461 276.376 479.461 287.083V296.642H448.685C416.386 296.642 412.777 298.417 423.27 309.147C430.346 316.385 447.312 316.175 457.549 308.721C465.356 303.037 465.871 303.019 470.944 308.209C478.091 315.515 477.829 316.22 465.311 323.38C444.746 335.145 411.699 328.906 401.542 311.345C399.443 307.711 397.723 298.189 397.723 290.183ZM163.6 328.123L162.693 289.895L161.786 251.668H187.8H213.814V260.498C213.814 268.905 213.075 269.372 198.426 270.242L183.038 271.156L182.108 300.578L181.178 330L172.389 329.062L163.6 328.123ZM326.746 292.144C318.136 272.356 311.07 255.068 311.047 253.728C311.021 252.384 315.742 251.71 321.531 252.229C331.648 253.131 332.497 254.261 343.233 281.177L354.406 309.186L364.29 284.175C376.824 252.453 377.43 251.668 389.29 251.668C397.448 251.668 398.747 252.582 396.771 256.915C395.455 259.802 388.341 277.003 380.961 295.142L367.546 328.123H354.976H342.403L326.746 292.144ZM84.3561 282.796C86.3355 277.243 90.3979 271.384 93.3816 269.771C106.411 262.737 123.986 269.549 127.65 283.053C130.844 294.834 122.234 310.514 111.53 312.409C91.4961 315.953 77.838 301.07 84.3561 282.796ZM259.168 312.631C237.473 312.631 228.917 285.185 246.469 271.906C256.023 264.68 264.51 265.334 273.892 274.02C289.517 288.477 280.307 312.631 259.168 312.631ZM439.362 281.65C417.254 281.65 414.096 279.611 423.17 271.21C430.76 264.186 449.887 266.338 456 274.904L460.814 281.65H439.362Z" fill="white"/>
<path fill-rule="evenodd" clip-rule="evenodd" d="M161.98 14.5457L137.683 28.9043L136.818 102.484L135.953 176.064L184.236 201.873C210.791 216.067 233.776 227.628 235.315 227.562C236.854 227.496 258.52 216.325 283.465 202.737L328.82 178.034L329.756 153.658L330.692 129.286L353.363 116.819L376.031 104.355L375.104 76.9062L374.174 49.4543L350.263 36.9006L326.351 24.344L314.627 30.4124C308.18 33.7465 296.709 39.8239 289.135 43.9165L275.366 51.3552L275.302 75.8059L275.24 100.257L257.484 109.86L239.731 119.46V73.5362V27.6091L213.888 13.7122C199.676 6.06969 187.648 -0.100695 187.162 0.00124517C186.676 0.103185 175.344 6.64835 161.98 14.5457ZM155.501 29.3181C155.501 28.2057 163.017 23.2766 172.204 18.3685L188.911 9.44272L205.41 18.6473C214.488 23.7114 222.425 28.2027 223.053 28.6315C224.916 29.9027 193.093 47.6673 188.84 47.7303C183.964 47.8022 155.501 32.0795 155.501 29.3181ZM291.568 53.5379C291.564 52.5784 298.487 48.228 306.952 43.8656C315.418 39.5061 323.98 35.9082 325.982 35.8662C330.219 35.7823 358.815 50.1889 361.047 53.5349C361.88 54.7792 354.053 59.5644 343.654 64.1637L324.748 72.5288L308.158 63.9058C299.035 59.1626 291.571 54.4973 291.568 53.5379ZM145.782 172.451V105.623C145.782 68.8649 146.877 38.8045 148.212 38.8195C149.547 38.8375 158.297 42.9121 167.65 47.8772L184.657 56.9019L184.68 105.563L184.7 154.225L207.357 165.645L230.012 177.063V196.377C230.012 206.997 229.212 215.689 228.237 215.689C227.261 215.689 218.877 211.222 209.609 205.765C200.34 200.305 182.189 190.576 169.269 184.144L145.782 172.451ZM194.402 55.2829L209.777 47.1246C218.233 42.6363 226.247 38.9244 227.582 38.8795C228.917 38.8315 229.983 58.0173 229.947 81.5175L229.886 124.242L212.129 133.846L194.376 143.446L194.389 99.3661L194.402 55.2829ZM285.328 100.257L285.205 81.2687C285.14 70.8228 286.193 62.7275 287.547 63.2792C288.901 63.8279 296.919 67.5517 305.365 71.5543L320.721 78.8341V99.0332V119.232L303.023 109.746L285.328 100.257ZM330.44 80.8879L347.448 71.8632C356.8 66.8981 365.618 62.8235 367.041 62.8055C368.46 62.7905 369.189 70.9997 368.66 81.0468L367.695 99.3151L349.067 109.452L330.44 119.586V100.239V80.8879ZM208.313 145.23C213.895 141.932 231.632 132.308 247.726 123.841C263.817 115.374 278.522 108.289 280.401 108.1C285.293 107.602 315.362 125.703 313.111 127.786C312.078 128.743 294.091 138.595 273.141 149.677L235.046 169.828L216.606 160.527L198.163 151.227L208.313 145.23ZM239.731 177.185L279.416 156.039C301.244 144.409 319.467 134.856 319.911 134.814C320.355 134.772 320.721 143.353 320.721 153.886V173.039L292.374 187.991C276.785 196.212 258.562 205.942 251.879 209.611L239.731 216.283V196.734V177.185Z" fill="#FF0000"/>
</svg>
