<svg width="512" height="418" viewBox="0 0 512 418" fill="none" xmlns="http://www.w3.org/2000/svg">
<mask id="path-1-inside-1_4_7" fill="white">
<path d="M257.952 382.257L262.537 388.487L261.201 390.186L268.079 381.467C265.009 377.601 261.789 373.548 258.471 369.371L250.165 375.691C250.626 375.373 250.954 375.232 251.128 375.289C252.36 375.695 255.43 378.831 257.952 382.257Z"/>
<path d="M287.778 220.733C297.358 233.818 304.853 244.822 304.434 245.189C303.767 245.772 302.767 246.43 301.503 247.134C307.739 243.73 311.431 241.681 316.201 238.683C315.566 239.034 315.062 239.222 314.711 239.222C313.382 239.222 289.181 203.814 260.929 160.538C257.656 155.524 254.555 150.765 251.618 146.257C251.611 146.246 251.604 146.235 251.597 146.225C251.582 146.201 251.567 146.178 251.551 146.154C251.546 146.146 251.541 146.138 251.535 146.129C251.533 146.125 251.53 146.121 251.528 146.117C222.091 100.931 209.126 81.0291 203.315 82.9354C198.74 84.436 198.599 99.4494 198.346 126.281C198.314 129.712 198.28 133.336 198.235 137.149L197.594 190.904H203.296C210.834 190.904 211.975 184.622 211.975 143.117V110.429L241.17 153.686C257.225 177.478 278.201 207.648 287.778 220.733Z"/>
<path d="M276.291 115.247C276.303 151.002 276.31 151.053 283.46 161.913L290.617 172.784L289.998 126.882L289.381 80.9793L282.831 80.2159L276.282 79.45L276.291 115.247Z"/>
<path d="M0 364.717V418H9.46741H18.9348L19.5898 378.84L20.2448 339.683L51.0383 378.84L81.8294 418H138.567H195.303V409.544V401.089H159.577H123.85V387.801V374.513H152.574H181.3L180.56 365.454L179.821 356.394L151.836 355.713L123.85 355.034V343.029V331.027H159.719H195.591L194.85 321.967L194.112 312.908L149.502 312.25L104.889 311.593L104.249 363.381L103.606 415.169L63.0827 364.038L22.5598 312.908L11.2799 312.171L0 311.434V364.717Z"/>
<path d="M231.5 396.276L214.106 418L226.737 417.981C239.334 417.961 239.393 417.923 250.95 403.224L261.201 390.186L262.537 388.487L257.952 382.257C255.43 378.831 252.36 375.695 251.128 375.289C250.954 375.232 250.626 375.373 250.165 375.691C247.378 377.616 239.708 386.024 231.5 396.276Z"/>
<path d="M216.738 314.277C216.738 315.695 234.606 339.343 256.447 366.824L258.471 369.371C261.789 373.548 265.009 377.601 268.079 381.467C284.365 401.974 296.439 417.2 296.672 417.531C296.958 417.937 302.605 417.937 309.221 417.531L321.254 416.792L301.149 391.795C289.684 377.536 281.75 365.601 282.681 364.011C283.579 362.48 292.742 350.627 303.041 337.671L321.768 314.115H309.116H296.465L282.408 332.319C274.676 342.331 267.624 349.671 266.736 348.627C265.847 347.583 258.936 338.85 251.378 329.215C238.069 312.25 237.309 311.7 227.187 311.7C221.371 311.7 216.738 312.842 216.738 314.277Z"/>
<path d="M340.589 321.31V331.027H358.452H376.315V374.513V418H385.842H395.369V374.513V331.027H413.375H431.383L430.642 321.967L429.904 312.908L385.246 312.25L340.589 311.593V321.31Z"/>
<path d="M463.646 373.709C462.772 374.593 462.057 382.684 462.057 391.686C462.057 409.547 459.511 413.538 452.323 406.94C448.798 403.703 446.981 403.335 444.909 405.437C440.888 409.515 449.256 418 457.294 418C468.183 418 471.584 411.484 471.584 390.63C471.584 376.797 470.779 372.098 468.409 372.098C466.661 372.098 464.518 372.822 463.646 373.709Z"/>
<path d="M483.493 376.929C474.233 386.322 479.48 395.747 496.154 399.68C500.789 400.772 502.623 402.541 502.085 405.403C501.065 410.83 492.251 412.011 488.352 407.244C484.586 402.644 478.73 402.345 478.73 406.754C478.73 417.019 500.544 422.085 508.132 413.581C516.544 404.152 510.847 394.119 494.806 390.118C487.73 388.354 486.049 383.138 491.829 380.887C496.069 379.237 502.547 381.382 502.547 384.436C502.547 385.622 504.69 386.593 507.31 386.593C513.665 386.593 513.367 380.539 506.779 375.859C499.486 370.677 489.193 371.148 483.493 376.929Z"/>
<path fill-rule="evenodd" clip-rule="evenodd" d="M132.741 64.6501C148.204 37.6715 181.436 12.2681 212.27 3.85832C252.374 -7.08338 300.58 5.78139 331.474 35.6711C359.878 63.1522 371.451 90.6091 371.451 130.506C371.451 159.098 366.059 179.131 352.666 200.302C346.008 210.824 325.72 232.137 317.578 237.809C317.069 238.163 316.608 238.457 316.201 238.683C315.566 239.034 315.062 239.222 314.711 239.222C313.382 239.222 289.181 203.814 260.929 160.538C257.656 155.524 254.555 150.765 251.618 146.257L251.597 146.225L251.551 146.154L251.535 146.129L251.528 146.117C222.091 100.931 209.126 81.0291 203.315 82.9354C198.74 84.436 198.599 99.4494 198.346 126.281C198.314 129.712 198.28 133.336 198.235 137.149L197.594 190.904H203.296C210.834 190.904 211.975 184.622 211.975 143.117V110.429L241.17 153.686C257.225 177.478 278.201 207.648 287.778 220.733C297.358 233.818 304.853 244.822 304.434 245.189C303.767 245.772 302.767 246.43 301.503 247.134C301.31 247.242 301.111 247.35 300.906 247.46C294.73 250.764 283.227 254.962 273.424 257.305C228.706 268 183.377 254.094 151.617 219.943C142.935 210.61 133.232 197.765 130.052 191.399C110.103 151.469 111.146 102.322 132.741 64.6501ZM283.46 161.913C276.31 151.053 276.303 151.002 276.291 115.247L276.282 79.45L282.831 80.2159L289.381 80.9793L289.998 126.882L290.617 172.784L283.46 161.913Z"/>
<path d="M429.166 412.564C429.609 414.891 431.547 416.792 433.476 416.792C435.406 416.792 437.344 414.891 437.787 412.564C438.35 409.597 437.063 408.336 433.476 408.336C429.89 408.336 428.603 409.597 429.166 412.564Z"/>
</mask>
<path d="M287.778 220.733C297.358 233.818 304.853 244.822 304.434 245.189C303.767 245.772 302.767 246.43 301.503 247.134C307.739 243.73 311.431 241.681 316.201 238.683C315.566 239.034 315.062 239.222 314.711 239.222C313.382 239.222 289.181 203.814 260.929 160.538C257.656 155.524 254.555 150.765 251.618 146.257C251.611 146.246 251.604 146.235 251.597 146.225C251.582 146.201 251.567 146.178 251.551 146.154C251.546 146.146 251.541 146.138 251.535 146.129C251.533 146.125 251.53 146.121 251.528 146.117C222.091 100.931 209.126 81.0291 203.315 82.9354C198.74 84.436 198.599 99.4494 198.346 126.281C198.314 129.712 198.28 133.336 198.235 137.149L197.594 190.904H203.296C210.834 190.904 211.975 184.622 211.975 143.117V110.429L241.17 153.686C257.225 177.478 278.201 207.648 287.778 220.733Z" fill="white"/>
<path d="M276.291 115.247C276.303 151.002 276.31 151.053 283.46 161.913L290.617 172.784L289.998 126.882L289.381 80.9793L282.831 80.2159L276.282 79.45L276.291 115.247Z" fill="white"/>
<path d="M0 364.717V418H9.46741H18.9348L19.5898 378.84L20.2448 339.683L51.0383 378.84L81.8294 418H138.567H195.303V409.544V401.089H159.577H123.85V387.801V374.513H152.574H181.3L180.56 365.454L179.821 356.394L151.836 355.713L123.85 355.034V343.029V331.027H159.719H195.591L194.85 321.967L194.112 312.908L149.502 312.25L104.889 311.593L104.249 363.381L103.606 415.169L63.0827 364.038L22.5598 312.908L11.2799 312.171L0 311.434V364.717Z" fill="white"/>
<path d="M231.5 396.276L214.106 418L226.737 417.981C239.334 417.961 239.393 417.923 250.95 403.224L261.201 390.186L262.537 388.487L257.952 382.257C255.43 378.831 252.36 375.695 251.128 375.289C250.954 375.232 250.626 375.373 250.165 375.691C247.378 377.616 239.708 386.024 231.5 396.276Z" fill="white"/>
<path d="M216.738 314.277C216.738 315.695 234.606 339.343 256.447 366.824L258.471 369.371C261.789 373.548 265.009 377.601 268.079 381.467C284.365 401.974 296.439 417.2 296.672 417.531C296.958 417.937 302.605 417.937 309.221 417.531L321.254 416.792L301.149 391.795C289.684 377.536 281.75 365.601 282.681 364.011C283.579 362.48 292.742 350.627 303.041 337.671L321.768 314.115H309.116H296.465L282.408 332.319C274.676 342.331 267.624 349.671 266.736 348.627C265.847 347.583 258.936 338.85 251.378 329.215C238.069 312.25 237.309 311.7 227.187 311.7C221.371 311.7 216.738 312.842 216.738 314.277Z" fill="white"/>
<path d="M340.589 321.31V331.027H358.452H376.315V374.513V418H385.842H395.369V374.513V331.027H413.375H431.383L430.642 321.967L429.904 312.908L385.246 312.25L340.589 311.593V321.31Z" fill="white"/>
<path d="M463.646 373.709C462.772 374.593 462.057 382.684 462.057 391.686C462.057 409.547 459.511 413.538 452.323 406.94C448.798 403.703 446.981 403.335 444.909 405.437C440.888 409.515 449.256 418 457.294 418C468.183 418 471.584 411.484 471.584 390.63C471.584 376.797 470.779 372.098 468.409 372.098C466.661 372.098 464.518 372.822 463.646 373.709Z" fill="white"/>
<path d="M483.493 376.929C474.233 386.322 479.48 395.747 496.154 399.68C500.789 400.772 502.623 402.541 502.085 405.403C501.065 410.83 492.251 412.011 488.352 407.244C484.586 402.644 478.73 402.345 478.73 406.754C478.73 417.019 500.544 422.085 508.132 413.581C516.544 404.152 510.847 394.119 494.806 390.118C487.73 388.354 486.049 383.138 491.829 380.887C496.069 379.237 502.547 381.382 502.547 384.436C502.547 385.622 504.69 386.593 507.31 386.593C513.665 386.593 513.367 380.539 506.779 375.859C499.486 370.677 489.193 371.148 483.493 376.929Z" fill="white"/>
<path fill-rule="evenodd" clip-rule="evenodd" d="M132.741 64.6501C148.204 37.6715 181.436 12.2681 212.27 3.85832C252.374 -7.08338 300.58 5.78139 331.474 35.6711C359.878 63.1522 371.451 90.6091 371.451 130.506C371.451 159.098 366.059 179.131 352.666 200.302C346.008 210.824 325.72 232.137 317.578 237.809C317.069 238.163 316.608 238.457 316.201 238.683C315.566 239.034 315.062 239.222 314.711 239.222C313.382 239.222 289.181 203.814 260.929 160.538C257.656 155.524 254.555 150.765 251.618 146.257L251.597 146.225L251.551 146.154L251.535 146.129L251.528 146.117C222.091 100.931 209.126 81.0291 203.315 82.9354C198.74 84.436 198.599 99.4494 198.346 126.281C198.314 129.712 198.28 133.336 198.235 137.149L197.594 190.904H203.296C210.834 190.904 211.975 184.622 211.975 143.117V110.429L241.17 153.686C257.225 177.478 278.201 207.648 287.778 220.733C297.358 233.818 304.853 244.822 304.434 245.189C303.767 245.772 302.767 246.43 301.503 247.134C301.31 247.242 301.111 247.35 300.906 247.46C294.73 250.764 283.227 254.962 273.424 257.305C228.706 268 183.377 254.094 151.617 219.943C142.935 210.61 133.232 197.765 130.052 191.399C110.103 151.469 111.146 102.322 132.741 64.6501ZM283.46 161.913C276.31 151.053 276.303 151.002 276.291 115.247L276.282 79.45L282.831 80.2159L289.381 80.9793L289.998 126.882L290.617 172.784L283.46 161.913Z" fill="black"/>
<path d="M429.166 412.564C429.609 414.891 431.547 416.792 433.476 416.792C435.406 416.792 437.344 414.891 437.787 412.564C438.35 409.597 437.063 408.336 433.476 408.336C429.89 408.336 428.603 409.597 429.166 412.564Z" fill="white"/>
<path d="M304.434 245.189L304.763 245.566L304.763 245.565L304.434 245.189ZM287.778 220.733L287.375 221.028L287.375 221.028L287.778 220.733ZM241.17 153.686L241.585 153.407L241.585 153.407L241.17 153.686ZM211.975 110.429L212.389 110.15L211.475 108.795V110.429H211.975ZM197.594 190.904L197.094 190.898L197.088 191.404H197.594V190.904ZM198.235 137.149L197.735 137.143V137.143L198.235 137.149ZM260.929 160.538L261.348 160.265V160.265L260.929 160.538ZM276.291 115.247L275.791 115.247V115.247L276.291 115.247ZM283.46 161.913L283.878 161.638L283.878 161.638L283.46 161.913ZM290.617 172.784L290.2 173.059L291.14 174.488L291.117 172.777L290.617 172.784ZM289.998 126.882L289.498 126.888V126.888L289.998 126.882ZM289.381 80.9793L289.881 80.9726L289.875 80.5335L289.439 80.4827L289.381 80.9793ZM282.831 80.2159L282.773 80.7125L282.774 80.7125L282.831 80.2159ZM276.282 79.45L276.34 78.9534L275.782 78.8881L275.782 79.4501L276.282 79.45ZM262.537 388.487L262.93 388.796L263.165 388.497L262.939 388.191L262.537 388.487ZM257.952 382.257L258.355 381.96L258.354 381.96L257.952 382.257ZM251.128 375.289L251.285 374.814L251.284 374.814L251.128 375.289ZM258.471 369.371L258.862 369.06V369.06L258.471 369.371ZM301.503 247.134L301.743 247.573L301.747 247.571L301.503 247.134ZM316.201 238.683L316.443 239.12L316.455 239.113L316.467 239.106L316.201 238.683ZM203.315 82.9354L203.471 83.4105V83.4105L203.315 82.9354ZM198.346 126.281L197.846 126.276V126.276L198.346 126.281ZM304.434 245.189L304.763 245.565C304.964 245.39 304.953 245.152 304.949 245.09C304.943 244.997 304.918 244.909 304.896 244.842C304.85 244.701 304.772 244.531 304.677 244.343C304.484 243.963 304.18 243.438 303.781 242.791C302.982 241.493 301.78 239.667 300.269 237.449C297.246 233.01 292.974 226.983 288.182 220.438L287.778 220.733L287.375 221.028C292.162 227.568 296.428 233.585 299.442 238.012C300.95 240.226 302.142 242.037 302.93 243.315C303.325 243.956 303.612 244.453 303.786 244.796C303.874 244.97 303.924 245.087 303.946 245.154C303.958 245.191 303.953 245.187 303.951 245.158C303.95 245.143 303.949 245.1 303.963 245.044C303.977 244.985 304.014 244.892 304.104 244.813L304.434 245.189ZM287.778 220.733L288.182 220.438C278.61 207.361 257.639 177.197 241.585 153.407L241.17 153.686L240.756 153.966C256.812 177.76 277.792 207.936 287.375 221.028L287.778 220.733ZM241.17 153.686L241.585 153.407L212.389 110.15L211.975 110.429L211.56 110.709L240.756 153.966L241.17 153.686ZM211.975 110.429H211.475V143.117H211.975H212.475V110.429H211.975ZM211.975 143.117H211.475C211.475 163.887 211.188 175.781 209.97 182.485C209.361 185.841 208.532 187.802 207.468 188.931C206.433 190.028 205.109 190.404 203.296 190.404V190.904V191.404C205.252 191.404 206.897 190.994 208.196 189.617C209.466 188.27 210.336 186.067 210.954 182.664C212.191 175.851 212.475 163.852 212.475 143.117H211.975ZM203.296 190.904V190.404H197.594V190.904V191.404H203.296V190.904ZM197.594 190.904L198.094 190.91L198.734 137.155L198.235 137.149L197.735 137.143L197.094 190.898L197.594 190.904ZM260.929 160.538L260.51 160.811C274.638 182.451 287.753 202.126 297.503 216.391C302.378 223.523 306.414 229.306 309.315 233.307C310.765 235.307 311.935 236.867 312.787 237.929C313.212 238.459 313.564 238.873 313.836 239.159C313.971 239.3 314.097 239.421 314.208 239.51C314.264 239.554 314.327 239.6 314.395 239.636C314.452 239.667 314.566 239.722 314.711 239.722V239.222V238.722C314.768 238.722 314.81 238.733 314.831 238.74C314.853 238.748 314.867 238.755 314.869 238.756C314.874 238.758 314.862 238.752 314.832 238.728C314.772 238.681 314.683 238.597 314.56 238.469C314.318 238.215 313.987 237.826 313.567 237.303C312.731 236.26 311.572 234.716 310.125 232.72C307.232 228.73 303.202 222.956 298.329 215.826C288.584 201.569 275.472 181.901 261.348 160.265L260.929 160.538ZM276.291 115.247L275.791 115.247C275.797 133.101 275.8 142.104 276.705 147.992C277.62 153.947 279.464 156.753 283.043 162.188L283.46 161.913L283.878 161.638C280.306 156.213 278.572 153.564 277.693 147.84C276.804 142.048 276.797 133.148 276.791 115.247L276.291 115.247ZM283.46 161.913L283.043 162.188L290.2 173.059L290.617 172.784L291.035 172.509L283.878 161.638L283.46 161.913ZM290.617 172.784L291.117 172.777L290.498 126.875L289.998 126.882L289.498 126.888L290.117 172.791L290.617 172.784ZM289.998 126.882L290.498 126.875L289.881 80.9726L289.381 80.9793L288.881 80.986L289.498 126.888L289.998 126.882ZM289.381 80.9793L289.439 80.4827L282.889 79.7192L282.831 80.2159L282.774 80.7125L289.323 81.4759L289.381 80.9793ZM282.831 80.2159L282.89 79.7192L276.34 78.9534L276.282 79.45L276.224 79.9466L282.773 80.7125L282.831 80.2159ZM276.282 79.45L275.782 79.4501L275.791 115.247L276.291 115.247L276.791 115.247L276.782 79.4499L276.282 79.45ZM262.537 388.487L262.939 388.191L258.355 381.96L257.952 382.257L257.549 382.553L262.134 388.783L262.537 388.487ZM257.952 382.257L258.354 381.96C257.081 380.23 255.667 378.571 254.413 377.29C253.786 376.65 253.194 376.099 252.674 375.678C252.168 375.269 251.685 374.946 251.285 374.814L251.128 375.289L250.972 375.764C251.187 375.835 251.55 376.056 252.045 376.456C252.525 376.845 253.089 377.367 253.699 377.99C254.918 379.235 256.301 380.858 257.549 382.553L257.952 382.257ZM251.128 375.289L251.284 374.814C251.014 374.725 250.741 374.812 250.56 374.888C250.354 374.975 250.125 375.112 249.881 375.28L250.165 375.691L250.449 376.102C250.667 375.952 250.832 375.859 250.948 375.81C251.006 375.786 251.038 375.778 251.049 375.776C251.062 375.774 251.029 375.783 250.972 375.764L251.128 375.289ZM256.447 366.824L256.055 367.135C256.734 367.989 257.409 368.838 258.079 369.682L258.471 369.371L258.862 369.06C258.192 368.216 257.517 367.367 256.838 366.513L256.447 366.824ZM261.201 390.186L261.594 390.496L262.93 388.796L262.537 388.487L262.144 388.178L260.807 389.877L261.201 390.186ZM258.471 369.371L258.079 369.682C261.398 373.859 264.618 377.912 267.688 381.778L268.079 381.467L268.471 381.156C265.401 377.29 262.181 373.237 258.862 369.06L258.471 369.371ZM304.434 245.189L304.105 244.813C303.477 245.362 302.512 245.999 301.26 246.697L301.503 247.134L301.747 247.571C303.021 246.86 304.058 246.183 304.763 245.566L304.434 245.189ZM316.201 238.683L315.958 238.245C315.329 238.594 314.923 238.722 314.711 238.722V239.222V239.722C315.2 239.722 315.803 239.474 316.443 239.12L316.201 238.683ZM300.906 247.46L301.145 247.899C301.347 247.789 301.546 247.68 301.743 247.573L301.503 247.134L301.264 246.695C301.067 246.802 300.868 246.911 300.666 247.021L300.906 247.46ZM316.201 238.683L316.467 239.106C316.916 238.823 317.376 238.532 317.847 238.23L317.578 237.809L317.309 237.388C316.839 237.688 316.382 237.978 315.934 238.259L316.201 238.683ZM198.235 137.149L198.734 137.155C198.78 133.341 198.814 129.716 198.846 126.286L198.346 126.281L197.846 126.276C197.814 129.707 197.78 133.33 197.735 137.143L198.235 137.149ZM198.346 126.281L198.846 126.286C198.973 112.861 199.071 102.423 199.708 95.1527C200.027 91.5148 200.477 88.7047 201.12 86.7222C201.772 84.7108 202.571 83.7056 203.471 83.4105L203.315 82.9354L203.159 82.4603C201.771 82.9155 200.838 84.3496 200.169 86.4138C199.49 88.5069 199.032 91.4084 198.712 95.0654C198.071 102.385 197.973 112.87 197.846 126.276L198.346 126.281ZM203.315 82.9354L203.471 83.4105C204.036 83.2248 204.739 83.2856 205.637 83.703C206.538 84.1219 207.592 84.8809 208.821 86.0163C211.276 88.286 214.339 91.9748 218.159 97.1632C225.796 107.534 236.386 123.791 251.109 146.39L251.528 146.117L251.947 145.844C237.232 123.258 226.622 106.97 218.964 96.5703C215.137 91.3732 212.029 87.6197 209.499 85.2819C208.235 84.1135 207.093 83.2773 206.058 82.7962C205.02 82.3136 204.046 82.1694 203.159 82.4603L203.315 82.9354ZM251.618 146.257L251.199 146.53C254.136 151.038 257.237 155.797 260.51 160.811L260.929 160.538L261.348 160.265C258.074 155.251 254.974 150.492 252.037 145.984L251.618 146.257ZM212.27 3.85832L212.533 4.82308L212.533 4.82305L212.27 3.85832ZM132.741 64.6501L133.609 65.1474L133.609 65.1473L132.741 64.6501ZM130.052 191.399L130.947 190.952L130.947 190.952L130.052 191.399ZM151.617 219.943L152.349 219.262L152.349 219.262L151.617 219.943ZM273.424 257.305L273.191 256.333L273.191 256.333L273.424 257.305ZM352.666 200.302L353.512 200.836L353.512 200.836L352.666 200.302ZM331.474 35.6711L330.778 36.3898L330.778 36.3898L331.474 35.6711ZM0 418H-1V419H0V418ZM18.9348 418V419H19.9182L19.9347 418.017L18.9348 418ZM19.5898 378.84L18.5899 378.824V378.824L19.5898 378.84ZM20.2448 339.683L21.0308 339.065L19.292 336.854L19.2449 339.666L20.2448 339.683ZM51.0383 378.84L51.8244 378.222L51.8243 378.222L51.0383 378.84ZM81.8294 418L81.0433 418.618L81.3436 419H81.8294V418ZM195.303 418V419H196.303V418H195.303ZM195.303 401.089H196.303V400.089H195.303V401.089ZM123.85 401.089H122.85V402.089H123.85V401.089ZM123.85 374.513V373.513H122.85V374.513H123.85ZM181.3 374.513V375.513H182.385L182.297 374.432L181.3 374.513ZM180.56 365.454L179.563 365.535L179.563 365.535L180.56 365.454ZM179.821 356.394L180.818 356.313L180.745 355.416L179.846 355.394L179.821 356.394ZM151.836 355.713L151.86 354.713H151.86L151.836 355.713ZM123.85 355.034H122.85V356.01L123.826 356.034L123.85 355.034ZM123.85 331.027V330.027H122.85V331.027H123.85ZM195.591 331.027V332.027H196.676L196.587 330.945L195.591 331.027ZM194.85 321.967L193.853 322.048L193.853 322.049L194.85 321.967ZM194.112 312.908L195.108 312.826L195.035 311.921L194.126 311.908L194.112 312.908ZM149.502 312.25L149.516 311.251V311.251L149.502 312.25ZM104.889 311.593L104.904 310.593L103.902 310.579L103.889 311.581L104.889 311.593ZM104.249 363.381L105.249 363.393V363.393L104.249 363.381ZM103.606 415.169L102.822 415.79L104.571 417.996L104.606 415.181L103.606 415.169ZM63.0827 364.038L63.8665 363.417V363.417L63.0827 364.038ZM22.5598 312.908L23.3435 312.286L23.0679 311.939L22.625 311.91L22.5598 312.908ZM11.2799 312.171L11.2147 313.169H11.2147L11.2799 312.171ZM0 311.434L0.0651876 310.436L-1 310.366V311.434H0ZM256.447 366.824L257.23 366.202L257.229 366.201L256.447 366.824ZM296.672 417.531L297.489 416.956L296.672 417.531ZM309.221 417.531L309.282 418.529L309.282 418.529L309.221 417.531ZM321.254 416.792L321.315 417.79L323.244 417.672L322.033 416.165L321.254 416.792ZM301.149 391.795L300.37 392.421L300.37 392.421L301.149 391.795ZM282.681 364.011L281.819 363.506L281.819 363.506L282.681 364.011ZM303.041 337.671L302.258 337.048L302.258 337.048L303.041 337.671ZM321.768 314.115L322.551 314.738L323.841 313.115H321.768V314.115ZM296.465 314.115V313.115H295.973L295.673 313.504L296.465 314.115ZM282.408 332.319L283.199 332.931V332.931L282.408 332.319ZM251.378 329.215L252.165 328.598L252.165 328.598L251.378 329.215ZM340.589 331.027H339.589V332.027H340.589V331.027ZM376.315 331.027H377.315V330.027H376.315V331.027ZM376.315 418H375.315V419H376.315V418ZM395.369 418V419H396.369V418H395.369ZM395.369 331.027V330.027H394.369V331.027H395.369ZM431.383 331.027V332.027H432.468L432.38 330.945L431.383 331.027ZM430.642 321.967L429.646 322.048L429.646 322.049L430.642 321.967ZM429.904 312.908L430.901 312.826L430.827 311.921L429.919 311.908L429.904 312.908ZM385.246 312.25L385.261 311.251L385.246 312.25ZM340.589 311.593L340.603 310.593L339.589 310.578V311.593H340.589ZM463.646 373.709L464.357 374.412L464.359 374.41L463.646 373.709ZM452.323 406.94L451.647 407.676L451.647 407.677L452.323 406.94ZM444.909 405.437L445.621 406.139V406.139L444.909 405.437ZM483.493 376.929L482.781 376.227V376.227L483.493 376.929ZM496.154 399.68L495.925 400.653L495.925 400.653L496.154 399.68ZM502.085 405.403L501.102 405.219L501.102 405.219L502.085 405.403ZM488.352 407.244L489.126 406.611L489.126 406.611L488.352 407.244ZM508.132 413.581L508.878 414.247L508.878 414.247L508.132 413.581ZM494.806 390.118L495.048 389.148L495.048 389.148L494.806 390.118ZM491.829 380.887L491.466 379.955L491.466 379.955L491.829 380.887ZM506.779 375.859L506.2 376.674L506.2 376.674L506.779 375.859ZM231.5 396.276L232.281 396.901L232.281 396.901L231.5 396.276ZM214.106 418L213.326 417.375L212.022 419.003L214.108 419L214.106 418ZM226.737 417.981L226.738 418.981H226.738L226.737 417.981ZM250.95 403.224L250.163 402.606H250.163L250.95 403.224ZM429.166 412.564L428.183 412.75L428.183 412.751L429.166 412.564ZM437.787 412.564L438.77 412.751L438.77 412.75L437.787 412.564ZM250.165 375.691L250.734 376.514L250.753 376.501L250.771 376.487L250.165 375.691ZM258.471 369.371L259.077 370.167L259.889 369.549L259.254 368.749L258.471 369.371ZM261.201 390.186L260.415 389.567L260.414 389.568L261.201 390.186ZM268.079 381.467L268.862 380.845L268.077 379.856L267.294 380.848L268.079 381.467ZM300.906 247.46L300.434 246.578L300.906 247.46ZM317.578 237.809L317.007 236.989V236.989L317.578 237.809ZM301.503 247.134L301.024 246.256L301.017 246.26L301.503 247.134ZM316.201 238.683L315.716 237.808L315.692 237.821L315.668 237.836L316.201 238.683ZM251.528 146.117L252.365 145.572L250.69 146.663L251.528 146.117ZM251.535 146.129L250.698 146.675V146.675L251.535 146.129ZM251.597 146.225L250.76 146.771V146.771L251.597 146.225ZM251.618 146.257L250.781 146.803L252.456 145.711L251.618 146.257ZM212.27 3.85832L212.007 2.89356C180.925 11.3709 147.472 36.9375 131.874 64.1528L132.741 64.6501L133.609 65.1473C148.936 38.4055 181.947 13.1654 212.533 4.82308L212.27 3.85832ZM132.741 64.6501L131.874 64.1528C110.107 102.124 109.064 151.626 129.158 191.846L130.052 191.399L130.947 190.952C111.142 151.311 112.186 102.519 133.609 65.1474L132.741 64.6501ZM130.052 191.399L129.158 191.846C132.401 198.339 142.181 211.267 150.885 220.624L151.617 219.943L152.349 219.262C143.69 209.953 134.063 197.19 130.947 190.952L130.052 191.399ZM151.617 219.943L150.884 220.624C182.886 255.035 228.582 269.058 273.656 258.278L273.424 257.305L273.191 256.333C228.831 266.942 183.868 253.154 152.349 219.262L151.617 219.943ZM352.666 200.302L353.512 200.836C367.019 179.484 372.451 159.26 372.451 130.506H371.451H370.451C370.451 158.936 365.099 178.778 351.821 199.767L352.666 200.302ZM371.451 130.506H372.451C372.451 110.458 369.543 93.4816 363.036 78.0442C356.528 62.6062 346.444 48.7636 332.169 34.9524L331.474 35.6711L330.778 36.3898C344.908 50.0597 354.813 63.6861 361.193 78.821C367.573 93.9564 370.451 110.657 370.451 130.506H371.451ZM331.474 35.6711L332.169 34.9524C301.032 4.8275 252.465 -8.14485 212.007 2.89358L212.27 3.85832L212.533 4.82305C252.282 -6.02191 300.128 6.73527 330.778 36.3898L331.474 35.6711ZM0 364.717H-1V418H0H1V364.717H0ZM0 418V419H9.46741V418V417H0V418ZM9.46741 418V419H18.9348V418V417H9.46741V418ZM18.9348 418L19.9347 418.017L20.5897 378.857L19.5898 378.84L18.5899 378.824L17.935 417.983L18.9348 418ZM19.5898 378.84L20.5897 378.857L21.2446 339.7L20.2448 339.683L19.2449 339.666L18.5899 378.824L19.5898 378.84ZM20.2448 339.683L19.4587 340.301L50.2522 379.459L51.0383 378.84L51.8243 378.222L21.0308 339.065L20.2448 339.683ZM51.0383 378.84L50.2522 379.458L81.0433 418.618L81.8294 418L82.6155 417.382L51.8244 378.222L51.0383 378.84ZM81.8294 418V419H138.567V418V417H81.8294V418ZM138.567 418V419H195.303V418V417H138.567V418ZM195.303 418H196.303V409.544H195.303H194.303V418H195.303ZM195.303 409.544H196.303V401.089H195.303H194.303V409.544H195.303ZM195.303 401.089V400.089H159.577V401.089V402.089H195.303V401.089ZM159.577 401.089V400.089H123.85V401.089V402.089H159.577V401.089ZM123.85 401.089H124.85V387.801H123.85H122.85V401.089H123.85ZM123.85 387.801H124.85V374.513H123.85H122.85V387.801H123.85ZM123.85 374.513V375.513H152.574V374.513V373.513H123.85V374.513ZM152.574 374.513V375.513H181.3V374.513V373.513H152.574V374.513ZM181.3 374.513L182.297 374.432L181.556 365.372L180.56 365.454L179.563 365.535L180.304 374.595L181.3 374.513ZM180.56 365.454L181.556 365.373L180.818 356.313L179.821 356.394L178.825 356.475L179.563 365.535L180.56 365.454ZM179.821 356.394L179.846 355.394L151.86 354.713L151.836 355.713L151.812 356.712L179.797 357.394L179.821 356.394ZM151.836 355.713L151.86 354.713L123.875 354.034L123.85 355.034L123.826 356.034L151.812 356.712L151.836 355.713ZM123.85 355.034H124.85V343.029H123.85H122.85V355.034H123.85ZM123.85 343.029H124.85V331.027H123.85H122.85V343.029H123.85ZM123.85 331.027V332.027H159.719V331.027V330.027H123.85V331.027ZM159.719 331.027V332.027H195.591V331.027V330.027H159.719V331.027ZM195.591 331.027L196.587 330.945L195.847 321.886L194.85 321.967L193.853 322.049L194.594 331.108L195.591 331.027ZM194.85 321.967L195.847 321.886L195.108 312.826L194.112 312.908L193.115 312.989L193.853 322.048L194.85 321.967ZM194.112 312.908L194.126 311.908L149.516 311.251L149.502 312.25L149.487 313.25L194.097 313.907L194.112 312.908ZM149.502 312.25L149.516 311.251L104.904 310.593L104.889 311.593L104.875 312.593L149.487 313.25L149.502 312.25ZM104.889 311.593L103.889 311.581L103.249 363.369L104.249 363.381L105.249 363.393L105.889 311.606L104.889 311.593ZM104.249 363.381L103.249 363.368L102.606 415.156L103.606 415.169L104.606 415.181L105.249 363.393L104.249 363.381ZM103.606 415.169L104.389 414.547L63.8665 363.417L63.0827 364.038L62.299 364.659L102.822 415.79L103.606 415.169ZM63.0827 364.038L63.8665 363.417L23.3435 312.286L22.5598 312.908L21.7761 313.529L62.299 364.659L63.0827 364.038ZM22.5598 312.908L22.625 311.91L11.3451 311.173L11.2799 312.171L11.2147 313.169L22.4946 313.905L22.5598 312.908ZM11.2799 312.171L11.3451 311.173L0.0651876 310.436L0 311.434L-0.0651876 312.432L11.2147 313.169L11.2799 312.171ZM0 311.434H-1V364.717H0H1V311.434H0ZM216.738 314.277H215.738C215.738 314.524 215.82 314.741 215.86 314.843C215.913 314.977 215.983 315.121 216.06 315.266C216.215 315.559 216.433 315.925 216.705 316.352C217.249 317.209 218.044 318.372 219.055 319.8C221.08 322.658 224.004 326.615 227.604 331.38C234.808 340.912 244.74 353.701 255.664 367.446L256.447 366.824L257.229 366.201C246.313 352.465 236.391 339.69 229.2 330.174C225.604 325.415 222.695 321.477 220.687 318.643C219.682 317.225 218.91 316.094 218.393 315.279C218.133 314.87 217.946 314.555 217.828 314.332C217.769 314.219 217.736 314.147 217.72 314.107C217.691 314.034 217.738 314.119 217.738 314.277H216.738ZM296.672 417.531L295.854 418.107C296.058 418.396 296.35 418.507 296.433 418.538C296.567 418.588 296.706 418.622 296.83 418.646C297.081 418.695 297.397 418.73 297.748 418.757C298.457 418.81 299.425 418.836 300.572 418.836C302.872 418.836 305.959 418.733 309.282 418.529L309.221 417.531L309.16 416.533C305.866 416.735 302.822 416.836 300.572 416.836C299.445 416.836 298.534 416.81 297.898 416.762C297.576 416.738 297.351 416.71 297.214 416.683C297.142 416.669 297.125 416.661 297.141 416.667C297.15 416.671 297.188 416.685 297.239 416.717C297.285 416.745 297.393 416.818 297.489 416.956L296.672 417.531ZM309.221 417.531L309.282 418.529L321.315 417.79L321.254 416.792L321.192 415.794L309.16 416.533L309.221 417.531ZM321.254 416.792L322.033 416.165L301.929 391.168L301.149 391.795L300.37 392.421L320.474 417.419L321.254 416.792ZM301.149 391.795L301.929 391.168C296.208 384.054 291.378 377.53 288.099 372.599C286.458 370.129 285.22 368.08 284.454 366.567C284.069 365.806 283.821 365.215 283.696 364.792C283.633 364.58 283.612 364.446 283.608 364.374C283.603 364.287 283.628 364.375 283.544 364.517L282.681 364.011L281.819 363.506C281.619 363.847 281.596 364.214 281.611 364.483C281.626 364.768 281.691 365.067 281.779 365.361C281.954 365.952 282.263 366.665 282.67 367.47C283.488 369.086 284.775 371.211 286.434 373.706C289.756 378.703 294.625 385.277 300.37 392.421L301.149 391.795ZM282.681 364.011L283.544 364.517C283.733 364.195 284.431 363.222 285.593 361.671C286.735 360.148 288.283 358.122 290.127 355.737C293.814 350.967 298.676 344.768 303.823 338.293L303.041 337.671L302.258 337.048C297.106 343.53 292.238 349.735 288.545 354.514C286.698 356.903 285.143 358.937 283.993 360.472C282.863 361.979 282.079 363.062 281.819 363.506L282.681 364.011ZM303.041 337.671L303.823 338.293L322.551 314.738L321.768 314.115L320.985 313.493L302.258 337.048L303.041 337.671ZM321.768 314.115V313.115H309.116V314.115V315.115H321.768V314.115ZM309.116 314.115V313.115H296.465V314.115V315.115H309.116V314.115ZM296.465 314.115L295.673 313.504L281.616 331.708L282.408 332.319L283.199 332.931L297.256 314.727L296.465 314.115ZM282.408 332.319L281.616 331.708C277.765 336.695 274.093 341.004 271.285 343.926C269.875 345.393 268.71 346.483 267.862 347.134C267.429 347.467 267.135 347.642 266.967 347.711C266.881 347.747 266.897 347.725 266.984 347.726C267.101 347.727 267.324 347.775 267.497 347.979L266.736 348.627L265.974 349.275C266.258 349.609 266.641 349.722 266.962 349.726C267.254 349.729 267.52 349.646 267.727 349.561C268.145 349.39 268.608 349.084 269.082 348.72C270.048 347.976 271.296 346.801 272.727 345.312C275.599 342.322 279.319 337.955 283.199 332.931L282.408 332.319ZM266.736 348.627L267.497 347.979C266.626 346.955 259.732 338.245 252.165 328.598L251.378 329.215L250.591 329.832C258.139 339.454 265.069 348.212 265.974 349.275L266.736 348.627ZM251.378 329.215L252.165 328.598C248.841 324.361 246.283 321.126 244.164 318.668C242.049 316.214 240.329 314.484 238.674 313.286C235.267 310.819 232.242 310.7 227.187 310.7V311.7V312.7C232.255 312.7 234.67 312.856 237.501 314.906C238.965 315.965 240.563 317.554 242.65 319.974C244.733 322.391 247.261 325.587 250.591 329.832L251.378 329.215ZM227.187 311.7V310.7C224.224 310.7 221.527 310.99 219.542 311.479C218.557 311.722 217.691 312.028 217.046 312.407C216.467 312.748 215.738 313.347 215.738 314.277H216.738H217.738C217.738 314.49 217.589 314.408 218.06 314.131C218.466 313.892 219.121 313.643 220.021 313.421C221.806 312.981 224.334 312.7 227.187 312.7V311.7ZM340.589 321.31H339.589V331.027H340.589H341.589V321.31H340.589ZM340.589 331.027V332.027H358.452V331.027V330.027H340.589V331.027ZM358.452 331.027V332.027H376.315V331.027V330.027H358.452V331.027ZM376.315 331.027H375.315V374.513H376.315H377.315V331.027H376.315ZM376.315 374.513H375.315V418H376.315H377.315V374.513H376.315ZM376.315 418V419H385.842V418V417H376.315V418ZM385.842 418V419H395.369V418V417H385.842V418ZM395.369 418H396.369V374.513H395.369H394.369V418H395.369ZM395.369 374.513H396.369V331.027H395.369H394.369V374.513H395.369ZM395.369 331.027V332.027H413.375V331.027V330.027H395.369V331.027ZM413.375 331.027V332.027H431.383V331.027V330.027H413.375V331.027ZM431.383 331.027L432.38 330.945L431.639 321.886L430.642 321.967L429.646 322.049L430.386 331.108L431.383 331.027ZM430.642 321.967L431.639 321.886L430.901 312.826L429.904 312.908L428.907 312.989L429.646 322.048L430.642 321.967ZM429.904 312.908L429.919 311.908L385.261 311.251L385.246 312.25L385.232 313.25L429.889 313.907L429.904 312.908ZM385.246 312.25L385.261 311.251L340.603 310.593L340.589 311.593L340.574 312.593L385.232 313.25L385.246 312.25ZM340.589 311.593H339.589V321.31H340.589H341.589V311.593H340.589ZM463.646 373.709L462.935 373.006C462.642 373.302 462.479 373.734 462.374 374.062C462.253 374.441 462.145 374.911 462.046 375.443C461.848 376.51 461.673 377.921 461.528 379.565C461.237 382.859 461.057 387.162 461.057 391.686H462.057H463.057C463.057 387.208 463.235 382.965 463.52 379.741C463.663 378.127 463.831 376.787 464.012 375.807C464.103 375.316 464.194 374.938 464.279 374.67C464.381 374.351 464.431 374.337 464.357 374.412L463.646 373.709ZM462.057 391.686H461.057C461.057 396.134 460.898 399.685 460.555 402.407C460.208 405.162 459.685 406.941 459.043 407.947C458.733 408.432 458.429 408.685 458.151 408.811C457.881 408.932 457.546 408.975 457.091 408.875C456.117 408.661 454.776 407.834 452.999 406.203L452.323 406.94L451.647 407.677C453.464 409.345 455.137 410.493 456.662 410.828C457.457 411.003 458.242 410.964 458.973 410.634C459.696 410.308 460.271 409.741 460.729 409.023C461.622 407.623 462.185 405.468 462.539 402.657C462.898 399.814 463.057 396.168 463.057 391.686H462.057ZM452.323 406.94L453 406.203C451.234 404.582 449.72 403.5 448.27 403.206C446.662 402.881 445.366 403.55 444.197 404.735L444.909 405.437L445.621 406.139C446.524 405.223 447.173 405.025 447.873 405.166C448.73 405.34 449.887 406.061 451.647 407.676L452.323 406.94ZM444.909 405.437L444.197 404.735C442.901 406.05 442.635 407.725 443.048 409.365C443.45 410.963 444.494 412.557 445.867 413.95C448.609 416.73 452.954 419 457.294 419V418V417C453.595 417 449.738 415.027 447.291 412.546C446.071 411.308 445.274 410.016 444.987 408.876C444.711 407.778 444.907 406.864 445.621 406.139L444.909 405.437ZM457.294 418V419C460.108 419 462.534 418.58 464.572 417.548C466.631 416.506 468.219 414.878 469.409 412.598C471.747 408.12 472.584 401.047 472.584 390.63H471.584H470.584C470.584 401.068 469.721 407.679 467.636 411.673C466.615 413.628 465.311 414.933 463.669 415.764C462.008 416.605 459.925 417 457.294 417V418ZM471.584 390.63H472.584C472.584 383.718 472.385 379.006 471.871 376.007C471.616 374.518 471.267 373.344 470.754 372.519C470.206 371.639 469.422 371.098 468.409 371.098V372.098V373.098C468.581 373.098 468.787 373.143 469.056 373.576C469.361 374.065 469.658 374.93 469.9 376.345C470.381 379.155 470.584 383.708 470.584 390.63H471.584ZM468.409 372.098V371.098C467.41 371.098 466.328 371.302 465.379 371.624C464.451 371.937 463.527 372.403 462.933 373.008L463.646 373.709L464.359 374.41C464.636 374.128 465.22 373.788 466.019 373.518C466.797 373.255 467.661 373.098 468.409 373.098V372.098ZM483.493 376.929L482.781 376.227C480.38 378.663 478.853 381.167 478.248 383.658C477.638 386.171 477.984 388.61 479.224 390.839C481.671 395.234 487.499 398.666 495.925 400.653L496.154 399.68L496.384 398.707C488.135 396.761 483.003 393.515 480.972 389.866C479.974 388.073 479.702 386.149 480.192 384.13C480.687 382.089 481.976 379.892 484.205 377.631L483.493 376.929ZM496.154 399.68L495.925 400.653C498.19 401.187 499.592 401.851 500.365 402.597C501.064 403.271 501.317 404.075 501.102 405.219L502.085 405.403L503.068 405.588C503.391 403.869 502.997 402.357 501.754 401.158C500.586 400.032 498.754 399.265 496.384 398.707L496.154 399.68ZM502.085 405.403L501.102 405.219C500.7 407.358 498.729 408.811 496.165 409.155C493.617 409.497 490.812 408.673 489.126 406.611L488.352 407.244L487.578 407.878C489.79 410.583 493.343 411.551 496.431 411.137C499.504 410.725 502.45 408.875 503.068 405.588L502.085 405.403ZM488.352 407.244L489.126 406.611C487.107 404.145 484.457 402.738 482.18 402.622C481.033 402.564 479.907 402.833 479.053 403.564C478.182 404.31 477.73 405.419 477.73 406.754H478.73H479.73C479.73 405.884 480.01 405.378 480.354 405.083C480.716 404.774 481.289 404.579 482.078 404.619C483.67 404.701 485.831 405.744 487.578 407.878L488.352 407.244ZM478.73 406.754H477.73C477.73 409.708 479.305 412.208 481.62 414.118C483.931 416.026 487.047 417.411 490.359 418.18C493.675 418.95 497.252 419.117 500.514 418.53C503.771 417.943 506.789 416.589 508.878 414.247L508.132 413.581L507.386 412.915C505.681 414.826 503.127 416.027 500.159 416.562C497.197 417.095 493.897 416.949 490.811 416.232C487.721 415.514 484.909 414.24 482.893 412.576C480.88 410.915 479.73 408.932 479.73 406.754H478.73ZM508.132 413.581L508.878 414.247C511.075 411.785 512.403 409.224 512.84 406.668C513.279 404.101 512.806 401.605 511.509 399.32C508.936 394.79 503.188 391.178 495.048 389.148L494.806 390.118L494.564 391.088C502.465 393.059 507.587 396.464 509.77 400.308C510.85 402.21 511.226 404.24 510.869 406.331C510.509 408.434 509.395 410.663 507.386 412.916L508.132 413.581ZM494.806 390.118L495.048 389.148C491.644 388.299 489.873 386.697 489.448 385.378C489.249 384.761 489.319 384.157 489.698 383.578C490.093 382.973 490.872 382.333 492.192 381.818L491.829 380.887L491.466 379.955C489.896 380.566 488.717 381.423 488.023 382.484C487.312 383.571 487.161 384.804 487.545 385.992C488.284 388.285 490.893 390.173 494.564 391.088L494.806 390.118ZM491.829 380.887L492.192 381.819C494.045 381.097 496.478 381.189 498.463 381.847C499.448 382.173 500.257 382.617 500.8 383.105C501.345 383.594 501.547 384.051 501.547 384.436H502.547H503.547C503.547 383.294 502.939 382.337 502.137 381.617C501.333 380.895 500.257 380.334 499.092 379.948C496.778 379.182 493.852 379.026 491.466 379.955L491.829 380.887ZM502.547 384.436H501.547C501.547 385.054 501.83 385.57 502.193 385.957C502.552 386.34 503.025 386.64 503.534 386.87C504.553 387.332 505.89 387.593 507.31 387.593V386.593V385.593C506.11 385.593 505.066 385.369 504.359 385.048C504.004 384.888 503.777 384.722 503.652 384.589C503.532 384.461 503.547 384.411 503.547 384.436H502.547ZM507.31 386.593V387.593C509.042 387.593 510.475 387.182 511.478 386.34C512.509 385.473 512.962 384.253 512.897 382.932C512.771 380.385 510.758 377.458 507.358 375.044L506.779 375.859L506.2 376.674C509.389 378.939 510.818 381.38 510.899 383.03C510.938 383.808 510.685 384.393 510.191 384.808C509.669 385.247 508.756 385.593 507.31 385.593V386.593ZM506.779 375.859L507.358 375.044C499.726 369.621 488.875 370.046 482.781 376.227L483.493 376.929L484.205 377.631C489.51 372.25 499.246 371.733 506.2 376.674L506.779 375.859ZM231.5 396.276L230.72 395.651L213.326 417.375L214.106 418L214.887 418.625L232.281 396.901L231.5 396.276ZM214.106 418L214.108 419L226.738 418.981L226.737 417.981L226.735 416.981L214.105 417L214.106 418ZM226.737 417.981L226.738 418.981C232.948 418.971 236.432 418.986 239.754 416.961C241.398 415.959 242.961 414.487 244.812 412.39C246.663 410.293 248.854 407.508 251.736 403.842L250.95 403.224L250.163 402.606C247.267 406.29 245.117 409.022 243.313 411.066C241.509 413.111 240.103 414.406 238.713 415.253C235.967 416.927 233.123 416.971 226.735 416.981L226.737 417.981ZM429.166 412.564L428.183 412.751C428.444 414.122 429.142 415.361 430.063 416.265C430.979 417.162 432.184 417.792 433.476 417.792V416.792V415.792C432.84 415.792 432.111 415.471 431.464 414.837C430.823 414.208 430.33 413.333 430.148 412.377L429.166 412.564ZM433.476 416.792V417.792C434.769 417.792 435.974 417.162 436.889 416.265C437.811 415.361 438.509 414.122 438.77 412.751L437.787 412.564L436.805 412.377C436.623 413.333 436.13 414.208 435.489 414.837C434.842 415.471 434.113 415.792 433.476 415.792V416.792ZM437.787 412.564L438.77 412.75C439.074 411.143 438.944 409.659 437.888 408.624C436.892 407.647 435.321 407.336 433.476 407.336V408.336V409.336C435.219 409.336 436.085 409.657 436.488 410.052C436.831 410.388 437.062 411.018 436.805 412.378L437.787 412.564ZM433.476 408.336V407.336C431.632 407.336 430.061 407.647 429.065 408.624C428.009 409.659 427.879 411.143 428.183 412.75L429.166 412.564L430.148 412.378C429.89 411.018 430.122 410.388 430.465 410.052C430.868 409.657 431.734 409.336 433.476 409.336V408.336ZM250.165 375.691L249.597 374.868C248.092 375.907 245.402 378.58 242.125 382.189C238.817 385.831 234.834 390.512 230.72 395.651L231.5 396.276L232.281 396.901C236.374 391.788 240.33 387.139 243.606 383.533C246.912 379.893 249.451 377.4 250.734 376.514L250.165 375.691ZM250.165 375.691L250.771 376.487L259.077 370.167L258.471 369.371L257.865 368.576L249.56 374.895L250.165 375.691ZM250.95 403.224L251.736 403.842L261.987 390.805L261.201 390.186L260.414 389.568L250.163 402.606L250.95 403.224ZM268.079 381.467L267.296 382.089C275.439 392.342 282.529 401.275 287.612 407.686C290.153 410.892 292.193 413.467 293.612 415.261C294.321 416.158 294.875 416.859 295.259 417.346C295.45 417.59 295.599 417.779 295.703 417.913C295.819 418.061 295.858 418.113 295.854 418.107L296.672 417.531L297.489 416.956C297.234 416.593 285.126 401.323 268.862 380.845L268.079 381.467ZM261.201 390.186L261.986 390.806L268.864 382.087L268.079 381.467L267.294 380.848L260.415 389.567L261.201 390.186ZM273.424 257.305L273.656 258.278C283.519 255.92 295.107 251.696 301.378 248.342L300.906 247.46L300.434 246.578C294.352 249.831 282.936 254.003 273.191 256.333L273.424 257.305ZM317.578 237.809L318.15 238.63C322.315 235.729 329.484 228.913 336.407 221.56C343.336 214.2 350.128 206.183 353.512 200.836L352.666 200.302L351.821 199.767C348.547 204.942 341.866 212.843 334.951 220.189C328.03 227.541 320.984 234.218 317.007 236.989L317.578 237.809ZM301.503 247.134L301.983 248.012C308.22 244.607 311.936 242.545 316.733 239.529L316.201 238.683L315.668 237.836C310.927 240.817 307.258 242.853 301.024 246.256L301.503 247.134ZM316.201 238.683L316.685 239.557C317.131 239.31 317.623 238.997 318.15 238.63L317.578 237.809L317.007 236.989C316.516 237.33 316.085 237.604 315.716 237.808L316.201 238.683ZM300.906 247.46L301.378 248.342C301.587 248.23 301.792 248.118 301.99 248.007L301.503 247.134L301.017 246.26C300.829 246.365 300.635 246.471 300.434 246.578L300.906 247.46ZM258.471 369.371L259.254 368.749L257.23 366.202L256.447 366.824L255.664 367.446L257.688 369.993L258.471 369.371ZM251.535 146.129L252.373 145.584L252.365 145.572L251.528 146.117L250.69 146.663L250.697 146.675L251.535 146.129ZM251.528 146.117L250.69 146.663C250.691 146.665 250.692 146.667 250.694 146.669C250.695 146.671 250.696 146.673 250.698 146.675L251.535 146.129L252.373 145.584C252.372 145.582 252.371 145.58 252.369 145.578C252.368 145.576 252.367 145.574 252.365 145.572L251.528 146.117ZM251.535 146.129L250.698 146.675L250.714 146.7L251.551 146.154L252.389 145.608L252.373 145.583L251.535 146.129ZM251.551 146.154L252.389 145.608C252.387 145.604 252.384 145.6 252.381 145.596C252.378 145.591 252.376 145.587 252.373 145.584L251.535 146.129L250.698 146.675C250.7 146.679 250.703 146.684 250.706 146.688C250.708 146.692 250.711 146.696 250.714 146.7L251.551 146.154ZM251.597 146.225L252.435 145.679L252.389 145.608L251.551 146.154L250.713 146.7L250.76 146.77L251.597 146.225ZM251.551 146.154L250.714 146.7C250.721 146.711 250.729 146.723 250.736 146.735C250.744 146.747 250.752 146.759 250.76 146.771L251.597 146.225L252.435 145.679C252.428 145.667 252.42 145.655 252.412 145.644C252.405 145.632 252.397 145.62 252.389 145.608L251.551 146.154ZM251.597 146.225L250.76 146.771L250.781 146.803L251.618 146.257L252.456 145.711L252.435 145.679L251.597 146.225ZM251.618 146.257L252.456 145.711C252.453 145.705 252.449 145.7 252.446 145.694C252.442 145.689 252.439 145.684 252.435 145.679L251.597 146.225L250.76 146.771C250.763 146.776 250.767 146.782 250.77 146.787C250.774 146.792 250.777 146.797 250.78 146.802L251.618 146.257Z" fill="white" mask="url(#path-1-inside-1_4_7)"/>
</svg>
