<svg width="512" height="573" viewBox="0 0 512 573" fill="none" xmlns="http://www.w3.org/2000/svg">
<path fill-rule="evenodd" clip-rule="evenodd" d="M143.468 0.839874C143.172 1.30181 141.769 1.67975 140.352 1.67975C137.796 1.67975 137.268 1.85696 132.033 4.47737C130.542 5.22402 129.136 5.65739 128.911 5.44071C128.686 5.22318 127.581 5.98914 126.456 7.14229C125.331 8.29544 124.047 9.23862 123.604 9.23862C123.16 9.23862 121.698 10.3724 120.353 11.7582C119.009 13.144 117.478 14.2779 116.951 14.2779C116.423 14.2779 115.992 14.9506 115.992 15.772C115.992 16.5942 115.207 17.8112 114.248 18.4772C113.288 19.1433 112.503 20.1713 112.503 20.7625C112.503 21.353 112.111 21.8367 111.631 21.8367C111.151 21.8367 110.759 22.3575 110.759 22.9941C110.759 23.6299 110.174 24.6176 109.46 25.1887C108.745 25.7598 108.348 26.519 108.578 26.876C108.807 27.2329 108.41 27.9922 107.696 28.5633C106.982 29.1344 106.397 30.437 106.397 31.4583C106.397 32.4796 106.129 33.574 105.8 33.8906C104.842 34.8119 102.935 40.5651 102.921 42.5741C102.914 43.5861 102.516 44.6477 102.036 44.9333C101.556 45.2188 101.164 47.2438 101.164 49.4342C101.164 51.6246 100.757 53.8074 100.261 54.2853C99.6651 54.8589 99.4967 61.9928 99.7671 75.2401C100.226 97.7127 100.912 107.539 102.104 108.722C102.546 109.161 102.908 111.311 102.908 113.501C102.908 115.692 103.301 117.717 103.78 118.002C104.26 118.288 104.653 119.847 104.653 121.467C104.653 123.086 105.05 125.125 105.535 125.998C106.019 126.87 106.662 129.86 106.965 132.643C107.392 136.575 107.244 137.78 106.301 138.053C105.635 138.246 102.832 139.045 100.075 139.829C97.3169 140.613 94.8406 141.597 94.5719 142.016C94.3024 142.436 92.9225 142.779 91.505 142.779C90.0876 142.779 88.1485 143.157 87.1952 143.618C86.2426 144.08 84.683 144.836 83.7305 145.298C82.7771 145.76 81.2071 146.138 80.2415 146.138C79.275 146.138 78.4847 146.516 78.4847 146.978C78.4847 147.44 77.5034 147.818 76.3041 147.818C75.1047 147.818 74.1234 148.196 74.1234 148.658C74.1234 149.12 73.3331 149.498 72.3667 149.498C71.4011 149.498 69.9287 149.834 69.0957 150.244C68.2626 150.655 66.0113 151.695 64.0923 152.554C62.1734 153.414 60.407 154.323 60.1672 154.574C59.9273 154.825 56.0021 156.815 51.4445 158.995C39.9384 164.5 36.8994 166.324 32.6367 170.285C32.0156 170.862 31.1808 171.334 30.7822 171.334C30.3836 171.334 27.902 173.202 25.2678 175.485C22.6344 177.768 19.2212 180.697 17.6834 181.994C16.1465 183.291 14.8704 184.754 14.8486 185.244C14.8268 185.734 14.033 186.938 13.0848 187.918C9.61758 191.501 3.46987 201.501 3.46987 203.557C3.46987 204.719 3.07736 205.904 2.59761 206.189C2.11786 206.475 1.72534 208.175 1.72534 209.969C1.72534 211.762 1.33282 213.462 0.853075 213.748C-0.284358 214.425 -0.284358 225.669 0.853075 226.346C1.33282 226.632 1.72534 228.332 1.72534 230.126C1.72534 231.919 2.11786 233.619 2.59761 233.905C3.07736 234.191 3.49866 235.252 3.53355 236.264C3.56844 237.276 4.33603 239.238 5.2397 240.624C6.1425 242.01 7.53201 244.371 8.32751 245.873C9.12389 247.375 10.1226 248.603 10.5474 248.603C10.9722 248.603 11.3203 249.097 11.3203 249.701C11.3203 251.846 27.0516 266.003 36.0481 271.954C41.075 275.278 45.5811 277.998 46.0626 277.998C46.5441 277.998 47.0683 278.281 47.2288 278.628C47.6231 279.483 67.3023 288.931 68.6717 288.923C69.2719 288.919 69.7621 289.295 69.7621 289.757C69.7621 290.219 70.7486 290.596 71.955 290.596C73.1604 290.596 74.8291 290.943 75.6621 291.366C76.4951 291.789 78.7464 292.759 80.6654 293.523C87.0102 296.045 88.5009 296.665 90.03 297.414C90.863 297.822 92.3119 298.155 93.2496 298.155C94.1872 298.155 95.1973 298.533 95.4939 298.995C95.7905 299.457 97.187 299.835 98.5983 299.835C100.01 299.835 101.164 300.189 101.164 300.622C101.164 301.055 102.44 301.527 103.998 301.672L106.833 301.935L106.646 306.974C106.543 309.746 106.076 312.769 105.61 313.693C104.723 315.447 104.012 319.195 103.218 326.291C102.959 328.601 102.391 330.85 101.956 331.288C101.52 331.728 101.164 334.634 101.164 337.748C101.164 340.862 100.771 343.643 100.291 343.929C99.1077 344.633 99.1077 385.218 100.291 385.922C100.771 386.208 101.164 388.286 101.164 390.542C101.164 392.797 101.556 394.875 102.036 395.161C102.516 395.446 102.908 396.769 102.908 398.1C102.908 399.432 103.301 400.754 103.78 401.04C104.26 401.326 104.653 402.298 104.653 403.201C104.653 404.104 105.026 405.499 105.483 406.301C105.939 407.103 106.992 409.271 107.823 411.118C110.151 416.295 114.087 421.624 118.991 426.236C124.364 431.29 127.059 433.375 128.213 433.375C128.688 433.375 129.076 433.753 129.076 434.215C129.076 434.677 129.838 435.055 130.769 435.055C131.701 435.055 132.705 435.433 133.001 435.895C133.298 436.357 134.672 436.735 136.054 436.735C137.437 436.735 138.779 437.064 139.037 437.466C140.595 439.893 167.845 439.923 170.465 437.501C170.92 437.079 172.762 436.735 174.557 436.735C176.352 436.735 178.063 436.357 178.359 435.895C178.656 435.433 179.856 435.055 181.027 435.055C182.199 435.055 183.157 434.677 183.157 434.215C183.157 433.753 183.802 433.375 184.591 433.375C189.02 433.375 216.385 417.91 226.997 409.409C227.843 408.732 228.834 408.179 229.2 408.179C229.566 408.179 232.149 406.1 234.939 403.56C237.73 401.019 240.305 398.94 240.661 398.94C241.018 398.94 244.37 396.106 248.112 392.641C251.853 389.177 255.372 386.342 255.932 386.342C257.474 386.342 261.646 388.351 261.653 389.098C261.657 389.458 263.078 390.97 264.809 392.457C266.542 393.944 268.879 396.012 270.004 397.051C271.128 398.089 272.249 398.94 272.495 398.94C272.938 398.94 277.416 402.66 281.343 406.289C282.467 407.328 283.625 408.179 283.915 408.179C284.204 408.179 285.89 409.247 287.662 410.552C298.316 418.406 302.78 421.314 305.492 422.17C306.331 422.436 307.018 422.916 307.018 423.238C307.018 423.56 308.392 424.342 310.071 424.976C311.75 425.61 313.124 426.437 313.124 426.813C313.124 427.189 313.633 427.496 314.256 427.496C314.878 427.496 318.071 428.819 321.35 430.436C324.628 432.052 327.848 433.375 328.504 433.375C329.16 433.375 329.697 433.753 329.697 434.215C329.697 434.677 330.875 435.055 332.314 435.055C333.753 435.055 334.931 435.433 334.931 435.895C334.931 436.357 336.697 436.735 338.856 436.735C341.015 436.735 342.781 437.079 342.781 437.5C342.781 438.355 350.937 439.312 358.918 439.394C365.76 439.463 374.183 438.403 374.183 437.47C374.183 437.066 375.348 436.735 376.773 436.735C382.799 436.735 394.263 428.258 400.625 419.097C402.39 416.557 404.228 414.021 404.709 413.463C405.19 412.906 405.584 411.861 405.584 411.143C405.584 410.424 405.977 409.085 406.456 408.167C406.936 407.25 407.721 405.748 408.201 404.831C408.681 403.913 409.073 402.424 409.073 401.521C409.073 400.618 409.466 399.646 409.945 399.36C410.425 399.075 410.818 397.374 410.818 395.581C410.818 393.788 411.21 392.087 411.69 391.801C412.17 391.516 412.562 389.113 412.562 386.461C412.562 383.808 412.972 381.244 413.474 380.761C414.585 379.691 414.005 353.175 412.64 342.669C412.13 338.742 411.476 333.262 411.188 330.491C410.9 327.719 410.307 325.092 409.869 324.653C409.431 324.214 409.073 322.253 409.073 320.294C409.073 318.334 408.681 316.498 408.201 316.213C407.721 315.927 407.329 314.28 407.329 312.552C407.329 310.823 406.907 309.004 406.393 308.508C405.878 308.013 405.584 306.332 405.739 304.771C405.989 302.252 406.338 301.905 408.855 301.672C410.415 301.527 411.69 301.055 411.69 300.622C411.69 300.189 412.844 299.835 414.255 299.835C415.667 299.835 417.063 299.457 417.36 298.995C417.656 298.533 418.834 298.155 419.977 298.155C421.119 298.155 422.297 297.777 422.593 297.315C422.89 296.854 423.722 296.476 424.443 296.476C425.621 296.476 433.297 293.409 437.191 291.384C438.024 290.951 439.693 290.596 440.898 290.596C442.105 290.596 443.091 290.219 443.091 289.757C443.091 289.295 443.876 288.917 444.836 288.917C445.795 288.917 446.58 288.539 446.58 288.077C446.58 287.615 447.37 287.237 448.337 287.237C449.901 287.237 453.253 285.851 454.431 284.717C454.67 284.486 457.222 283.178 460.1 281.81C462.979 280.441 465.53 279.118 465.77 278.87C466.28 278.341 469.597 276.482 472.875 274.887C474.143 274.269 475.663 273.205 476.252 272.522C476.841 271.839 477.703 271.279 478.167 271.279C479.956 271.279 500.661 253.073 500.661 251.5C500.661 251.254 501.486 250.218 502.494 249.197C503.502 248.178 505.303 245.264 506.494 242.724C507.686 240.183 509.019 237.448 509.458 236.646C509.897 235.844 510.255 234.449 510.255 233.546C510.255 232.643 510.648 231.671 511.128 231.385C511.636 231.083 512 226.354 512 220.047C512 213.74 511.636 209.011 511.128 208.709C510.648 208.423 510.255 207.079 510.255 205.72C510.255 204.361 509.863 203.25 509.383 203.25C508.903 203.25 508.511 202.753 508.511 202.147C508.511 200.422 504.512 192.952 502.487 190.897C501.482 189.876 500.661 188.82 500.661 188.548C500.661 188.277 499.777 187.184 498.698 186.118C497.619 185.051 495.915 183.273 494.913 182.166C492.424 179.416 483.322 171.334 482.714 171.334C482.039 171.334 474.268 166.283 473.167 165.129C471.819 163.715 468.574 162.096 467.091 162.096C466.364 162.096 465.77 161.718 465.77 161.256C465.77 160.794 465.181 160.416 464.462 160.416C463.742 160.416 463.153 160.109 463.153 159.733C463.153 159.357 461.76 158.524 460.058 157.88C458.356 157.237 456.545 156.226 456.035 155.633C455.523 155.041 454.801 154.736 454.431 154.957C454.06 155.178 453.271 154.796 452.678 154.108C452.085 153.42 450.863 152.857 449.963 152.857C449.062 152.857 448.325 152.479 448.325 152.017C448.325 151.555 447.534 151.177 446.568 151.177C445.602 151.177 444.13 150.844 443.297 150.436C442.464 150.028 440.605 149.227 439.166 148.658C437.727 148.088 435.868 147.288 435.035 146.88C434.202 146.472 432.73 146.138 431.764 146.138C430.798 146.138 430.007 145.76 430.007 145.298C430.007 144.836 429.105 144.458 428.001 144.458C426.898 144.458 425.54 144.02 424.983 143.484C424.427 142.948 422.876 142.434 421.538 142.342C420.199 142.25 416.951 141.366 414.319 140.377C411.687 139.388 408.606 138.579 407.471 138.579C405.548 138.579 405.442 138.337 405.905 135.01C407.098 126.425 407.56 124.263 408.293 123.827C408.723 123.572 409.073 121.517 409.073 119.262C409.073 117.007 409.466 114.928 409.945 114.643C410.425 114.357 410.818 112.143 410.818 109.722C410.818 107.301 411.173 104.962 411.607 104.522C414.375 101.726 414.363 50.3362 411.595 47.4949C411.168 47.0556 410.818 45.4725 410.818 43.975C410.818 42.4775 410.425 41.0195 409.945 40.7339C409.466 40.4483 409.073 39.3557 409.073 38.305C409.073 37.2543 408.812 36.144 408.494 35.8374C408.176 35.5309 407.24 33.432 406.414 31.1736C403.99 24.5462 392.285 9.23862 389.642 9.23862C388.975 9.23862 387.895 8.48609 385.118 6.08909C384.449 5.51209 383.477 5.03925 382.956 5.03925C382.435 5.03925 381.23 4.6613 380.276 4.19937C379.324 3.73744 377.764 2.98155 376.812 2.51962C375.858 2.05769 373.919 1.67975 372.502 1.67975C371.084 1.67975 369.682 1.30181 369.385 0.839874C368.673 -0.2696 349.163 -0.2696 348.451 0.839874C348.154 1.30181 346.388 1.67975 344.526 1.67975C342.663 1.67975 340.897 2.05769 340.6 2.51962C340.304 2.98155 338.93 3.3595 337.547 3.3595C336.165 3.3595 334.791 3.73744 334.495 4.19937C334.198 4.6613 333.085 5.03925 332.02 5.03925C330.956 5.03925 329.212 5.628 328.145 6.34777C327.078 7.06754 325.854 7.44716 325.426 7.19268C324.997 6.93736 324.422 7.29347 324.146 7.98385C323.871 8.67422 323.084 9.23862 322.399 9.23862C321.713 9.23862 318.913 10.3724 316.177 11.7582C313.441 13.144 310.833 14.2779 310.383 14.2779C309.931 14.2779 308.719 15.0337 307.69 15.9576C306.66 16.8815 305.302 17.6374 304.673 17.6374C304.044 17.6374 303.529 17.9977 303.529 18.4378C303.529 18.8779 302.155 19.8664 300.476 20.6332C298.797 21.4 297.423 22.3633 297.423 22.7724C297.423 23.1814 296.835 23.5165 296.115 23.5165C295.395 23.5165 294.806 23.8944 294.806 24.3564C294.806 24.8183 294.418 25.1962 293.944 25.1962C293.469 25.1962 290.683 26.9919 287.752 29.1856C284.822 31.3794 281.804 33.553 281.046 34.0149C280.288 34.4768 277.158 37.1224 274.089 39.894C271.022 42.6656 268.086 45.0786 267.568 45.2566C267.05 45.4338 264.625 47.4143 262.18 49.6567C259.735 51.9 257.146 53.7318 256.427 53.7293C255.707 53.7259 253.156 51.9429 250.757 49.7659C246.301 45.7219 239.665 40.062 236.708 37.7817C235.799 37.0813 232.112 34.2467 228.514 31.4827C224.916 28.7178 221.841 26.1722 221.682 25.8261C221.521 25.4801 220.639 25.1962 219.719 25.1962C218.8 25.1962 218.046 24.9123 218.045 24.5663C218.045 24.2203 216.278 22.8622 214.12 21.5495C211.962 20.2368 210.197 18.8199 210.197 18.4C210.197 17.9809 209.412 17.6374 208.452 17.6374C207.493 17.6374 206.708 17.2594 206.708 16.7975C206.708 16.3356 206.119 15.9576 205.399 15.9576C204.68 15.9576 204.091 15.5797 204.091 15.1177C204.091 14.6558 203.581 14.2779 202.956 14.2779C201.352 14.2779 197.128 12.3025 197.12 11.5483C197.116 11.2014 196.556 10.9184 195.877 10.9184C195.197 10.9184 192.051 9.59556 188.886 7.97881C185.721 6.36205 182.375 5.03925 181.451 5.03925C180.527 5.03925 179.528 4.6613 179.231 4.19937C178.935 3.73744 177.561 3.3595 176.178 3.3595C174.796 3.3595 173.422 2.98155 173.125 2.51962C172.829 2.05769 171.063 1.67975 169.2 1.67975C167.338 1.67975 165.572 1.30181 165.275 0.839874C164.965 0.356107 160.341 0 154.372 0C148.403 0 143.779 0.356107 143.468 0.839874ZM143.687 20.1998C144.766 20.1763 145.649 19.779 145.649 19.3171C145.649 18.8132 149.121 18.4772 154.32 18.4772C159.161 18.4772 163.23 18.8485 163.531 19.3171C163.827 19.779 165.397 20.157 167.02 20.157C168.642 20.157 170.212 20.5349 170.509 20.9969C170.805 21.4588 171.815 21.8367 172.753 21.8367C173.691 21.8367 175.14 22.1895 175.973 22.6195C176.806 23.0503 180.557 24.8317 184.311 26.5787C188.064 28.3256 191.325 30.0524 191.558 30.4152C191.791 30.778 192.744 31.0753 193.675 31.0753C194.607 31.0753 195.368 31.4533 195.368 31.9152C195.368 32.3772 195.957 32.7551 196.677 32.7551C197.396 32.7551 197.985 33.133 197.985 33.595C197.985 34.0569 198.574 34.4348 199.293 34.4348C200.013 34.4348 200.602 34.7204 200.602 35.0698C200.602 35.4192 201.682 36.1675 203.001 36.7327C204.319 37.298 206.381 38.6292 207.58 39.6908C208.779 40.7532 211.134 42.5287 212.814 43.6373C221.577 49.4258 241.598 66.896 241.598 68.7555C241.598 69.618 239.218 72.5122 235.032 76.741C233.156 78.6366 218.918 94.7429 217.86 96.1656C217.517 96.6275 216.105 98.3283 214.724 99.945C213.343 101.562 210.68 104.986 208.806 107.554C206.933 110.122 203.633 114.553 201.474 117.4L197.549 122.577L189.968 122.599C185.799 122.612 182.145 123 181.848 123.462C181.552 123.923 178.608 124.301 175.306 124.301C172.005 124.301 169.061 124.679 168.764 125.141C168.468 125.603 165.916 125.981 163.094 125.981C160.273 125.981 157.756 126.305 157.501 126.701C157.248 127.096 154.813 127.642 152.093 127.913C149.371 128.182 146.73 128.804 146.223 129.292C145.715 129.781 143.636 130.181 141.601 130.181C139.566 130.181 137.659 130.558 137.363 131.02C136.602 132.205 127.897 132.069 126.634 130.852C126.058 130.298 125.587 128.62 125.587 127.123C125.587 125.625 125.195 124.167 124.715 123.881C124.235 123.596 123.843 121.895 123.843 120.102C123.843 118.309 123.45 116.608 122.97 116.323C122.491 116.037 122.098 113.769 122.098 111.283C122.098 108.797 121.705 106.53 121.226 106.244C120.746 105.959 120.353 103.502 120.353 100.785C120.353 98.0679 119.961 95.6113 119.481 95.3257C118.94 95.0032 118.609 87.3545 118.609 75.1687C118.609 62.983 118.94 55.3343 119.481 55.0118C119.961 54.7262 120.353 52.8365 120.353 50.8124C120.353 48.7883 120.746 46.8986 121.226 46.613C121.705 46.3275 122.098 45.3549 122.098 44.452C122.098 42.9604 122.757 41.3688 124.853 37.7943C125.259 37.1014 125.95 35.7425 126.389 34.775C126.827 33.8075 127.709 32.4687 128.349 31.8002C128.989 31.1316 129.945 29.8491 130.473 28.9505C131.881 26.5543 141.402 20.2494 143.687 20.1998ZM346.206 20.157C347.624 20.157 349.026 19.779 349.323 19.3171C349.999 18.2639 365.817 18.2034 367.871 19.2466C368.704 19.6699 370.906 20.6542 372.764 21.4353C378.675 23.9171 384.628 30.3783 388.612 38.6342C389.391 40.251 390.389 42.2297 390.829 43.0318C391.269 43.8339 391.628 46.0075 391.628 47.8611C391.628 49.7155 391.991 51.2323 392.434 51.2323C394.86 51.2323 394.866 97.1021 392.441 99.4831C391.993 99.9224 391.628 103.017 391.628 106.363C391.628 109.708 391.235 112.678 390.756 112.963C390.276 113.249 389.883 115.138 389.883 117.162C389.883 119.187 389.491 121.076 389.011 121.362C388.531 121.647 388.139 123.313 388.139 125.062C388.139 129.862 385.881 131.86 380.456 131.86C378.021 131.86 375.788 131.482 375.491 131.02C375.194 130.558 373.307 130.167 371.296 130.151C369.286 130.134 366.659 129.581 365.46 128.921C364.261 128.261 361.634 127.707 359.624 127.69C357.613 127.674 355.725 127.283 355.429 126.821C355.132 126.359 352.581 125.981 349.759 125.981C346.937 125.981 344.386 125.603 344.089 125.141C343.793 124.679 340.905 124.301 337.67 124.301C334.436 124.301 331.415 123.939 330.955 123.497C330.496 123.055 326.624 122.582 322.352 122.447L314.583 122.202L312.764 119.075C311.762 117.355 310.347 115.276 309.618 114.456C308.158 112.812 303.205 106.489 300.476 102.787C299.517 101.485 297.532 99.085 296.066 97.4531C294.6 95.8213 292.637 93.4864 291.705 92.2652C288.394 87.9306 276.089 74.3054 274.123 72.7978C270.774 70.2294 271.482 67.1102 276.376 62.8822C289.555 51.4927 299.609 43.4937 304.213 40.7339C304.984 40.272 306.421 39.2078 307.406 38.3688C308.392 37.5298 310.474 36.2582 312.034 35.5435C313.593 34.8287 314.869 33.9082 314.869 33.4992C314.869 33.0902 315.654 32.7551 316.613 32.7551C317.573 32.7551 318.358 32.4208 318.358 32.0135C318.358 31.6053 319.045 31.0619 319.884 30.8049C320.723 30.5487 322.392 29.7929 323.591 29.126C325.559 28.0308 327.623 27.1296 331.442 25.6976C332.161 25.428 333.339 24.8704 334.058 24.4588C334.778 24.0473 336.544 23.2452 337.984 22.6758C339.423 22.1063 341.282 21.3068 342.115 20.8986C342.948 20.4904 344.789 20.157 346.206 20.157ZM247.282 92.2224C249.673 89.712 252.409 86.6431 253.363 85.4026C254.945 83.3441 258.148 82.2657 258.189 83.7775C258.198 84.1235 260.259 86.4718 262.768 88.9956C265.277 91.5194 267.93 94.4245 268.665 95.4526C269.398 96.4806 271.557 98.9557 273.462 100.954C275.366 102.951 278.88 107.037 281.27 110.034C283.659 113.03 286.313 116.22 287.168 117.122C288.55 118.579 288.577 118.901 287.414 120.021C286.28 121.113 284.85 121.147 276.677 120.272C264.685 118.988 249.358 118.984 236.617 120.263C228.085 121.119 226.528 121.089 225.848 120.053C224.699 118.305 224.729 118.235 228.078 114.816C229.757 113.102 231.131 111.457 231.131 111.162C231.131 110.867 232.995 108.566 235.274 106.05C237.554 103.535 240.209 100.421 241.176 99.1312C242.143 97.8412 244.891 94.7319 247.282 92.2224ZM222.326 139.335C229.327 139.289 236.038 138.933 237.237 138.544C239.326 137.865 260.652 138.079 289.693 139.07L303.334 139.535L306.048 142.787C307.542 144.576 308.763 146.238 308.763 146.482C308.763 146.724 311.314 150.496 314.432 154.863C317.551 159.23 320.102 163.025 320.102 163.297C320.102 163.569 322.261 167.013 324.9 170.951C327.538 174.89 329.697 178.666 329.697 179.343C329.697 180.02 330.09 180.573 330.569 180.573C331.049 180.573 331.442 181.329 331.442 182.253C331.442 183.177 331.745 183.932 332.116 183.932C332.487 183.932 333.552 185.35 334.482 187.082C335.414 188.815 337.269 191.811 338.606 193.742C339.943 195.673 341.037 198.036 341.037 198.991C341.037 199.948 341.333 200.73 341.696 200.73C342.059 200.73 342.839 201.77 343.432 203.04C344.023 204.309 345.371 206.672 346.426 208.289C347.482 209.906 348.446 211.789 348.569 212.473C348.692 213.158 349.206 213.85 349.712 214.013C350.217 214.175 350.631 215.037 350.631 215.929C350.631 216.821 351.123 218.351 351.722 219.328C352.594 220.751 352.594 221.183 351.722 221.487C351.123 221.696 350.631 222.569 350.631 223.427C350.631 224.285 350.314 225.176 349.926 225.407C349.538 225.638 346.502 231.046 343.18 237.425C339.857 243.804 336.703 249.463 336.171 250.001C335.639 250.539 334.702 252.145 334.089 253.571C333.476 254.996 332.63 256.162 332.208 256.162C331.786 256.162 331.442 256.918 331.442 257.841C331.442 258.765 331.049 259.521 330.569 259.521C330.09 259.521 329.697 260.277 329.697 261.201C329.697 262.125 329.305 262.881 328.825 262.881C328.345 262.881 327.953 263.448 327.953 264.14C327.953 264.833 327.633 265.4 327.243 265.4C326.853 265.4 325.994 266.724 325.335 268.342C324.676 269.959 323.229 272.103 322.12 273.107C321.01 274.111 320.102 275.469 320.102 276.125C320.102 277.386 316.72 282.421 315.554 282.897C315.177 283.052 314.869 283.673 314.869 284.279C314.869 284.885 313.894 286.271 312.703 287.359C311.512 288.446 310.531 289.643 310.522 290.017C310.514 290.392 309.261 292.531 307.737 294.772C305.452 298.132 304.419 298.917 301.849 299.248C300.134 299.468 296.061 300.101 292.796 300.655C284.928 301.988 217.779 301.486 214.558 300.07C213.359 299.543 211.359 298.904 210.114 298.65C208.482 298.317 206.354 296.088 202.482 290.654C199.529 286.509 197.113 282.753 197.113 282.308C197.113 281.863 196.778 281.372 196.369 281.218C195.685 280.961 185.773 265.598 185.773 264.796C185.773 264.602 184.596 262.795 183.157 260.781C181.717 258.767 180.54 256.572 180.54 255.903C180.54 255.234 179.941 254.21 179.21 253.625C178.479 253.041 178.07 252.381 178.301 252.159C178.531 251.937 177.811 250.573 176.7 249.129C175.59 247.685 174.137 245.275 173.473 243.773C172.807 242.272 171.967 241.044 171.604 241.044C171.241 241.044 170.945 240.553 170.945 239.951C170.945 238.407 168.893 234.339 168.11 234.332C167.75 234.328 167.456 233.592 167.456 232.695C167.456 231.798 167.097 230.851 166.659 230.591C165.511 229.907 161.35 221.645 161.35 220.047C161.35 218.45 165.511 210.187 166.659 209.503C167.097 209.243 167.456 208.296 167.456 207.399C167.456 206.502 167.848 205.769 168.328 205.769C168.808 205.769 169.2 205.013 169.2 204.089C169.2 203.166 169.593 202.41 170.073 202.41C170.552 202.41 170.975 201.748 171.014 200.94C171.051 200.132 172.208 197.769 173.584 195.691C174.961 193.612 177.283 189.644 178.745 186.872C181.56 181.531 184.178 177.069 184.903 176.374C185.143 176.143 185.928 174.82 186.646 173.434C187.363 172.048 188.442 170.612 189.043 170.243C189.644 169.873 190.135 168.987 190.135 168.273C190.135 166.933 193.468 161.892 194.683 161.396C195.059 161.242 195.368 160.783 195.368 160.375C195.368 159.352 205.043 144.944 205.963 144.599C206.373 144.444 206.708 143.907 206.708 143.404C206.708 142.902 207.358 141.8 208.151 140.955C209.417 139.609 211.168 139.409 222.326 139.335ZM166.584 144.458C170.365 144.458 173.701 144.08 173.998 143.618C174.82 142.337 181.412 142.561 181.412 143.871C181.412 145.416 179.36 149.483 178.577 149.491C178.217 149.494 177.923 150.081 177.923 150.793C177.923 151.505 177.201 152.834 176.318 153.747C175.435 154.659 174.174 156.438 173.515 157.701C172.855 158.963 171.517 161.129 170.54 162.513C169.563 163.897 167.444 167.488 165.829 170.492C160.785 179.878 160.365 180.573 159.755 180.573C159.427 180.573 158.67 181.707 158.074 183.093C157.477 184.478 156.5 186.746 155.904 188.132C155.307 189.518 154.522 190.651 154.159 190.651C153.796 190.651 153.5 191.394 153.5 192.302C153.5 194.08 150.52 196.093 149.12 195.26C148.651 194.98 148.266 193.83 148.266 192.702C148.266 191.574 147.873 190.651 147.394 190.651C146.914 190.651 146.521 189.918 146.521 189.021C146.521 188.124 146.129 187.158 145.649 186.872C145.169 186.586 144.777 185.805 144.777 185.133C144.777 184.463 143.96 182.123 142.962 179.934C139.035 171.324 138.671 170.384 138.671 168.836C138.671 167.955 138.279 167.001 137.799 166.715C137.319 166.429 136.926 165.296 136.926 164.195C136.926 163.095 136.534 161.961 136.054 161.676C135.574 161.39 135.182 160.256 135.182 159.156C135.182 158.056 134.789 156.922 134.31 156.637C133.83 156.351 133.437 154.817 133.437 153.227C133.437 150.484 133.593 150.337 136.49 150.337C138.169 150.337 139.543 149.96 139.543 149.498C139.543 149.036 140.658 148.658 142.021 148.658C143.385 148.658 146.426 148.095 148.781 147.407C151.137 146.719 154.316 146.152 155.847 146.147C157.378 146.142 158.873 145.76 159.169 145.298C159.466 144.836 162.802 144.458 166.584 144.458ZM337.648 154.666C335.206 151.355 331.442 144.683 331.442 143.667C331.442 142.538 338.135 142.494 338.856 143.618C339.152 144.08 342.489 144.458 346.27 144.458C350.051 144.458 353.388 144.836 353.684 145.298C353.981 145.76 355.783 146.138 357.689 146.138C359.595 146.138 362.564 146.705 364.286 147.398C366.009 148.091 368.72 148.658 370.312 148.658C371.904 148.658 373.45 149.036 373.746 149.498C374.043 149.96 375.453 150.337 376.878 150.337C379.869 150.337 381.081 152.283 379.554 154.637C378.998 155.493 378.544 156.932 378.544 157.835C378.544 158.738 378.151 159.71 377.672 159.996C377.192 160.282 376.799 161.626 376.799 162.985C376.799 164.344 376.407 165.455 375.927 165.455C375.447 165.455 375.055 166.377 375.055 167.505C375.055 168.633 374.662 169.789 374.183 170.075C373.703 170.36 373.31 171.251 373.31 172.056C373.31 172.86 372.845 173.967 372.276 174.514C371.706 175.063 371.117 176.366 370.965 177.412C370.814 178.457 370.298 180.163 369.82 181.203C369.341 182.243 368.557 184.037 368.077 185.192C364.275 194.344 364.245 194.392 362.1 194.7C360.846 194.879 360.226 194.522 360.226 193.62C360.226 192.879 359.539 191.263 358.7 190.029C357.16 187.766 354.693 183.46 351.838 178.053C350.985 176.437 350.07 174.925 349.805 174.694C349.539 174.463 348.795 173.372 348.151 172.269C347.506 171.166 346.23 168.982 345.316 167.415C344.402 165.847 343.653 164.181 343.653 163.713C343.653 163.246 342.672 161.843 341.473 160.598C340.273 159.353 339.292 158.01 339.292 157.615C339.292 157.219 338.552 155.892 337.648 154.666ZM107.693 157.056C108.9 157.056 109.886 156.651 109.886 156.155C109.886 155.659 110.541 155.376 111.342 155.525C113.342 155.898 115.851 160.27 115.928 163.516C115.963 164.99 116.385 166.429 116.864 166.715C117.344 167.001 117.737 167.909 117.737 168.735C117.737 170.106 119.207 173.704 121.282 177.412C121.731 178.214 122.098 179.442 122.098 180.141C122.098 180.841 122.491 181.413 122.97 181.413C123.45 181.413 123.843 182.187 123.843 183.133C123.843 184.079 124.628 186.418 125.587 188.33C126.547 190.242 127.332 192.497 127.332 193.34C127.332 194.184 127.697 195.53 128.145 196.332C131.693 202.695 136.926 213.877 136.926 215.094C136.926 215.916 137.319 216.822 137.799 217.107C138.279 217.393 138.671 218.738 138.671 220.097C138.671 221.456 138.279 222.567 137.799 222.567C137.319 222.567 136.926 223.701 136.926 225.086C136.926 226.472 136.61 227.606 136.222 227.606C135.834 227.606 134.826 229.213 133.981 231.175C133.136 233.138 131.686 236.198 130.76 237.974C129.834 239.75 129.076 241.733 129.076 242.384C129.076 243.033 128.684 243.564 128.204 243.564C127.724 243.564 127.332 244.702 127.332 246.095C127.332 247.487 126.985 249.282 126.561 250.084C125.718 251.679 124.789 253.839 121.145 262.671C120.621 263.941 119.64 266.05 118.964 267.358C118.289 268.666 117.737 270.461 117.737 271.347C117.737 272.233 117.344 272.959 116.864 272.959C116.385 272.959 115.992 274.206 115.992 275.732C115.992 277.256 115.502 279.52 114.902 280.764C113.973 282.69 113.27 283.026 110.156 283.031C108.145 283.034 106.258 282.66 105.961 282.198C105.665 281.736 104.268 281.358 102.857 281.358C101.445 281.358 100.291 280.98 100.291 280.518C100.291 280.056 98.9175 279.678 97.2384 279.678C95.5593 279.678 94.1855 279.3 94.1855 278.838C94.1855 278.376 93.5243 277.998 92.7166 277.998C91.908 277.998 89.6515 277.28 87.7011 276.402C85.7507 275.523 82.5844 274.169 80.6654 273.392C78.7464 272.614 76.4951 271.632 75.6621 271.209C74.8291 270.786 73.5529 270.44 72.8272 270.44C72.1006 270.44 71.5066 270.062 71.5066 269.6C71.5066 269.138 70.7408 268.76 69.8057 268.76C67.9748 268.76 60.3172 264.937 57.5059 262.619C56.5595 261.839 55.2013 261.201 54.4878 261.201C53.7734 261.201 53.189 260.823 53.189 260.361C53.189 259.899 52.404 259.521 51.4445 259.521C50.485 259.521 49.7 259.225 49.7 258.863C49.7 258.5 48.4631 257.5 46.9523 256.64C38.6335 251.909 22.6597 235.285 22.6597 231.359C22.6597 230.681 22.2672 230.126 21.7874 230.126C21.3077 230.126 20.9152 228.825 20.9152 227.236C20.9152 225.646 20.5226 224.112 20.0429 223.826C19.5632 223.541 19.1706 221.651 19.1706 219.627C19.1706 217.603 19.5632 215.713 20.0429 215.428C20.5226 215.142 20.9152 213.798 20.9152 212.439C20.9152 211.08 21.3077 209.969 21.7874 209.969C22.2672 209.969 22.6597 209.46 22.6597 208.838C22.6597 207.154 25.2817 202.41 26.2124 202.41C26.6573 202.41 27.021 201.929 27.021 201.342C27.021 199.93 40.993 186.452 42.4567 186.452C43.0821 186.452 43.5941 186.16 43.5941 185.803C43.5941 185.446 44.9679 184.442 46.647 183.571C48.3261 182.7 49.7 181.67 49.7 181.281C49.7 180.891 50.2887 180.573 51.0084 180.573C51.728 180.573 52.3168 180.284 52.3168 179.931C52.3168 179.579 53.7892 178.645 55.5878 177.857C57.3872 177.069 59.8401 175.874 61.0394 175.201C62.2388 174.528 63.8089 173.757 64.5285 173.487C65.2481 173.217 67.0144 172.272 68.4537 171.386C69.8929 170.501 71.7569 169.75 72.5969 169.716C73.4369 169.682 74.1234 169.277 74.1234 168.815C74.1234 168.353 74.7174 167.975 75.444 167.975C76.7245 167.975 77.6508 167.624 81.7435 165.586C82.8164 165.052 84.4903 164.615 85.4628 164.615C87.1699 164.615 88.0099 164.318 92.2107 162.227C93.2836 161.693 94.7246 161.256 95.411 161.256C96.0984 161.256 97.9685 160.625 99.5665 159.854C105.019 157.223 105.503 157.056 107.693 157.056ZM397.734 160.796C397.734 159.674 398.41 157.995 399.236 157.066C400.867 155.231 402.551 154.889 403.404 156.217C403.7 156.679 404.878 157.056 406.02 157.056C407.163 157.056 408.341 157.434 408.637 157.896C408.934 158.358 409.781 158.736 410.519 158.736C411.777 158.736 416.312 160.422 419.746 162.166C420.579 162.59 422.028 162.936 422.966 162.936C423.903 162.936 424.913 163.314 425.21 163.775C425.507 164.237 426.903 164.615 428.314 164.615C429.726 164.615 430.88 164.993 430.88 165.455C430.88 165.917 431.474 166.295 432.2 166.295C432.926 166.295 434.202 166.637 435.035 167.054C435.868 167.473 441.259 170.022 447.016 172.723C452.773 175.422 457.614 177.915 457.774 178.262C457.934 178.609 458.621 178.893 459.3 178.893C459.98 178.893 460.536 179.271 460.536 179.733C460.536 180.195 461.125 180.573 461.845 180.573C462.564 180.573 463.153 180.951 463.153 181.413C463.153 181.875 463.754 182.253 464.489 182.253C465.224 182.253 466.051 182.82 466.326 183.513C466.603 184.205 467.317 184.772 467.914 184.772C468.511 184.772 471.031 186.567 473.514 188.762C475.996 190.956 479.195 193.63 480.621 194.705C482.048 195.779 483.215 196.967 483.215 197.345C483.215 197.723 484.294 199.16 485.614 200.538C486.934 201.916 488.743 204.507 489.636 206.296C490.528 208.085 491.608 210.205 492.035 211.007C493.116 213.042 493.031 228.446 491.938 228.446C491.458 228.446 491.066 229.001 491.066 229.68C491.066 234.37 479.683 247.525 470.131 253.875C467.972 255.31 466.075 256.789 465.916 257.163C465.755 257.536 465.069 257.841 464.389 257.841C463.71 257.841 463.153 258.219 463.153 258.681C463.153 259.143 462.368 259.521 461.409 259.521C460.449 259.521 459.664 259.899 459.664 260.361C459.664 260.823 459.075 261.201 458.356 261.201C457.636 261.201 457.047 261.579 457.047 262.041C457.047 262.503 456.262 262.881 455.303 262.881C454.343 262.881 453.558 263.179 453.558 263.543C453.558 264.167 445.588 268.26 441.783 269.591C440.823 269.926 438.333 271.011 436.248 272C434.165 272.989 432.079 273.799 431.615 273.799C430.868 273.799 423.482 276.886 419.335 278.931C418.502 279.342 416.637 279.678 415.191 279.678C413.745 279.678 412.562 280.056 412.562 280.518C412.562 280.98 411.408 281.358 409.997 281.358C408.586 281.358 407.189 281.736 406.893 282.198C406.137 283.374 400.046 283.248 398.781 282.03C398.205 281.475 397.734 280.175 397.734 279.14C397.734 278.104 397.341 277.024 396.862 276.739C396.382 276.453 395.989 275.319 395.989 274.219C395.989 273.119 395.597 271.985 395.117 271.699C394.637 271.414 394.245 269.926 394.245 268.393C394.245 266.86 393.656 265.136 392.936 264.56C392.217 263.985 391.628 262.616 391.628 261.518C391.628 260.42 391.235 259.521 390.756 259.521C390.276 259.521 389.883 258.76 389.883 257.83C389.883 256.9 389.537 255.482 389.113 254.68C388.689 253.878 387.858 252.088 387.267 250.702C386.675 249.317 385.844 247.527 385.42 246.725C384.996 245.923 384.65 244.689 384.65 243.983C384.65 243.278 384.29 242.044 383.851 241.242C383.411 240.44 382.385 238.272 381.569 236.425C380.753 234.577 378.599 230.115 376.782 226.512L373.479 219.957L377.319 212.414C379.432 208.266 381.161 204.318 381.161 203.641C381.161 202.964 381.553 202.41 382.033 202.41C382.513 202.41 382.905 201.676 382.905 200.779C382.905 199.883 383.298 198.916 383.778 198.63C384.257 198.345 384.65 197.211 384.65 196.111C384.65 195.01 385.042 193.877 385.522 193.591C386.002 193.305 386.394 192.15 386.394 191.022C386.394 189.894 386.787 188.972 387.267 188.972C387.746 188.972 388.139 188.238 388.139 187.342C388.139 186.445 388.531 185.478 389.011 185.192C389.491 184.907 389.883 183.797 389.883 182.726C389.883 181.655 390.49 180.294 391.232 179.701C391.973 179.109 392.409 178.196 392.201 177.674C391.993 177.15 392.367 176.006 393.033 175.128C393.7 174.25 394.245 172.493 394.245 171.223C394.245 169.953 394.637 168.68 395.117 168.395C395.597 168.109 395.989 166.975 395.989 165.875C395.989 164.775 396.382 163.641 396.862 163.356C397.341 163.07 397.734 161.919 397.734 160.796ZM147.198 249.443C147.698 248.288 148.327 246.681 148.596 245.873C148.864 245.065 149.428 244.403 149.848 244.403C150.987 244.403 153.087 246.987 154.458 250.073C155.125 251.574 155.966 252.802 156.329 252.802C156.692 252.802 156.989 253.512 156.989 254.379C156.989 255.246 157.577 256.426 158.297 257.002C159.017 257.577 159.605 258.536 159.605 259.134C159.605 259.732 159.899 260.347 160.26 260.501C160.62 260.655 161.741 262.293 162.751 264.14C167.542 272.902 170.374 277.652 171.272 278.429C172.533 279.522 175.272 283.867 175.898 285.767C176.164 286.575 176.729 287.237 177.153 287.237C177.576 287.237 177.923 287.82 177.923 288.532C177.923 289.244 178.708 290.638 179.667 291.63C180.627 292.621 181.412 294.306 181.412 295.375C181.412 297.027 180.965 297.315 178.411 297.315C176.759 297.315 175.167 296.938 174.87 296.476C174.573 296.014 171.826 295.636 168.764 295.636C165.703 295.636 162.955 295.258 162.658 294.796C162.362 294.334 159.984 293.956 157.373 293.956C154.763 293.956 152.627 293.578 152.627 293.116C152.627 292.654 150.688 292.276 148.317 292.276C145.947 292.276 143.765 291.898 143.468 291.436C143.172 290.974 141.666 290.596 140.122 290.596C136.187 290.596 133.437 288.525 133.437 285.559C133.437 284.227 133.83 282.903 134.31 282.618C134.789 282.332 135.182 281.176 135.182 280.049C135.182 278.921 135.574 277.998 136.054 277.998C136.534 277.998 136.926 276.865 136.926 275.479C136.926 274.093 137.319 272.959 137.799 272.959C138.279 272.959 138.671 272.166 138.671 271.196C138.671 270.227 139.3 268.053 140.068 266.367C140.837 264.681 141.766 262.545 142.132 261.621C142.499 260.697 143.191 258.996 143.671 257.841L145.415 253.642C145.895 252.487 146.698 250.597 147.198 249.443ZM355.291 255.26C356.846 252.753 358.808 249.286 359.65 247.553C360.492 245.821 361.456 244.415 361.794 244.43C363.134 244.488 365.46 246.764 365.46 248.016C365.46 248.746 365.775 249.531 366.16 249.76C366.544 249.989 367.4 252.09 368.062 254.429C368.723 256.767 369.586 258.681 369.979 258.681C370.372 258.681 370.694 259.596 370.694 260.713C370.694 261.83 371.349 264.004 372.149 265.542C374.851 270.733 375.055 271.253 375.055 272.947C375.055 273.878 375.447 274.639 375.927 274.639C376.407 274.639 376.799 275.561 376.799 276.689C376.799 277.817 377.192 278.973 377.672 279.258C378.151 279.544 378.544 280.678 378.544 281.778C378.544 282.878 378.936 284.012 379.416 284.297C381.001 285.241 380.323 287.862 378.138 289.24C376.956 289.986 374.624 290.596 372.956 290.596C371.288 290.596 369.682 290.974 369.385 291.436C369.089 291.898 367.126 292.276 365.024 292.276C362.922 292.276 360.959 292.654 360.663 293.116C360.366 293.578 358.067 293.956 355.552 293.956C353.037 293.956 350.608 294.302 350.152 294.725C349.418 295.406 344.645 296.021 334.931 296.686C332.13 296.878 331.903 296.722 332.179 294.796C332.344 293.641 332.835 292.57 333.269 292.417C333.703 292.262 334.058 291.835 334.058 291.468C334.058 290.691 338.83 282.973 341.691 279.121C342.77 277.668 343.653 275.947 343.653 275.297C343.653 274.647 344.438 273.304 345.398 272.312C346.357 271.321 347.142 269.927 347.142 269.215C347.142 268.503 347.535 267.92 348.015 267.92C348.494 267.92 348.887 267.353 348.887 266.66C348.887 265.967 349.279 265.4 349.759 265.4C350.239 265.4 350.631 264.88 350.631 264.243C350.631 263.607 351.216 262.619 351.93 262.048C352.645 261.477 353.057 260.742 352.846 260.414C352.636 260.086 353.736 257.767 355.291 255.26ZM124.118 319.572C124.738 314.986 126.037 309.572 126.802 308.379C127.575 307.176 130.516 307.08 131.257 308.234C131.553 308.696 133.32 309.074 135.182 309.074C137.044 309.074 138.811 309.452 139.107 309.914C139.404 310.376 142.151 310.753 145.213 310.753C148.275 310.753 151.022 311.131 151.319 311.593C151.615 312.055 153.915 312.433 156.429 312.433C158.944 312.433 161.373 312.779 161.83 313.203C162.285 313.625 165.013 314.183 167.892 314.441C170.77 314.698 176.462 315.306 180.54 315.793C184.618 316.279 190.13 316.885 192.791 317.141C196.896 317.535 197.884 317.974 199.333 320.056C200.27 321.404 201.332 322.508 201.692 322.509C202.052 322.511 202.346 323.032 202.346 323.669C202.346 324.305 202.987 325.338 203.771 325.964C204.553 326.589 206.026 328.288 207.042 329.739C210.589 334.803 219.967 346.475 223.166 349.808C224.941 351.655 227.297 354.406 228.403 355.92C229.508 357.435 232.929 361.157 236.005 364.193C239.082 367.228 241.598 370.259 241.598 370.928C241.598 372.638 233.75 379.984 221.991 389.282C213.066 396.337 210.598 398.084 209.543 398.092C208.943 398.097 208.452 398.425 208.452 398.821C208.452 399.668 199.294 405.659 197.998 405.659C197.511 405.659 197.113 405.948 197.113 406.301C197.113 406.654 195.641 407.6 193.842 408.405C190.574 409.865 189.134 410.662 184.77 413.428C183.495 414.236 181.819 414.898 181.047 414.898C180.275 414.898 178.864 415.276 177.911 415.738C176.958 416.2 175.399 416.956 174.446 417.418C173.493 417.879 171.805 418.257 170.695 418.257C169.585 418.257 168.304 418.597 167.848 419.012C165.167 421.451 142.16 421.449 142.16 419.009C142.16 418.596 141.375 418.257 140.416 418.257C139.456 418.257 138.671 417.879 138.671 417.418C138.671 416.956 138.172 416.578 137.561 416.578C135.907 416.578 129.948 411.6 129.948 410.217C129.948 409.558 129.601 409.019 129.178 409.019C128.754 409.019 128.17 408.357 127.879 407.549C127.59 406.741 126.591 404.945 125.661 403.56C124.731 402.174 123.941 400.378 123.906 399.57C123.871 398.762 123.45 398.1 122.97 398.1C122.491 398.1 122.098 396.989 122.098 395.63C122.098 394.271 121.705 392.927 121.226 392.641C120.746 392.356 120.353 390.655 120.353 388.862C120.353 387.069 119.961 385.368 119.481 385.082C118.94 384.76 118.609 377.111 118.609 364.925C118.609 352.74 118.94 345.091 119.481 344.768C119.961 344.483 120.353 341.837 120.353 338.889C120.353 335.941 120.746 333.296 121.226 333.01C121.705 332.725 122.098 330.7 122.098 328.509C122.098 326.319 122.45 324.168 122.881 323.73C123.311 323.291 123.869 321.42 124.118 319.572ZM377.672 309.074C379.534 309.074 381.3 308.696 381.597 308.234C383.646 305.042 388.139 310.033 388.139 315.502C388.139 317.047 388.531 318.312 389.011 318.312C389.491 318.312 389.883 320.202 389.883 322.512C389.883 324.821 390.246 326.711 390.689 326.711C391.132 326.711 391.712 329.641 391.977 333.22C392.242 336.8 392.887 343.698 393.411 348.548C394.963 362.926 394.385 386.462 392.432 388.4C391.99 388.839 391.628 390.639 391.628 392.401C391.628 394.162 391.282 396.26 390.858 397.062C390.434 397.864 389.561 399.654 388.919 401.04C385.329 408.784 376.032 418.257 372.02 418.257C371.291 418.257 370.694 418.635 370.694 419.097C370.694 419.559 369.343 419.937 367.692 419.937C366.041 419.937 364.448 420.315 364.152 420.777C363.855 421.239 361.5 421.617 358.918 421.617C356.336 421.617 353.981 421.239 353.684 420.777C353.388 420.315 351.425 419.937 349.323 419.937C347.221 419.937 345.258 419.559 344.962 419.097C344.665 418.635 343.269 418.257 341.857 418.257C340.446 418.257 339.292 417.879 339.292 417.418C339.292 416.956 338.334 416.578 337.163 416.578C335.991 416.578 334.791 416.2 334.495 415.738C334.198 415.276 333.095 414.87 332.044 414.837C330.993 414.803 328.956 414.058 327.516 413.182C326.077 412.306 323.722 410.958 322.283 410.187C320.844 409.415 319.47 408.548 319.23 408.26C318.99 407.972 317.002 406.868 314.812 405.805C312.622 404.744 308.893 402.394 306.525 400.583C304.158 398.773 301.436 396.935 300.476 396.498C299.517 396.062 297.014 394.166 294.915 392.283C292.815 390.401 290.832 388.862 290.509 388.862C290.186 388.862 287.317 386.5 284.135 383.613C280.952 380.726 276.754 377.051 274.805 375.446C272.105 373.222 271.393 372.123 271.813 370.826C272.115 369.891 272.604 368.936 272.9 368.705C273.194 368.474 275.399 366.026 277.797 363.264C283.433 356.777 286.002 353.947 288.752 351.198C289.98 349.971 291.924 347.645 293.072 346.028C294.219 344.411 295.4 342.9 295.696 342.669C296.238 342.245 301.246 336.107 305.274 330.928C306.473 329.386 307.945 327.645 308.545 327.058C309.145 326.471 309.635 325.618 309.635 325.162C309.635 324.705 309.987 324.206 310.415 324.051C310.844 323.898 311.955 322.449 312.884 320.832C314.455 318.097 314.963 317.846 320.172 317.224C323.252 316.856 328.716 316.355 332.314 316.111C335.912 315.867 339.229 315.317 339.685 314.89C340.14 314.462 342.766 314.113 345.521 314.113C348.275 314.113 350.771 313.735 351.068 313.273C351.364 312.811 353.719 312.433 356.301 312.433C358.883 312.433 361.238 312.055 361.535 311.593C361.831 311.131 364.579 310.753 367.641 310.753C370.702 310.753 373.45 310.376 373.746 309.914C374.043 309.452 375.809 309.074 377.672 309.074ZM226.096 320.395C226.706 320.176 239.963 319.9 255.555 319.781C271.146 319.663 284.426 319.662 285.065 319.78C285.704 319.896 286.613 319.992 287.086 319.992C288.433 319.992 286.973 323.415 284.604 325.81C283.429 326.998 281.272 329.615 279.813 331.623C278.354 333.631 275.537 337.002 273.554 339.114C267.409 345.657 265.715 347.529 261.66 352.263C259.502 354.784 257.057 356.868 256.229 356.896C255.4 356.924 254.03 355.907 253.184 354.637C252.338 353.367 250.397 351.004 248.87 349.388C245.856 346.194 243.969 344.051 240.965 340.406C239.897 339.11 237.934 336.867 236.604 335.421C235.273 333.976 233.007 331.358 231.567 329.604C230.128 327.849 228.558 325.994 228.078 325.48C227.598 324.967 226.706 323.702 226.096 322.67C225.197 321.151 225.197 320.718 226.096 320.395Z" fill="#61DAFB"/>
<path fill-rule="evenodd" clip-rule="evenodd" d="M4.27388 505.357V571.32H13.8575H23.4402L23.6704 543.55L23.8999 515.779L37.529 515.748C45.8521 515.729 51.8577 516.078 52.9541 516.643C53.9424 517.152 55.4907 517.568 56.3952 517.568C58.8053 517.568 64.9007 522.925 68.1743 527.919L68.2291 528.003C69.3806 529.76 70.2217 531.043 71.0268 532.347C73.2078 535.88 75.1242 539.565 82.2314 553.229L82.3582 553.473L91.6417 571.32H101.166C108.735 571.32 110.69 571.079 110.69 570.148C110.69 569.053 93.3356 535.494 88.9281 528.067C84.319 520.299 78.0963 513.336 73.837 511.18C71.2874 509.89 70.6367 508.33 72.6473 508.33C73.3119 508.33 76.2288 506.804 79.1273 504.94C88.6333 498.828 93.2449 489.131 93.2449 475.252C93.2449 468.725 92.8786 466.716 90.8462 462.111C89.5265 459.121 87.5804 455.333 86.5215 453.693C83.7634 449.428 74.0394 442.82 70.5181 442.82C69.6414 442.82 68.7072 442.482 68.4421 442.069C67.4887 440.583 60.091 440.108 32.4044 439.754L4.27388 439.394V505.357ZM23.667 478.108C23.5387 465.873 23.5867 455.48 23.7742 455.011C24.2435 453.833 52.2781 454.197 56.4257 455.435C64.5352 457.857 70.7789 462.827 71.9398 467.785C72.2399 469.066 72.8714 471.594 73.3425 473.402C74.5453 478.019 72.7694 486.378 69.6083 490.973C67.0194 494.736 63.5303 496.79 55.2613 499.418C51.7591 500.531 48.1043 500.769 37.3798 500.584L23.8999 500.351L23.667 478.108Z" fill="white"/>
<path fill-rule="evenodd" clip-rule="evenodd" d="M155.612 470.752C151.62 471.719 143.761 475.167 139.911 477.642C134.675 481.008 128.132 488.365 125.07 494.332C120.181 503.855 119.086 508.878 119.084 521.768C119.082 534.345 119.904 538.464 124.228 547.546C127.926 555.315 136.699 564.005 144.272 567.401C147.151 568.691 150.187 570.102 151.02 570.534C151.853 570.967 153.498 571.32 154.676 571.32C155.854 571.32 157.06 571.698 157.356 572.16C158.048 573.239 184.19 573.281 187.824 572.211C189.297 571.776 192.858 570.96 195.736 570.396C198.615 569.832 201.342 569.053 201.798 568.665C202.254 568.278 203.431 567.952 204.415 567.942C205.398 567.932 207.104 567.256 208.206 566.44C210.043 565.078 210.187 564.404 209.951 558.269C209.711 552.063 209.552 551.564 207.73 551.314C206.65 551.167 205.767 551.451 205.767 551.944C205.767 552.439 205.061 552.843 204.197 552.843C203.334 552.843 202.254 553.176 201.798 553.581C200.875 554.404 194.724 556.436 192.667 556.598C191.94 556.655 190.874 556.982 190.3 557.323C189.24 557.954 177.839 559.069 173.057 559.01C167.378 558.94 160.109 557.929 159.236 557.089C158.73 556.601 157.413 556.203 156.31 556.203C155.206 556.203 154.303 555.866 154.303 555.453C154.303 555.042 153.364 554.478 152.217 554.2C151.069 553.923 148.223 551.672 145.893 549.199C141.26 544.281 138.249 537.651 137.346 530.376L136.798 525.967H174.741H212.684L213.709 524.122C214.953 521.884 213.328 505.091 211.288 499.091C206.381 484.666 195.528 474.368 181.53 470.857C176.244 469.532 160.911 469.47 155.612 470.752ZM142.792 495.985C146.866 490.529 153.848 486.035 160.328 484.701C166.155 483.501 178.095 484.503 181.854 486.507C190.021 490.861 195.232 498.696 195.866 507.577L196.22 512.529H166.976H137.73V509.788C137.73 506.458 140.393 499.201 142.792 495.985Z" fill="white"/>
<path fill-rule="evenodd" clip-rule="evenodd" d="M257.498 472.123C252.607 473.354 248.322 474.634 247.975 474.968C247.629 475.302 246.471 475.575 245.403 475.575C242.843 475.575 242.402 476.944 242.402 484.898V491.564L244.801 490.998C246.12 490.687 247.331 490.113 247.49 489.722C247.651 489.332 248.446 489.013 249.259 489.013C250.072 489.013 251.511 488.513 252.457 487.902C255.894 485.683 264.559 484.392 275.548 484.462C284.524 484.519 287.147 484.833 290.384 486.235C295.538 488.468 299.293 491.577 301.013 495.034C304.161 501.361 304.454 502.278 304.181 504.95L303.897 507.74L296.047 507.574C291.729 507.483 283.682 507.856 278.165 508.402C272.648 508.949 266.76 509.495 265.081 509.615C262.033 509.833 256.052 511.704 254.921 512.794C254.592 513.11 253.702 513.378 252.942 513.39C250.954 513.419 243.841 518.646 241.13 522.068C233.996 531.073 232.982 545.261 238.589 557.601C241.142 563.22 247.763 568.282 257.49 572.054C260.533 573.234 281.344 573.324 282.09 572.16C282.387 571.698 283.293 571.326 284.104 571.334C287.034 571.36 294.981 566.608 299.224 562.292C301.609 559.866 303.734 557.882 303.947 557.882C304.159 557.882 304.333 560.906 304.333 564.601V571.32H312.526C319.193 571.32 320.818 571.073 321.249 569.992C321.54 569.261 321.778 554.525 321.778 537.246C321.778 508.006 321.652 505.377 319.954 499.31C317.286 489.781 314.334 484.499 309.103 479.896C300.808 472.596 293.612 470.344 277.729 470.076C267.851 469.91 265.243 470.173 257.498 472.123ZM254.125 531.968C257.349 525.874 261.694 523.827 274.676 522.285C279.234 521.744 287.771 521.193 293.648 521.062L304.333 520.823V525.874C304.333 535.435 300.409 545.703 294.627 551.271C288.961 556.726 282.62 559.007 273.368 558.918C264.534 558.833 261.416 557.805 257.104 553.559C251.711 548.246 250.428 538.954 254.125 531.968Z" fill="white"/>
<path d="M385.715 470.9C383.22 471.393 380.688 472.268 380.088 472.845C379.489 473.423 378.526 473.895 377.948 473.895C375.568 473.895 368.985 477.973 363.962 482.56C360.06 486.123 357.649 489.313 355.076 494.32C350.302 503.612 349.454 507.575 349.253 521.502C349.078 533.662 349.844 537.496 354.687 548.671C356.631 553.154 367.729 565.441 369.836 565.441C370.201 565.441 371.02 565.914 371.654 566.491C372.287 567.069 373.983 568.057 375.423 568.689C376.862 569.32 378.721 570.17 379.554 570.579C380.387 570.987 382.032 571.32 383.209 571.32C384.387 571.32 385.593 571.698 385.89 572.16C386.213 572.663 391.988 573 400.282 573C408.577 573 414.352 572.663 414.675 572.16C414.971 571.698 416.074 571.314 417.125 571.308C419.211 571.294 425.186 569.458 426.143 568.536C426.472 568.219 427.453 567.961 428.324 567.961C430.385 567.961 430.963 565.545 430.638 558.285C430.382 552.568 430.321 552.431 428.195 552.72C426.995 552.883 425.818 553.286 425.578 553.617C424.632 554.92 417.619 556.982 409.805 558.254C400.001 559.848 391.232 559.101 385.085 556.145C376.796 552.159 369.9 542.98 367.945 533.329C366.958 528.457 366.71 513.873 367.591 512.5C367.897 512.023 368.315 510.328 368.521 508.732C369.093 504.292 372.761 497.355 376.457 493.725C384.281 486.039 388.723 484.437 402.102 484.471C412.285 484.497 416.136 485.296 425.806 489.391C427.61 490.155 429.474 490.549 429.949 490.267C430.423 489.984 430.812 486.742 430.812 483.063C430.812 476.771 430.687 476.327 428.715 475.606C427.563 475.183 426.358 474.431 426.039 473.933C425.719 473.435 425.075 473.256 424.607 473.534C424.14 473.812 422.781 473.424 421.59 472.673C420.398 471.92 419.083 471.508 418.668 471.755C418.253 472.002 416.226 471.631 414.164 470.93C409.821 469.454 393.131 469.438 385.715 470.9Z" fill="white"/>
<path fill-rule="evenodd" clip-rule="evenodd" d="M247.704 177.633C246.505 178.294 244.663 178.847 243.612 178.864C242.561 178.88 241.459 179.271 241.162 179.733C240.866 180.195 239.939 180.573 239.104 180.573C237.196 180.573 232.891 182.461 232.883 183.303C232.879 183.649 232.486 183.932 232.01 183.932C229.734 183.932 217.178 196.529 217.176 198.815C217.176 199.378 216.39 201.185 215.43 202.83C214.471 204.474 213.686 206.732 213.686 207.845C213.686 208.958 213.293 210.103 212.814 210.389C212.322 210.681 211.941 214.72 211.941 219.627C211.941 224.535 212.322 228.573 212.814 228.866C213.293 229.151 213.686 230.443 213.686 231.737C213.686 235.414 218.864 244.345 224.075 249.653C226.682 252.309 229.157 254.482 229.575 254.482C229.993 254.482 231.394 255.427 232.686 256.582C233.98 257.736 235.73 258.681 236.574 258.681C237.418 258.681 238.109 259.059 238.109 259.521C238.109 259.983 238.816 260.361 239.679 260.361C240.543 260.361 241.699 260.794 242.247 261.322C243.62 262.644 270.617 262.624 271.075 261.302C271.254 260.784 271.934 260.361 272.586 260.361C273.927 260.361 278.918 257.702 283.467 254.564C287.626 251.695 292.353 246.888 293.932 243.92C294.652 242.569 295.437 241.275 295.677 241.044C296.854 239.914 298.296 236.684 298.296 235.177C298.296 234.246 298.649 233.485 299.08 233.485C300.62 233.485 302.399 215.263 300.991 213.908C300.468 213.404 300.04 211.579 300.04 209.85C300.04 208.122 299.648 206.475 299.168 206.189C298.688 205.904 298.296 204.748 298.296 203.62C298.296 202.492 297.948 201.57 297.525 201.57C297.101 201.57 296.537 200.908 296.27 200.1C295.046 196.384 286.043 185.695 284.085 185.634C283.705 185.622 282.551 184.856 281.522 183.932C280.492 183.009 279.134 182.253 278.505 182.253C277.876 182.253 277.361 181.875 277.361 181.413C277.361 180.951 276.571 180.573 275.604 180.573C274.639 180.573 273.166 180.248 272.333 179.852C265.195 176.451 252.011 175.263 247.704 177.633Z" fill="#61DAFB"/>
<path d="M459.969 444.751C458.974 445.287 458.724 448.026 458.724 458.361V471.299L452.836 471.547L446.948 471.795V478.094V484.393L452.735 484.639L458.522 484.885L458.906 518.234L459.292 551.583L461.684 556.325C466.141 565.161 470.748 568.232 482.764 570.377C485.671 570.896 493.242 571.32 499.589 571.32H511.128L510.876 563.971L510.624 556.622L497.747 556.51C490.3 556.445 483.849 555.99 482.447 555.431C481.113 554.899 479.254 553.091 478.314 551.412C476.704 548.535 476.605 546.538 476.605 516.796V485.233L493.833 485.006L511.06 484.778V478.077V471.375H493.615H476.169V458.407C476.169 449.667 475.848 445.247 475.183 444.851C473.791 444.022 461.47 443.942 459.969 444.751Z" fill="white"/>
</svg>
