<svg width="800" height="512" viewBox="0 0 800 512" fill="none" xmlns="http://www.w3.org/2000/svg">
<path fill-rule="evenodd" clip-rule="evenodd" d="M378.644 0.497421C336.378 3.8295 300.739 17.1625 272.273 40.2909C257.671 52.1562 238.59 75.2819 228.647 93.1645C222.569 104.099 214.847 121.398 210.497 133.83C206.147 146.259 200.168 166.713 200.546 167.87C200.68 168.282 203.017 165.601 205.739 161.913C211.359 154.299 227.183 137.348 234.352 131.263C251.067 117.075 270.954 107.18 290.144 103.502C293.82 102.797 302.217 102.28 309.323 102.32C339.981 102.492 363.138 112.095 387.78 134.856C390.897 137.735 404.039 151.25 416.984 164.889C450.021 199.697 461.902 210.377 482.047 223.38C508.107 240.201 533.781 249.235 569.977 254.322C580.738 255.835 619.209 255.842 630.563 254.335C663.482 249.963 686.274 242.429 709.627 228.201C722.731 220.217 731.602 212.92 743.562 200.288C763.267 179.477 776.788 157.078 788.201 126.34C792.847 113.83 800.621 88.047 799.96 87.3424C799.786 87.1575 797.212 90.233 794.24 94.1767C786.346 104.649 771.986 119.529 762.405 127.166C738.928 145.875 711.948 155.189 686.355 153.416C657.467 151.416 637.267 142.741 614.872 122.721C611.036 119.292 597.11 105.114 583.925 91.2145C570.739 77.3146 557.009 63.2009 553.413 59.8502C516.749 25.6855 480.395 8.05106 433.86 1.85721C421.056 0.152595 392.067 -0.561223 378.644 0.497421ZM182.483 256.686C144.155 259.673 116.901 267.723 90.343 283.904C77.2423 291.886 68.3688 299.189 56.424 311.819C36.6466 332.732 23.1806 355.031 11.7685 385.765C7.00789 398.585 -0.645217 424.064 0.0434675 424.799C0.236125 425.003 1.93866 422.991 3.82687 420.325C9.33024 412.559 26.706 393.873 34.285 387.571C51.856 372.961 70.4549 363.707 89.6413 360.03C98.6465 358.304 119.405 358.571 129.742 360.544C149.334 364.285 165.631 372.524 182.919 387.427C186.515 390.526 200.833 405.004 214.738 419.601C228.642 434.197 242.961 448.887 246.557 452.244C283.174 486.426 319.673 504.115 366.423 510.334C381.208 512.302 415.721 512.588 430.06 510.862C467.669 506.336 499.609 493.838 525.588 473.484C534.897 466.19 554.012 445.673 560.828 435.658C576 413.367 587.555 387.597 596.522 356.053C598.254 349.966 599.56 344.648 599.424 344.235C599.29 343.823 596.95 346.504 594.225 350.192C584.306 363.618 568.258 379.575 555.336 388.863C542.765 397.899 524.465 405.826 509.826 408.58C506.23 409.257 497.599 409.798 490.647 409.783C460.227 409.721 436.895 400.048 412.189 377.255C409.073 374.379 395.931 360.858 382.986 347.208C370.04 333.557 355.918 319.126 351.603 315.138C312.472 278.973 272.452 261.203 220.84 257.073C211.645 256.338 189.786 256.118 182.483 256.686Z" fill="#06B6D4"/>
</svg>
