<svg width="901" height="900" viewBox="0 0 901 900" fill="none" xmlns="http://www.w3.org/2000/svg">
<path fill-rule="evenodd" clip-rule="evenodd" d="M422.205 0.53127C342.234 5.80127 267.654 30.7433 201.716 74.2693C159.311 102.261 120.502 138.871 89.594 180.036C40.295 245.697 11.161 320.538 2.005 405.036C-0.383 427.08 -0.383 471.992 2.005 494.036C11.72 583.694 44.149 662.924 99.101 731.258C217.58 878.589 414.95 936.064 594.098 875.404C697.152 840.509 783.659 769.59 839.119 674.536C864.94 630.279 884.942 574.746 892.966 525.036C896.173 505.169 898.598 482.146 898.598 471.564C898.598 466.879 899.014 463.536 899.598 463.536C900.22 463.536 900.598 457.85 900.598 448.477C900.598 438.692 900.248 433.634 899.598 434.036C898.965 434.427 898.598 431.87 898.598 427.067C898.598 407.575 892.725 367.322 885.972 340.536C865.828 260.625 825.931 190.19 767.774 131.863C693.759 57.6333 599.661 12.9643 494.325 2.05527C476.096 0.16727 439.466 -0.60673 422.205 0.53127ZM427.598 84.1543C347.894 89.9243 275.028 119.065 215.331 169.044C200.213 181.701 175.962 206.388 164.26 221.036C116.356 280.994 89.25 351.676 84.399 429.287C82.444 460.561 84.981 492.548 92.111 526.536C112.068 621.668 172.105 706.926 256.347 759.768C302.373 788.639 352.261 806.069 409.098 813.139C426.319 815.281 468.629 815.608 485.442 813.729C551.533 806.344 608.942 784.608 662.607 746.653C685.396 730.535 716.777 700.765 734.936 678.036C778.321 623.734 805.044 559.581 813.039 490.536C824.447 392.016 794.256 291.841 730.079 215.269C717.333 200.06 692.65 175.78 678.098 164.135C623.543 120.477 558.647 93.7683 487.098 85.5253C477.537 84.4243 436.829 83.4863 427.598 84.1543ZM371.598 253.629C358.813 255.818 347.865 264.171 341.864 276.313C338.229 283.668 338.098 284.299 338.098 294.484C338.098 303.941 338.387 305.654 340.888 310.994C342.422 314.271 344.815 318.442 346.204 320.264C347.594 322.086 376.488 349.073 410.414 380.234C444.34 411.396 475.212 439.757 479.018 443.258C484.88 448.652 485.721 449.824 484.518 450.928C483.737 451.645 455.648 477.338 422.098 508.023C388.548 538.708 357.592 567.239 353.306 571.425C340.959 583.485 337.008 592.546 337.82 606.945C339.776 641.657 380.69 658.361 407.211 635.275C420.767 623.476 578.505 478.448 581.008 475.483C582.608 473.587 585.083 469.561 586.508 466.536C588.827 461.612 589.098 459.829 589.098 449.515C589.098 438.568 588.938 437.669 585.889 431.476C583.602 426.831 580.298 422.631 574.389 416.858C556.599 399.48 406.807 263.065 401.968 259.836C393.392 254.112 382.17 251.819 371.598 253.629ZM0 449.536C0 458.061 0.154 461.548 0.341 457.286C0.529 453.024 0.529 446.048 0.341 441.786C0.154 437.524 0 441.011 0 449.536Z" fill="white"/>
</svg>
