<svg width="67" height="70" viewBox="0 0 67 70" fill="none" xmlns="http://www.w3.org/2000/svg">
<path d="M19.43 0H47.57C58.29 0 67 9.1 67 20.3V49.7C67 55.0839 64.9529 60.2473 61.3091 64.0543C57.6653 67.8613 52.7232 70 47.57 70H19.43C8.71 70 0 60.9 0 49.7V20.3C0 14.9161 2.04708 9.75272 5.69092 5.94573C9.33475 2.13874 14.2768 0 19.43 0ZM18.76 7C15.5615 7 12.494 8.3275 10.2323 10.6905C7.9706 13.0534 6.7 16.2583 6.7 19.6V50.4C6.7 57.365 12.0935 63 18.76 63H48.24C51.4385 63 54.506 61.6725 56.7677 59.3095C59.0294 56.9466 60.3 53.7417 60.3 50.4V19.6C60.3 12.635 54.9065 7 48.24 7H18.76ZM51.0875 12.25C52.1981 12.25 53.2632 12.7109 54.0485 13.5314C54.8338 14.3519 55.275 15.4647 55.275 16.625C55.275 17.7853 54.8338 18.8981 54.0485 19.7186C53.2632 20.5391 52.1981 21 51.0875 21C49.9769 21 48.9118 20.5391 48.1265 19.7186C47.3412 18.8981 46.9 17.7853 46.9 16.625C46.9 15.4647 47.3412 14.3519 48.1265 13.5314C48.9118 12.7109 49.9769 12.25 51.0875 12.25ZM33.5 17.5C37.9424 17.5 42.2028 19.3437 45.344 22.6256C48.4853 25.9075 50.25 30.3587 50.25 35C50.25 39.6413 48.4853 44.0925 45.344 47.3744C42.2028 50.6563 37.9424 52.5 33.5 52.5C29.0576 52.5 24.7972 50.6563 21.656 47.3744C18.5147 44.0925 16.75 39.6413 16.75 35C16.75 30.3587 18.5147 25.9075 21.656 22.6256C24.7972 19.3437 29.0576 17.5 33.5 17.5ZM33.5 24.5C30.8346 24.5 28.2783 25.6062 26.3936 27.5754C24.5088 29.5445 23.45 32.2152 23.45 35C23.45 37.7848 24.5088 40.4555 26.3936 42.4246C28.2783 44.3938 30.8346 45.5 33.5 45.5C36.1654 45.5 38.7217 44.3938 40.6064 42.4246C42.4912 40.4555 43.55 37.7848 43.55 35C43.55 32.2152 42.4912 29.5445 40.6064 27.5754C38.7217 25.6062 36.1654 24.5 33.5 24.5Z" fill="#D9D9D9"/>
</svg>
