<svg width="464" height="464" viewBox="0 0 464 464" fill="none" xmlns="http://www.w3.org/2000/svg">
<path d="M99.6108 191.212C99.3168 194.099 98.8708 235.275 98.6178 282.712L98.1588 368.962H126.58H155V322.626C155 297.141 155.298 255.966 155.663 231.126L156.326 185.962H128.235H100.144L99.6108 191.212Z" fill="white"/>
<path d="M119.951 96.3244C113.943 97.9444 109.134 101.008 104.206 106.354C99.0628 111.934 97.4418 115.12 96.1268 122.232C94.1408 132.976 97.5488 143.356 105.693 151.368C123.38 168.771 153.381 160.153 159.599 135.883C165.792 111.71 143.898 89.8654 119.951 96.3244Z" fill="white"/>
<path d="M289 182.579C273.586 185.56 258.398 194.849 250.922 205.867C249.04 208.641 247.163 210.922 246.75 210.936C246.337 210.95 246 205.337 246 198.462V185.962H219H192L191.999 213.712C191.999 228.974 191.7 270.15 191.335 305.212L190.672 368.962H218.675H246.678L247.337 341.212C247.7 325.95 248 303.337 248.006 290.962C248.019 259.655 249.974 249.817 257.996 240.704C263.903 233.993 270.26 231.557 282 231.504C290.288 231.467 292.138 231.79 296.5 234.032C302.416 237.073 307.271 243.04 309.703 250.256C311.277 254.928 311.488 261.281 311.767 312.212L312.078 368.962H340.039H368L368.25 327.212C368.644 261.366 368.377 246.536 366.604 235.744C363.803 218.698 358.028 206.155 349.032 197.573C342.743 191.575 334.394 186.948 325.437 184.498C319.575 182.894 294.264 181.561 289 182.579Z" fill="white"/>
<path d="M99.6108 191.212C99.3168 194.099 98.8708 235.275 98.6178 282.712L98.1588 368.962H126.58H155V322.626C155 297.141 155.298 255.966 155.663 231.126L156.326 185.962H128.235H100.144L99.6108 191.212Z" fill="white"/>
<path d="M119.951 96.3244C113.943 97.9444 109.134 101.008 104.206 106.354C99.0628 111.934 97.4418 115.12 96.1268 122.232C94.1408 132.976 97.5488 143.356 105.693 151.368C123.38 168.771 153.381 160.153 159.599 135.883C165.792 111.71 143.898 89.8654 119.951 96.3244Z" fill="white"/>
<path d="M289 182.579C273.586 185.56 258.398 194.849 250.922 205.867C249.04 208.641 247.163 210.922 246.75 210.936C246.337 210.95 246 205.337 246 198.462V185.962H219H192L191.999 213.712C191.999 228.974 191.7 270.15 191.335 305.212L190.672 368.962H218.675H246.678L247.337 341.212C247.7 325.95 248 303.337 248.006 290.962C248.019 259.655 249.974 249.817 257.996 240.704C263.903 233.993 270.26 231.557 282 231.504C290.288 231.467 292.138 231.79 296.5 234.032C302.416 237.073 307.271 243.04 309.703 250.256C311.277 254.928 311.488 261.281 311.767 312.212L312.078 368.962H340.039H368L368.25 327.212C368.644 261.366 368.377 246.536 366.604 235.744C363.803 218.698 358.028 206.155 349.032 197.573C342.743 191.575 334.394 186.948 325.437 184.498C319.575 182.894 294.264 181.561 289 182.579Z" fill="white"/>
<path d="M231.502 8C307.576 7.99331 353.812 8.05636 381.618 8.27734C395.532 8.38792 404.764 8.53737 410.789 8.73535C413.807 8.83452 415.942 8.94324 417.421 9.05762C418.89 9.17121 419.348 9.26664 419.295 9.25C436.422 13.8282 451.535 29.583 455.11 46.2539L455.103 46.2256C455.098 46.2527 455.184 46.9289 455.278 48.8145C455.373 50.7181 455.461 53.4132 455.539 57.0264C455.695 64.242 455.81 74.9172 455.886 89.8389C456.037 119.671 456.033 166.32 455.904 235.868L455.563 419.416L453.67 423.868C447.067 439.391 433.063 451.559 419.027 454.938C418.939 454.946 418.813 454.957 418.645 454.968C418.067 455.004 417.222 455.042 416.082 455.082C413.813 455.161 410.564 455.236 406.328 455.307C397.867 455.447 385.608 455.567 369.668 455.664C337.795 455.859 291.291 455.965 231.2 455.974L48.1729 455.999L41.708 453.741C26.6702 448.488 15.476 437.159 10.4092 422.066L8 414.891V232.264C8 149.691 8.04531 103.598 8.29004 77.4648C8.41259 64.3792 8.58428 56.4105 8.81836 51.4062C9.06193 46.1992 9.35868 44.8535 9.45508 44.5254C14.333 27.9214 25.9779 15.8054 42.7539 10.0664L48.7471 8.01465L231.502 8Z" stroke="white" stroke-width="16"/>
</svg>
