<svg width="68" height="70" viewBox="0 0 68 70" fill="none" xmlns="http://www.w3.org/2000/svg">
<path fill-rule="evenodd" clip-rule="evenodd" d="M31.1546 0.121357C28.4711 0.347427 24.8928 1.17924 22.2838 2.18346C20.5934 2.83391 17.7468 4.30238 16.1051 5.37051C13.8376 6.84595 12.3917 8.03723 10.3962 10.0746C7.65824 12.8697 5.68435 15.5945 4.10042 18.7657C-0.931494 28.84 -0.946214 40.5273 4.06028 50.5774L4.80906 52.0805L3.72394 56.1722C3.12709 58.4228 2.57383 60.4884 2.49454 60.7624C2.41511 61.0364 1.85574 63.1185 1.25152 65.3892C0.647306 67.6598 0.110717 69.6298 0.0591964 69.7668C-0.0509265 70.06 -0.0670357 70.0568 0.551764 69.8679C0.818531 69.7863 2.13042 69.4302 3.46704 69.0766C4.80365 68.7228 6.8346 68.1762 7.98027 67.8617C9.78293 67.3668 13.441 66.3814 16.9144 65.4551L17.9329 65.1833L19.4835 65.9523C24.2239 68.3033 28.8563 69.3682 34.2265 69.3414C35.6776 69.3341 37.4274 69.256 38.1148 69.1677C43.8783 68.4276 49.3021 66.2546 53.9089 62.84C56.5482 60.8837 59.0526 58.405 60.9734 55.8482C66.8955 47.9652 69.1928 38.1083 67.4119 28.2232C66.5696 23.5478 64.7557 19.0707 62.0805 15.0643C60.3558 12.4812 57.2874 9.14893 54.8485 7.21011C48.2068 1.9302 39.7418 -0.602409 31.1546 0.121357ZM30.5464 6.03648C22.8062 7.15615 16.0083 11.2737 11.497 17.5746C6.46008 24.6097 4.79198 33.3839 6.87946 41.8632C7.55644 44.613 8.53991 47.0137 10.0796 49.6746L10.9539 51.1857L10.5382 52.7353C10.3095 53.5877 9.96596 54.8615 9.77487 55.5662C9.40618 56.9248 8.532 60.185 8.29425 61.0878C8.21607 61.3842 8.18413 61.6596 8.22315 61.6994C8.26217 61.7394 9.25453 61.5121 10.4285 61.194C11.6024 60.8761 13.7815 60.291 15.2709 59.894C16.7603 59.4968 18.1492 59.1171 18.3577 59.0502C18.6776 58.9476 18.9467 59.0511 20.0935 59.7182C23.9567 61.9655 27.7564 63.1415 32.3129 63.5C38.8501 64.0145 45.6237 61.9497 51.0681 57.7832C52.5731 56.6314 55.5101 53.6472 56.5542 52.2089C61.0093 46.0717 62.9511 38.8914 62.1479 31.5247C61.2055 22.8817 56.7124 15.3926 49.502 10.4467C47.3755 8.98792 43.7934 7.39518 41.031 6.68024C37.9894 5.89298 33.4609 5.61495 30.5464 6.03648ZM20.8951 17.9585C20.0691 18.3695 19.5687 18.8277 18.6919 19.9758C18.3332 20.4456 17.9799 20.9066 17.9067 21.0001C17.8336 21.0938 17.6165 21.5347 17.4245 21.9798C16.2806 24.6316 16.2446 27.4032 17.3129 30.5817C18.0244 32.6985 20.0241 36.1475 22.4476 39.4381C25.3147 43.3305 28.8985 46.6468 32.3891 48.6373C33.4641 49.2503 36.8486 50.7915 38.38 51.3654C42.2099 52.8004 45.0341 52.7157 47.819 51.0822C48.9949 50.3925 50.241 49.2132 50.6558 48.3974C51.0368 47.6481 51.5156 45.6121 51.5156 44.7417C51.5156 44.2137 51.445 43.9422 51.2637 43.7741C50.6127 43.1702 43.4664 39.4082 42.9701 39.4082C42.5785 39.4082 42.3314 39.6314 41.1583 41.0453C40.6385 41.6717 39.8582 42.5629 39.4242 43.0256C38.6835 43.8155 38.5968 43.8664 38.0073 43.8573C37.2349 43.8453 36.5168 43.5267 34.6788 42.3808C30.9865 40.0787 28.6423 37.6832 26.2707 33.7887C25.1018 31.8694 25.1726 31.3864 26.8974 29.514C27.8181 28.5147 28.4634 27.4901 28.4634 27.028C28.4634 26.6798 26.0227 19.7006 25.6497 18.9823C25.4683 18.6329 25.3272 18.4923 24.7184 18.0531C24.3049 17.7547 24.0495 17.699 22.9131 17.6593C21.7411 17.6183 21.5098 17.6526 20.8951 17.9585Z" fill="#D9D9D9"/>
</svg>
