<svg width="364" height="335" viewBox="0 0 364 335" fill="none" xmlns="http://www.w3.org/2000/svg">
<path fill-rule="evenodd" clip-rule="evenodd" d="M188.071 7.62169C190.981 7.16815 194.232 2.89728 196.462 0.818542C196.84 6.48783 196.764 12.913 197.18 18.28L201.526 20.7367C203.114 17.2595 208.48 5.24059 211.428 3.46421C213.129 5.65634 213.432 13.0642 214.566 16.3524C218.156 26.6327 227.491 33.7382 237.696 38.9918C239.888 40.1256 244.802 42.5067 247.183 42.2422C247.674 40.4658 242.496 35.9681 241.022 34.1162C234.824 26.5193 230.062 19.9807 228.323 10.6075C236.789 21.228 249.299 32.4532 264.455 34.7965C275.605 36.4973 296.581 32.113 307.24 28.4847C303.309 34.4185 294.2 41.2973 287.737 45.2658C285.999 46.3241 280.821 48.2138 279.725 49.3855C280.707 50.7461 282.106 50.8595 283.844 51.2752C310.301 57.5115 337.514 58.8343 362.269 46.9288C355.542 61.8579 323.303 75.0863 306.408 77.165C302.137 78.3744 296.619 79.2815 292.386 77.5807L292.008 76.2957L291.592 77.0516C292.084 76.1067 292.046 76.1445 293.028 75.5776C295.447 74.8973 300.134 74.028 301.343 72.2894C301.986 69.1146 297.488 68.2453 294.691 67.9052C278.288 65.902 263.662 76.6359 287.813 81.587C289.06 81.8138 292.008 82.2674 293.028 82.8721C291.403 84.6107 287.435 85.2154 284.94 85.4044C269.671 86.3115 261.243 81.2091 249.866 73.1587C242.005 67.6028 234.408 55.7351 224.506 56.2642C221.028 56.4532 215.813 58.1162 212.638 59.439C210.597 60.2705 205.306 64.05 204.172 63.7855C204.285 60.1571 207.422 56.4532 208.594 53.1272C202.962 47.3067 198.162 42.0154 193.211 35.7036C189.583 31.0548 185.01 23.4957 181.154 19.376C175.561 27.5398 161.992 47.1178 154.017 53.0894C154.773 56.6044 157.608 59.4768 159.006 63.0296L158.666 63.4075C150.729 61.5556 142.868 51.9178 130.282 58.6831C125.217 61.4044 123.177 64.239 119.095 67.8296C104.506 80.5666 95.8127 86.1603 74.4962 85.102C69.3561 84.8374 71.9639 84.4217 74.7986 82.7965C77.9356 81.0201 75.7435 81.5115 79.5608 80.4532C83.8316 79.2815 87.8001 77.165 86.9687 72.6296C86.7797 71.7981 84.2852 71.0422 83.3403 70.6264C76.2726 67.6784 72.1151 69.6815 64.8962 69.8327C64.0269 73.3099 62.9309 74.4059 66.3702 75.9556C67.7687 76.5603 67.3151 76.2201 68.4868 76.6737C69.4694 77.0516 68.5246 79.7351 68.1844 79.8107C67.8442 79.8863 62.0238 79.6595 61.4568 79.5461C57.0726 78.9036 49.1734 76.6359 45.1293 74.9729C31.1072 70.513 7.48519 60.2327 0.757629 47.6847C4.00802 48.6296 7.71196 50.6327 10.2442 51.3508C19.1639 53.9209 34.0931 56.7178 43.0883 56.1886C53.9734 55.5839 73.2868 53.9587 82.7734 49.8768C83.0757 49.7256 83.3403 49.6122 83.6427 49.4611C71.6994 43.9807 62.9687 37.8201 54.7293 28.2957C63.0442 31.0926 70.8301 32.3398 79.3718 34.0406C104.846 39.1052 119.699 28.1823 134.288 10.8343C132.361 21.6815 126.843 28.1823 119.359 36.7996C118.074 38.2737 115.58 41.4863 114.295 42.6201C115.542 43.0737 116.638 42.6957 117.885 42.1666C138.219 33.5115 149.973 23.9115 149.898 3.23744C153.337 5.69413 152.808 5.54295 155.038 8.41539C156.89 10.8721 159.46 19.4138 161.728 20.2831C168.04 19.3004 165.696 6.14768 166.263 1.08311C168.153 2.85949 171.592 6.45004 173.784 7.50831L174.729 7.39492C175.788 7.50831 176.354 7.50831 188.071 7.62169Z" fill="#B8B8B8" stroke="white" stroke-width="0.755528"/>
<path fill-rule="evenodd" clip-rule="evenodd" d="M188.033 13.3288C190.943 12.8375 194.156 7.99968 196.424 5.65637C196.764 12.0816 196.688 19.3761 197.142 25.4233L201.451 28.1824C203.076 24.2516 208.443 10.6453 211.391 8.6422C213.054 11.1367 213.356 19.5272 214.49 23.2312C218.118 34.8721 227.416 42.9225 237.658 48.8564C239.851 50.1036 244.726 52.8249 247.107 52.5225C247.636 50.5194 242.421 45.417 240.947 43.3383C234.748 34.7587 229.986 27.3131 228.247 16.7682C236.751 28.7493 249.224 41.4485 264.38 44.0942C275.529 46.0595 296.543 41.0705 307.164 36.9509C303.233 43.6784 294.125 51.4642 287.662 55.9241C285.923 57.1335 280.745 59.2879 279.687 60.6107C280.632 62.1603 282.068 62.3115 283.806 62.765C310.225 69.8327 337.476 71.3068 362.194 57.8516C355.466 74.7461 323.227 89.7131 306.332 92.0186C302.062 93.417 296.543 94.4753 292.31 92.5477L291.97 91.0737L291.517 91.943C292.046 90.8469 291.97 90.8847 292.991 90.28C295.41 89.4863 300.058 88.5036 301.268 86.5383C301.91 82.9477 297.413 81.965 294.616 81.5493C278.213 79.3194 263.586 91.4516 287.737 97.0453C288.984 97.3477 291.932 97.839 292.953 98.5194C291.366 100.447 287.397 101.165 284.903 101.354C269.595 102.412 261.167 96.6296 249.791 87.5209C241.967 81.2091 234.332 67.8296 224.43 68.4343C220.953 68.6233 215.737 70.5131 212.6 71.9871C210.521 72.932 205.23 77.2406 204.134 76.9005C204.247 72.8186 207.347 68.6233 208.518 64.8816C202.887 58.2674 198.125 52.2579 193.173 45.1524C189.507 39.8989 184.934 31.3194 181.079 26.6705C175.485 35.8926 161.917 58.0784 153.98 64.806C154.698 68.7745 157.532 72.0249 158.931 76.069L158.591 76.4847C150.692 74.406 142.83 63.4831 130.244 71.1556C125.18 74.217 123.139 77.4296 119.019 81.4737C104.43 95.8737 95.7372 102.261 74.4206 101.014C69.3183 100.711 71.8884 100.258 74.723 98.4438C77.86 96.4028 75.6679 96.9698 79.4852 95.7603C83.7561 94.4375 87.7624 92.0564 86.8931 86.9162C86.7419 85.9713 84.2096 85.102 83.2647 84.6863C76.2348 81.3225 72.0395 83.5902 64.8206 83.7414C63.9891 87.6721 62.8553 88.9194 66.3324 90.6957C67.6931 91.3761 67.2395 90.9603 68.4112 91.4894C69.4317 91.943 68.449 94.9288 68.1088 95.0422C67.8065 95.1556 61.9482 94.8532 61.4191 94.7776C57.0348 94.0217 49.0978 91.4516 45.0537 89.5997C31.0317 84.5351 7.40961 72.8942 0.719849 58.6831C3.97024 59.7792 7.67418 62.0469 10.1687 62.8406C19.0884 65.7509 34.0175 68.9257 43.0128 68.3209C53.8978 67.6406 73.2112 65.7887 82.6978 61.1776C83.0002 61.0265 83.3025 60.8753 83.5671 60.7241C71.6238 54.4879 62.9309 47.5335 54.6537 36.7241C62.9687 39.9367 70.7545 41.3351 79.334 43.2627C104.77 48.9698 119.624 36.6485 134.213 16.995C132.285 29.2784 126.767 36.6485 119.284 46.3997C117.999 48.0627 115.504 51.6532 114.219 52.9383C115.466 53.4674 116.6 53.0516 117.81 52.4469C138.143 42.6579 149.898 31.7729 149.822 8.37763C153.299 11.1745 152.732 10.9855 154.962 14.2737C156.852 17.0327 159.384 26.7083 161.69 27.691C168.002 26.5572 165.658 11.7036 166.188 5.95873C168.077 7.96188 171.554 12.006 173.709 13.2154L174.654 13.102C175.75 13.2154 176.317 13.2154 188.033 13.3288Z" fill="url(#paint0_linear_101_102)" stroke="white" stroke-width="0.755528"/>
<path fill-rule="evenodd" clip-rule="evenodd" d="M180.739 41.6752C183.46 43.0737 195.403 61.291 197.747 64.9193C196.046 68.0563 190.528 74.5949 190.301 77.6185C189.696 85.1398 190.755 96.2138 191.284 103.886C192.795 125.959 194.458 148.031 196.197 170.104C197.142 183.37 198.2 196.636 199.296 209.902C199.75 215.798 200.166 221.732 200.732 227.666C201.186 232.579 203.832 235.943 206.402 240.063C204.021 243.237 199.863 246.412 198.011 249.625C195.441 254.047 193.703 260.585 192.04 265.461C188.487 275.741 185.539 286.437 181.986 296.68L181.57 296.869C179.227 296.529 168.153 254.387 164.676 249.776C162.068 246.337 158.78 242.557 156.247 239.533C157.835 237.228 160.065 234.545 161.01 231.899C162.937 226.57 173.218 86.6516 172.348 78.6012C171.819 73.2343 167.095 69.3792 164.827 64.6926L180.739 41.6752Z" fill="#061E45" stroke="white" stroke-width="0.755528"/>
<path fill-rule="evenodd" clip-rule="evenodd" d="M181.759 111.067C179.869 111.974 175.523 123.615 173.898 125.997C175.069 128.037 174.994 132.535 175.145 134.5C175.561 139.414 174.843 146.595 174.465 151.622C173.444 165.984 172.31 180.384 171.101 194.746C170.421 203.401 169.703 212.056 168.984 220.674C168.644 224.529 168.342 228.422 167.964 232.277C167.662 235.489 165.81 237.682 164.071 240.327C165.696 242.406 168.569 244.485 169.854 246.563C171.63 249.436 172.802 253.707 173.973 256.882C176.392 263.609 178.433 270.563 180.89 277.253L181.155 277.367C182.78 277.14 190.414 249.7 192.795 246.677C194.572 244.447 196.84 241.99 198.578 239.987C197.52 238.475 195.97 236.737 195.328 235.036C194.005 231.559 186.937 140.397 187.504 135.105C187.882 131.628 187.769 128.68 189.356 125.619L181.759 111.067Z" fill="#0C2F69"/>
<path fill-rule="evenodd" clip-rule="evenodd" d="M193.665 64.0501C189.545 58.0028 185.425 51.9556 181.343 45.9083L169.362 64.0501H193.665ZM169.362 64.0501C173.482 70.0595 177.602 76.1068 181.721 82.154L193.665 64.0501H169.362Z" fill="#0C2F69"/>
<path fill-rule="evenodd" clip-rule="evenodd" d="M126.54 79.6217C134.742 75.8799 140.147 75.0862 148.802 78.1855C170.799 86.0091 170.534 107.288 163.202 125.581C158.251 137.94 150.162 151.962 138.181 158.5C148.159 145.915 155.567 132.724 155.643 116.17C155.718 103.962 153.148 95.6469 140.298 92.6988C135.46 93.9083 130.282 96.0248 131.529 102.337C131.832 104 132.814 105.474 134.251 106.381C138.521 109.064 141.016 106.003 144.304 105.209L144.909 105.738C144.909 105.889 144.909 106.419 144.871 106.532C137.501 125.959 112.103 109.858 116.562 92.6988C118.112 86.7272 120.455 83.817 125.86 80.2642L126.54 79.6217Z" fill="#061E45" stroke="white" stroke-width="0.755528"/>
<path fill-rule="evenodd" clip-rule="evenodd" d="M128.732 85.0642C135.762 81.8138 140.411 81.1713 147.819 83.7791C166.679 90.5067 166.452 108.762 160.14 124.409C155.907 134.992 148.953 147.011 138.71 152.642C147.252 141.833 153.602 130.532 153.677 116.321C153.753 105.889 151.561 98.7461 140.525 96.2516C136.367 97.2721 131.945 99.0862 133.003 104.491C133.268 105.927 134.099 107.174 135.347 107.968C139.013 110.274 141.129 107.628 143.964 106.948L144.493 107.401C144.455 107.552 144.493 107.968 144.455 108.082C138.106 124.711 116.373 110.916 120.191 96.2138C121.514 91.1114 123.517 88.6169 128.166 85.5555L128.732 85.0642Z" fill="#14335E"/>
<path fill-rule="evenodd" clip-rule="evenodd" d="M103.183 198.866C111.006 193.234 120.039 185.637 127.561 180.573C127.334 190.059 125.709 200.453 124.991 210.015C116.26 221.127 107.227 232.012 97.8915 242.595C96.9466 243.691 91.5796 250.041 90.7859 250.607C90.1434 247.697 94.6789 232.315 95.6615 228.044C96.5308 225.398 97.5135 221.241 98.3072 218.444C99.8946 212.019 101.747 205.291 103.183 198.866Z" fill="#061E45" stroke="white" stroke-width="0.755528"/>
<path fill-rule="evenodd" clip-rule="evenodd" d="M235.164 181.102C238.792 182.841 254.931 195.691 259.088 198.979C262.792 211.376 265.929 225.02 269.293 237.568C270.011 240.289 272.43 249.209 272.619 251.401C270.087 250.305 241.4 214.664 238.112 209.751C236.827 207.823 235.315 185.6 235.164 181.102Z" fill="#061E45" stroke="white" stroke-width="0.755528"/>
<path fill-rule="evenodd" clip-rule="evenodd" d="M279.838 154.267C281.766 154.154 299.189 160.617 300.928 161.902C305.161 164.963 320.808 186.204 322.244 190.74C314.307 188.094 300.701 179.666 291.668 175.47C289.173 172.598 281.425 157.971 279.838 154.267Z" fill="#061E45" stroke="white" stroke-width="0.755528"/>
<path fill-rule="evenodd" clip-rule="evenodd" d="M80.3923 153.02C78.4647 152.907 61.0411 159.407 59.3025 160.655C55.0694 163.754 39.4222 184.957 37.986 189.493C45.923 186.847 59.5293 178.456 68.5623 174.223C71.0568 171.389 78.8049 156.724 80.3923 153.02Z" fill="#061E45" stroke="white" stroke-width="0.755528"/>
<path fill-rule="evenodd" clip-rule="evenodd" d="M286.414 177.474C287.662 178.078 287.775 178.683 287.926 179.817C286.792 183.332 268.688 196.296 264.682 199.584C263.473 198.677 263.208 198.563 262.528 197.203C262.754 195.351 263.435 195.048 264.984 193.877C272.203 188.661 279.914 183.596 286.414 177.474Z" fill="#061E45" stroke="white" stroke-width="0.755528"/>
<path fill-rule="evenodd" clip-rule="evenodd" d="M231.384 211.3C232.027 211.149 232.518 211.263 233.161 211.338L233.841 212.283C233.917 213.039 234.143 213.984 233.539 214.437C229.381 217.763 214.717 220.636 209.879 221.467L208.632 221.43C207.536 220.522 207.876 221.014 207.384 219.615C207.725 218.67 207.989 217.99 209.123 217.574C216.871 214.853 223.636 214.853 231.384 211.3Z" fill="#061E45" stroke="white" stroke-width="0.755528"/>
<path fill-rule="evenodd" clip-rule="evenodd" d="M74.7608 177.587C75.1766 177.7 76.2726 177.965 76.575 178.23C83.6427 184.693 92.827 189.833 99.9703 195.88C100.575 197.543 100.348 197.278 99.9325 199.244C95.6238 199.055 79.9388 184.957 75.8569 181.404C74.4963 180.233 74.723 179.137 74.7608 177.587Z" fill="#061E45" stroke="white" stroke-width="0.755528"/>
<path fill-rule="evenodd" clip-rule="evenodd" d="M129.262 210.885C133.041 211.678 137.539 214.022 141.507 215.08C145.022 216.063 153.224 215.571 154.887 218.141C154.962 220.069 155.227 219.615 154.282 221.052C149.633 220.749 130.887 217.348 128.506 213.833C128.203 212.056 128.203 212.699 129.262 210.885Z" fill="#061E45" stroke="white" stroke-width="0.755528"/>
<path fill-rule="evenodd" clip-rule="evenodd" d="M327.347 109.064L327.687 109.518C326.288 119.987 312.984 149.996 306.295 157.556C305.954 156.459 305.501 155.741 306.143 154.645C308.714 150.072 311.624 145.385 314.194 140.812C319.788 130.759 324.21 120.1 327.347 109.064Z" fill="#061E45" fill-opacity="0.980392"/>
<path fill-rule="evenodd" clip-rule="evenodd" d="M327.347 109.064L327.687 109.518C326.288 119.987 312.984 149.996 306.295 157.556C305.954 156.459 305.501 155.741 306.143 154.645C308.714 150.072 311.624 145.385 314.194 140.812C319.788 130.759 324.21 120.1 327.347 109.064Z" stroke="white" stroke-width="0.755528"/>
<path fill-rule="evenodd" clip-rule="evenodd" d="M39.6112 122.746C41.7655 124.938 49.2868 145.574 52.8396 149.052C54.8049 150.941 57.3372 155.137 57.0726 157.971C53.2175 156.082 38.8553 126.979 39.6112 122.746Z" fill="#061E45" fill-opacity="0.976471"/>
<path fill-rule="evenodd" clip-rule="evenodd" d="M39.6112 122.746C41.7655 124.938 49.2868 145.574 52.8396 149.052C54.8049 150.941 57.3372 155.137 57.0726 157.971C53.2175 156.082 38.8553 126.979 39.6112 122.746Z" stroke="white" stroke-width="0.755528"/>
<path d="M85.9482 157.064C85.8348 156.573 85.797 156.157 85.8726 155.817C85.9104 155.477 85.9482 155.099 85.9482 154.683C86.0238 152.226 86.5151 149.996 87.3466 148.069C88.1781 146.141 89.1986 144.403 90.408 142.929C92.3734 140.359 94.7545 138.204 97.4757 136.466C100.197 134.727 103.258 133.291 106.622 132.195C106.433 131.59 106.169 131.137 105.828 130.796C105.488 130.456 105.11 130.116 104.695 129.814C103.599 128.718 102.427 127.773 101.142 126.904C99.819 126.072 98.4962 125.241 97.0978 124.447C95.6994 122.179 94.4143 119.798 93.2427 117.379C92.0332 114.96 90.8994 112.428 89.8033 109.858C89.9923 109.858 90.1056 109.858 90.1056 109.858C90.1056 109.971 90.1434 110.009 90.1812 110.009C90.219 110.009 90.2568 110.047 90.2568 110.16C94.0364 113.222 98.1938 115.943 102.767 118.286C107.34 120.592 112.14 122.633 117.205 124.296C120.493 125.392 123.706 126.299 126.918 126.979C127.107 127.093 127.334 127.13 127.561 127.13C127.825 127.13 128.052 127.206 128.241 127.282C128.543 127.395 128.846 127.584 129.148 127.886C129.451 128.189 129.677 128.415 129.866 128.642C131.454 129.927 132.928 131.363 134.213 132.951C135.006 133.858 135.725 134.803 136.367 135.861C137.01 136.882 137.539 138.053 137.917 139.338C137.917 139.565 137.992 139.83 138.068 140.17C138.181 140.51 138.181 140.699 138.068 140.699C138.068 140.699 137.917 140.548 137.614 140.245C137.312 140.056 137.01 139.867 136.669 139.641C136.329 139.452 136.027 139.263 135.838 139.074C134.44 138.356 133.003 137.751 131.529 137.259C130.017 136.768 128.543 136.315 127.069 135.937C125.066 135.445 123.063 134.954 121.022 134.5C118.981 134.047 116.865 133.593 114.673 133.102C114.484 133.102 114.332 133.064 114.257 133.026C114.143 132.989 113.992 132.951 113.803 132.951C113.577 133.064 113.35 133.178 113.047 133.329C112.745 133.48 112.443 133.631 112.14 133.858C110.251 134.841 108.588 136.012 107.151 137.411C105.715 138.809 104.468 140.359 103.372 142.022C102.087 144.138 101.066 146.368 100.386 148.825C99.7056 151.244 99.2899 154.116 99.1765 157.367C99.2899 157.367 99.3277 157.367 99.3277 157.367C99.7434 157.064 100.348 156.724 101.142 156.346C102.125 155.93 103.145 155.552 104.165 155.212C105.224 154.872 106.282 154.532 107.378 154.267C107.68 154.267 108.134 154.154 108.739 153.965C108.928 153.852 109.23 153.625 109.608 153.209C110.628 152.415 111.573 151.584 112.443 150.677C113.35 149.77 114.181 148.9 114.975 147.993C115.277 147.691 115.428 147.54 115.428 147.54C115.315 146.935 114.937 146.519 114.257 146.217C113.161 145.612 111.649 145.423 109.759 145.612C107.869 145.801 106.244 145.99 104.846 146.217V146.066C105.64 145.272 106.509 144.705 107.454 144.327C108.399 143.987 109.381 143.609 110.364 143.231C112.443 142.437 114.635 141.795 116.903 141.304C119.208 140.812 121.476 140.283 123.781 139.792C124.877 139.603 126.011 139.414 127.183 139.187C128.392 138.998 129.602 138.809 130.773 138.62C130.773 138.696 130.66 138.771 130.471 138.771C130.282 138.847 130.093 138.922 129.942 138.998C129.791 139.036 129.64 139.111 129.451 139.187C128.052 140.094 126.994 141.379 126.238 143.08C125.482 144.781 124.877 146.557 124.386 148.447C123.97 150.034 123.668 151.735 123.403 153.587C123.139 155.401 123.025 157.329 123.025 159.332C123.025 160.012 122.988 160.693 122.95 161.411C122.912 162.091 122.912 162.734 123.025 163.338C123.139 163.641 123.214 163.943 123.328 164.321C123.441 164.661 123.517 164.963 123.63 165.266C124.31 167.647 124.877 170.104 125.255 172.636C125.671 175.168 125.898 177.889 126.011 180.762C125.898 180.573 125.86 180.384 125.86 180.233C125.86 180.082 125.747 179.93 125.558 179.741C125.255 179.023 124.726 178.23 123.932 177.36C122.912 176.264 121.854 175.244 120.72 174.374C119.586 173.467 118.414 172.636 117.205 171.842C115.844 170.822 114.37 169.877 112.896 169.008C111.422 168.1 109.91 167.269 108.436 166.475C108.247 166.286 108.021 166.135 107.756 166.097C107.491 166.059 107.303 165.908 107.076 165.719C106.887 165.417 106.773 165.039 106.773 164.548C106.773 164.019 106.773 163.527 106.773 163.036C106.887 162.545 107 162.129 107.076 161.789C107.189 161.411 107.34 161.071 107.529 160.655C106.925 160.466 106.547 160.352 106.358 160.352C105.262 160.163 104.165 160.163 103.069 160.352C101.973 160.541 100.991 160.844 100.084 161.259C98.0049 162.053 96.1151 162.96 94.4143 164.019C92.7513 165.039 91.1639 166.173 89.6521 167.345C89.4631 167.571 89.3119 167.685 89.1986 167.722C89.123 167.798 88.9718 167.911 88.745 168.1C87.9513 166.437 87.3088 164.699 86.8175 162.96C86.3261 161.222 86.0238 159.256 85.9482 157.064Z" fill="white" stroke="white" stroke-width="0.944882"/>
<path d="M274.736 111.067C274.547 111.748 274.244 112.39 273.791 112.995C273.337 113.6 272.884 114.129 272.355 114.62C271.183 116.132 269.973 117.53 268.726 118.891C267.479 120.214 266.194 121.537 264.909 122.822C263.132 124.598 261.356 126.374 259.617 128.113C257.879 129.852 256.14 131.552 254.326 133.253C255.044 134.954 255.838 136.466 256.707 137.864C257.614 139.263 258.597 140.661 259.693 142.022C260.109 142.626 260.449 143.08 260.751 143.382C260.94 143.571 261.129 143.76 261.28 143.987C261.432 144.176 261.583 144.365 261.81 144.592C262.074 145.159 262.225 145.952 262.225 146.897C262.225 147.842 262.188 148.711 262.074 149.505C262.074 151.282 261.923 152.907 261.658 154.419C262.452 154.305 263.17 154.116 263.813 153.814C264.455 153.511 265.022 153.171 265.514 152.756L265.665 152.604L265.816 152.453H265.967C264.455 155.666 262.755 158.538 260.827 161.184C258.899 163.83 256.783 166.286 254.477 168.554C252.21 170.859 249.753 172.976 247.107 174.979C244.499 176.945 241.74 178.796 238.83 180.459C241.514 176.718 243.781 172.485 245.558 167.798C246.465 165.417 247.183 162.885 247.712 160.201C248.241 157.518 248.619 154.645 248.846 151.584C249.035 152.189 249.262 152.756 249.564 153.36C249.866 153.965 250.282 154.343 250.773 154.57C250.962 154.343 251.076 154.078 251.076 153.738C251.076 153.398 251.076 153.096 251.076 152.907C250.962 151.735 250.698 150.601 250.244 149.581C249.791 148.522 249.375 147.54 248.997 146.671C247.296 146.557 245.558 146.519 243.781 146.519C241.967 146.519 240.229 146.444 238.566 146.368C238.566 146.444 238.641 146.708 238.83 147.124C239.548 148.485 240.115 150.034 240.569 151.735C241.022 153.398 241.476 155.137 241.967 156.951C242.194 157.518 242.269 158.047 242.269 158.425C242.08 158.425 242.005 158.387 242.043 158.274C242.118 158.198 242.08 158.085 241.967 157.971C241.778 157.48 241.476 156.989 241.098 156.497C240.682 156.006 240.304 155.515 239.888 154.985C238.49 153.511 236.978 152.113 235.353 150.752C233.69 149.43 232.103 148.107 230.515 146.822V146.671C231.309 144.176 232.329 141.946 233.577 139.943C234.786 137.978 236.109 136.05 237.507 134.16C237.507 134.047 237.394 133.896 237.205 133.707C236.222 132.8 235.504 131.628 235.126 130.192C234.71 128.756 234.446 127.206 234.219 125.505C234.937 125.996 235.58 126.488 236.222 126.904C236.903 127.357 237.658 127.848 238.566 128.34C239.359 128.718 240.229 129.02 241.249 129.209C242.232 129.436 243.252 129.36 244.348 129.096C245.255 128.869 246.049 128.567 246.729 128.113C247.447 127.659 248.09 127.13 248.695 126.563C249.186 125.959 249.677 125.278 250.169 124.522C250.66 123.804 251.076 123.011 251.378 122.217C251.567 123.124 252.172 123.426 253.155 123.2C254.137 122.935 255.006 122.708 255.687 122.519C257.274 121.915 258.748 121.234 260.147 120.441C261.545 119.647 262.868 118.853 264.191 118.059C266.08 116.963 267.857 115.83 269.595 114.62C271.334 113.448 273.073 112.239 274.736 111.067ZM246.314 132.8C244.991 133.896 243.819 135.03 242.723 136.163C241.627 137.297 240.682 138.62 239.888 140.094C238.981 141.493 238.566 142.929 238.566 144.441H248.695C248.166 143.647 247.75 142.702 247.41 141.682C247.069 140.623 246.805 139.452 246.578 138.167C246.389 136.768 246.465 135.521 246.729 134.349C247.032 133.215 247.447 132.271 247.939 131.477C247.636 131.666 247.372 131.893 247.107 132.119C246.88 132.384 246.578 132.611 246.314 132.8Z" fill="white" stroke="white" stroke-width="0.944882"/>
<path fill-rule="evenodd" clip-rule="evenodd" d="M236.184 80.1508C227.983 76.3713 222.578 75.6154 213.923 78.6768C191.926 86.5005 192.191 107.817 199.523 126.11C204.474 138.431 212.562 152.453 224.581 159.03C214.566 146.406 207.158 133.215 207.082 116.661C207.006 104.491 209.577 96.1382 222.427 93.1902C227.303 94.3997 232.443 96.5162 231.233 102.828C230.893 104.491 229.91 105.965 228.474 106.872C224.203 109.593 221.709 106.532 218.421 105.7L217.816 106.23C217.816 106.381 217.816 106.91 217.854 107.023C225.224 126.45 250.622 110.349 246.162 93.1902C244.651 87.2186 242.269 84.3083 236.865 80.7556L236.184 80.1508Z" fill="#061E45" stroke="white" stroke-width="0.755528"/>
<path fill-rule="evenodd" clip-rule="evenodd" d="M233.992 85.0642C226.962 81.8138 222.351 81.1713 214.906 83.7791C196.084 90.5067 196.31 108.762 202.584 124.409C206.817 134.992 213.772 147.011 224.052 152.642C215.473 141.833 209.123 130.532 209.047 116.321C208.972 105.889 211.202 98.7461 222.2 96.2516C226.358 97.2721 230.78 99.0862 229.721 104.491C229.457 105.927 228.625 107.174 227.378 107.968C223.712 110.274 221.595 107.628 218.761 106.948L218.269 107.401C218.269 107.552 218.232 107.968 218.307 108.082C224.619 124.711 246.351 110.916 242.572 96.2138C241.249 91.1114 239.208 88.6169 234.597 85.5555L233.992 85.0642Z" fill="#14335E"/>
<path d="M134.137 296.492V294.792L140.523 287.801C141.273 286.982 141.89 286.27 142.375 285.666C142.86 285.055 143.219 284.482 143.452 283.946C143.691 283.405 143.811 282.838 143.811 282.246C143.811 281.566 143.647 280.977 143.32 280.479C142.998 279.982 142.557 279.598 141.997 279.327C141.436 279.056 140.807 278.921 140.107 278.921C139.364 278.921 138.716 279.075 138.161 279.383C137.613 279.686 137.188 280.111 136.886 280.659C136.59 281.207 136.442 281.849 136.442 282.586H134.212C134.212 281.452 134.474 280.457 134.997 279.601C135.519 278.744 136.231 278.077 137.132 277.598C138.039 277.119 139.056 276.88 140.183 276.88C141.317 276.88 142.321 277.119 143.197 277.598C144.072 278.077 144.759 278.722 145.256 279.535C145.754 280.347 146.003 281.251 146.003 282.246C146.003 282.958 145.873 283.654 145.615 284.334C145.363 285.008 144.922 285.76 144.293 286.592C143.669 287.417 142.803 288.424 141.695 289.615L137.349 294.263V294.414H146.343V296.492H134.137Z" fill="white"/>
<path d="M157.985 296.757C156.561 296.757 155.349 296.37 154.347 295.595C153.346 294.814 152.581 293.683 152.052 292.203C151.523 290.717 151.258 288.922 151.258 286.818C151.258 284.727 151.523 282.942 152.052 281.462C152.587 279.976 153.355 278.842 154.357 278.061C155.365 277.274 156.574 276.88 157.985 276.88C159.395 276.88 160.601 277.274 161.603 278.061C162.611 278.842 163.379 279.976 163.908 281.462C164.443 282.942 164.711 284.727 164.711 286.818C164.711 288.922 164.446 290.717 163.917 292.203C163.388 293.683 162.623 294.814 161.622 295.595C160.62 296.37 159.408 296.757 157.985 296.757ZM157.985 294.679C159.395 294.679 160.491 293.998 161.272 292.638C162.053 291.278 162.444 289.338 162.444 286.818C162.444 285.143 162.264 283.717 161.905 282.539C161.552 281.361 161.042 280.464 160.375 279.846C159.713 279.229 158.917 278.921 157.985 278.921C156.586 278.921 155.494 279.61 154.706 280.99C153.919 282.362 153.525 284.305 153.525 286.818C153.525 288.494 153.702 289.917 154.055 291.089C154.407 292.26 154.914 293.151 155.576 293.762C156.243 294.373 157.046 294.679 157.985 294.679Z" fill="white"/>
<path d="M205.948 293.809V292.108L212.334 285.117C213.084 284.299 213.701 283.587 214.186 282.982C214.671 282.371 215.03 281.798 215.263 281.263C215.502 280.721 215.622 280.155 215.622 279.563C215.622 278.882 215.458 278.293 215.131 277.796C214.809 277.298 214.368 276.914 213.808 276.643C213.247 276.373 212.618 276.237 211.919 276.237C211.175 276.237 210.527 276.391 209.972 276.7C209.424 277.002 208.999 277.427 208.697 277.975C208.401 278.523 208.253 279.166 208.253 279.903H206.023C206.023 278.769 206.285 277.774 206.808 276.917C207.33 276.061 208.042 275.393 208.943 274.914C209.85 274.436 210.867 274.196 211.994 274.196C213.128 274.196 214.132 274.436 215.008 274.914C215.883 275.393 216.57 276.039 217.067 276.851C217.565 277.664 217.814 278.567 217.814 279.563C217.814 280.274 217.684 280.97 217.426 281.65C217.174 282.324 216.733 283.077 216.104 283.908C215.48 284.733 214.614 285.741 213.506 286.931L209.16 291.579V291.731H218.154V293.809H205.948Z" fill="white"/>
<path d="M229.909 294.073C229.115 294.061 228.322 293.91 227.528 293.62C226.735 293.33 226.01 292.842 225.355 292.156C224.7 291.463 224.175 290.528 223.778 289.35C223.381 288.166 223.183 286.679 223.183 284.891C223.183 283.178 223.343 281.66 223.664 280.337C223.986 279.008 224.452 277.89 225.063 276.983C225.673 276.07 226.41 275.377 227.273 274.905C228.142 274.433 229.122 274.196 230.211 274.196C231.295 274.196 232.258 274.414 233.102 274.848C233.952 275.277 234.645 275.875 235.181 276.643C235.716 277.412 236.062 278.297 236.22 279.298H233.915C233.7 278.429 233.285 277.708 232.668 277.135C232.05 276.561 231.232 276.275 230.211 276.275C228.712 276.275 227.531 276.927 226.669 278.23C225.812 279.534 225.381 281.364 225.374 283.719H225.525C225.878 283.184 226.297 282.727 226.782 282.349C227.273 281.965 227.815 281.669 228.407 281.461C228.999 281.254 229.626 281.15 230.287 281.15C231.395 281.15 232.409 281.427 233.329 281.981C234.248 282.529 234.985 283.288 235.54 284.258C236.094 285.221 236.371 286.327 236.371 287.574C236.371 288.77 236.103 289.866 235.568 290.861C235.033 291.85 234.28 292.637 233.31 293.223C232.346 293.803 231.213 294.086 229.909 294.073ZM229.909 291.995C230.703 291.995 231.414 291.797 232.044 291.4C232.68 291.003 233.181 290.471 233.546 289.803C233.918 289.136 234.104 288.392 234.104 287.574C234.104 286.774 233.924 286.046 233.565 285.391C233.212 284.73 232.724 284.204 232.101 283.814C231.484 283.423 230.778 283.228 229.985 283.228C229.386 283.228 228.829 283.348 228.312 283.587C227.796 283.82 227.342 284.141 226.952 284.551C226.568 284.96 226.265 285.429 226.045 285.958C225.825 286.481 225.714 287.032 225.714 287.612C225.714 288.38 225.894 289.098 226.253 289.765C226.618 290.433 227.116 290.972 227.746 291.381C228.382 291.79 229.103 291.995 229.909 291.995Z" fill="white"/>
<path d="M4.23918 321.018C4.22028 319.973 4.39033 319.132 4.74933 318.496C5.10832 317.86 5.57438 317.397 6.14751 317.107C6.72694 316.817 7.33786 316.672 7.98027 316.672C8.62268 316.672 9.20841 316.814 9.73745 317.098C10.2728 317.375 10.8837 317.812 11.5702 318.411C12.0363 318.814 12.4079 319.097 12.685 319.261C12.9684 319.425 13.277 319.507 13.6108 319.507C14.1524 319.507 14.5807 319.311 14.8956 318.921C15.2105 318.524 15.3617 317.951 15.3491 317.202H17.3897C17.4086 318.247 17.2385 319.088 16.8795 319.724C16.5268 320.36 16.0608 320.823 15.4814 321.113C14.9019 321.402 14.291 321.547 13.6486 321.547C13.0062 321.547 12.4205 321.409 11.8914 321.132C11.3624 320.848 10.7515 320.407 10.0587 319.809C9.59889 319.406 9.2273 319.122 8.94389 318.959C8.66047 318.795 8.35186 318.713 8.01806 318.713C7.50791 318.713 7.08594 318.893 6.75213 319.252C6.42463 319.604 6.26718 320.193 6.27977 321.018H4.23918ZM21.9267 328.765V309.417H24.2696V319.015H24.4964L33.1878 309.417H36.2487L28.1241 318.146L36.2487 328.765H33.4145L26.6881 319.771L24.2696 322.492V328.765H21.9267ZM40.0748 328.765H37.6185L44.7228 309.417H47.1413L54.2456 328.765H51.7893L46.0076 312.478H45.8565L40.0748 328.765ZM40.9817 321.207H50.8824V323.286H40.9817V321.207ZM57.2593 328.765V309.417H64.0235C65.3713 309.417 66.4829 309.65 67.3583 310.116C68.2338 310.576 68.8856 311.196 69.3139 311.977C69.7422 312.752 69.9563 313.612 69.9563 314.556C69.9563 315.388 69.8083 316.074 69.5123 316.616C69.2226 317.157 68.8384 317.586 68.3597 317.901C67.8874 318.216 67.3741 318.449 66.8198 318.6V318.789C67.4119 318.826 68.007 319.034 68.6054 319.412C69.2037 319.79 69.7044 320.332 70.1075 321.037C70.5106 321.742 70.7121 322.605 70.7121 323.626C70.7121 324.596 70.4917 325.468 70.0508 326.242C69.6099 327.017 68.914 327.631 67.963 328.085C67.0119 328.538 65.7744 328.765 64.2502 328.765H57.2593ZM59.6022 326.687H64.2502C65.7807 326.687 66.8671 326.39 67.5095 325.798C68.1582 325.2 68.4826 324.476 68.4826 323.626C68.4826 322.971 68.3157 322.366 67.9819 321.812C67.6481 321.251 67.1725 320.804 66.5553 320.47C65.9381 320.13 65.2075 319.96 64.3636 319.96H59.6022V326.687ZM59.6022 317.919H63.9479C64.6533 317.919 65.2894 317.781 65.8562 317.504C66.4294 317.227 66.8828 316.836 67.2166 316.332C67.5567 315.829 67.7268 315.236 67.7268 314.556C67.7268 313.706 67.4308 312.985 66.8387 312.393C66.2467 311.795 65.3083 311.495 64.0235 311.495H59.6022V317.919ZM76.9047 309.417V328.765H74.5618V309.417H76.9047ZM96.9446 309.417V328.765H94.6773L84.1342 313.574H83.9453V328.765H81.6024V309.417H83.8697L94.4506 324.646H94.6395V309.417H96.9446ZM101.633 328.765V309.417H113.31V311.495H103.976V318.033H112.705V320.111H103.976V326.687H113.461V328.765H101.633ZM116.474 311.495V309.417H130.985V311.495H124.901V328.765H122.558V311.495H116.474ZM155.309 315.463C155.102 314.827 154.828 314.257 154.488 313.753C154.154 313.243 153.754 312.809 153.288 312.45C152.828 312.091 152.305 311.817 151.72 311.628C151.134 311.439 150.491 311.344 149.792 311.344C148.646 311.344 147.604 311.64 146.665 312.232C145.727 312.824 144.981 313.697 144.426 314.849C143.872 316.002 143.595 317.416 143.595 319.091C143.595 320.766 143.875 322.18 144.436 323.333C144.996 324.485 145.755 325.358 146.713 325.95C147.67 326.542 148.747 326.838 149.943 326.838C151.052 326.838 152.028 326.601 152.872 326.129C153.722 325.65 154.384 324.977 154.856 324.107C155.335 323.232 155.574 322.202 155.574 321.018L156.292 321.169H150.473V319.091H157.841V321.169C157.841 322.763 157.501 324.148 156.821 325.326C156.147 326.504 155.215 327.417 154.025 328.066C152.841 328.708 151.48 329.029 149.943 329.029C148.23 329.029 146.725 328.626 145.428 327.82C144.137 327.014 143.129 325.868 142.405 324.381C141.687 322.895 141.328 321.132 141.328 319.091C141.328 317.561 141.532 316.184 141.942 314.963C142.357 313.734 142.943 312.689 143.699 311.826C144.455 310.963 145.349 310.302 146.382 309.842C147.415 309.382 148.552 309.152 149.792 309.152C150.813 309.152 151.764 309.307 152.645 309.615C153.533 309.918 154.324 310.349 155.017 310.91C155.716 311.464 156.298 312.128 156.764 312.903C157.23 313.671 157.552 314.525 157.728 315.463H155.309ZM162.05 328.765H159.594L166.698 309.417H169.117L176.221 328.765H173.765L167.983 312.478H167.832L162.05 328.765ZM162.957 321.207H172.858V323.286H162.957V321.207ZM175.916 311.495V309.417H190.427V311.495H184.343V328.765H182V311.495H175.916ZM194.043 328.765V309.417H200.581C202.092 309.417 203.333 309.675 204.303 310.192C205.273 310.702 205.991 311.404 206.457 312.298C206.923 313.193 207.156 314.21 207.156 315.35C207.156 316.49 206.923 317.501 206.457 318.382C205.991 319.264 205.276 319.957 204.312 320.461C203.349 320.958 202.117 321.207 200.618 321.207H195.328V319.091H200.543C201.576 319.091 202.407 318.94 203.037 318.637C203.673 318.335 204.133 317.907 204.416 317.353C204.706 316.792 204.851 316.125 204.851 315.35C204.851 314.575 204.706 313.898 204.416 313.319C204.126 312.739 203.663 312.292 203.027 311.977C202.391 311.656 201.55 311.495 200.505 311.495H196.386V328.765H194.043ZM203.15 320.073L207.912 328.765H205.191L200.505 320.073H203.15ZM211.853 328.765H209.397L216.501 309.417H218.92L226.024 328.765H223.568L217.786 312.478H217.635L211.853 328.765ZM212.76 321.207H222.661V323.286H212.76V321.207ZM237.314 328.765H234.857L241.962 309.417H244.38L251.484 328.765H249.028L243.246 312.478H243.095L237.314 328.765ZM238.221 321.207H248.121V323.286H238.221V321.207ZM254.498 328.765V309.417H256.841V319.015H257.068L265.759 309.417H268.82L260.695 318.146L268.82 328.765H265.986L259.259 319.771L256.841 322.492V328.765H254.498ZM282.433 314.254C282.32 313.297 281.86 312.553 281.054 312.024C280.248 311.495 279.259 311.231 278.088 311.231C277.231 311.231 276.482 311.369 275.839 311.647C275.203 311.924 274.706 312.305 274.347 312.79C273.994 313.275 273.818 313.826 273.818 314.443C273.818 314.959 273.94 315.403 274.186 315.775C274.438 316.14 274.759 316.446 275.15 316.691C275.54 316.931 275.95 317.129 276.378 317.287C276.806 317.438 277.2 317.561 277.559 317.655L279.524 318.184C280.028 318.316 280.588 318.499 281.205 318.732C281.829 318.965 282.424 319.283 282.991 319.686C283.564 320.083 284.036 320.593 284.408 321.217C284.78 321.84 284.965 322.605 284.965 323.512C284.965 324.558 284.691 325.502 284.143 326.346C283.602 327.19 282.808 327.861 281.763 328.359C280.724 328.856 279.461 329.105 277.974 329.105C276.589 329.105 275.389 328.881 274.375 328.434C273.367 327.987 272.574 327.364 271.994 326.564C271.421 325.764 271.097 324.835 271.021 323.777H273.44C273.503 324.507 273.748 325.112 274.177 325.591C274.611 326.063 275.159 326.416 275.82 326.649C276.488 326.875 277.206 326.989 277.974 326.989C278.869 326.989 279.672 326.844 280.383 326.554C281.095 326.258 281.659 325.849 282.074 325.326C282.49 324.797 282.698 324.18 282.698 323.474C282.698 322.832 282.519 322.309 282.16 321.906C281.801 321.503 281.328 321.176 280.742 320.924C280.157 320.672 279.524 320.451 278.844 320.262L276.463 319.582C274.951 319.148 273.755 318.527 272.873 317.721C271.991 316.915 271.55 315.86 271.55 314.556C271.55 313.473 271.843 312.528 272.429 311.722C273.021 310.91 273.814 310.28 274.81 309.833C275.811 309.379 276.929 309.152 278.163 309.152C279.41 309.152 280.519 309.376 281.489 309.823C282.459 310.264 283.227 310.869 283.794 311.637C284.367 312.405 284.669 313.278 284.701 314.254H282.433ZM289.611 328.765H287.155L294.259 309.417H296.678L303.782 328.765H301.326L295.544 312.478H295.393L289.611 328.765ZM290.518 321.207H300.419V323.286H290.518V321.207ZM322.138 309.417V328.765H319.87L309.327 313.574H309.138V328.765H306.795V309.417H309.063L319.644 324.646H319.833V309.417H322.138ZM327.619 328.765H325.163L332.268 309.417H334.686L341.79 328.765H339.334L333.552 312.478H333.401L327.619 328.765ZM328.526 321.207H338.427V323.286H328.526V321.207ZM344.653 321.018C344.634 319.973 344.804 319.132 345.163 318.496C345.522 317.86 345.988 317.397 346.561 317.107C347.141 316.817 347.751 316.672 348.394 316.672C349.036 316.672 349.622 316.814 350.151 317.098C350.686 317.375 351.297 317.812 351.984 318.411C352.45 318.814 352.821 319.097 353.099 319.261C353.382 319.425 353.691 319.507 354.024 319.507C354.566 319.507 354.994 319.311 355.309 318.921C355.624 318.524 355.775 317.951 355.763 317.202H357.803C357.822 318.247 357.652 319.088 357.293 319.724C356.94 320.36 356.474 320.823 355.895 321.113C355.316 321.402 354.705 321.547 354.062 321.547C353.42 321.547 352.834 321.409 352.305 321.132C351.776 320.848 351.165 320.407 350.472 319.809C350.012 319.406 349.641 319.122 349.357 318.959C349.074 318.795 348.765 318.713 348.432 318.713C347.922 318.713 347.5 318.893 347.166 319.252C346.838 319.604 346.681 320.193 346.693 321.018H344.653Z" fill="#2971CF"/>
<defs>
<linearGradient id="paint0_linear_101_102" x1="185.747" y1="74.5938" x2="181.854" y2="-62.2527" gradientUnits="userSpaceOnUse">
<stop stop-color="#16365F"/>
<stop offset="0.45098" stop-color="#6E87AF"/>
<stop offset="1" stop-color="#C6D8FF"/>
</linearGradient>
</defs>
</svg>
